{
    "asset" : {
        "generator" : "Khronos glTF Blender I/O v1.7.33",
        "version" : "2.0"
    },
    "scene" : 0,
    "scenes" : [
        {
            "name" : "Scene",
            "nodes" : [
                0
            ]
        }
    ],
    "nodes" : [
        {
            "mesh" : 0,
            "name" : "Arrow",
            "translation" : [
                0,
                0.5,
                0
            ]
        }
    ],
    "meshes" : [
        {
            "name" : "Cylinder",
            "primitives" : [
                {
                    "attributes" : {
                        "POSITION" : 0,
                        "NORMAL" : 1,
                        "TEXCOORD_0" : 2
                    },
                    "indices" : 3
                }
            ]
        }
    ],
    "accessors" : [
        {
            "bufferView" : 0,
            "componentType" : 5126,
            "count" : 111,
            "max" : [
                0.03999999910593033,
                0.5,
                0.03999999910593033
            ],
            "min" : [
                -0.03999999910593033,
                -0.4000000059604645,
                -0.03999999910593033
            ],
            "type" : "VEC3"
        },
        {
            "bufferView" : 1,
            "componentType" : 5126,
            "count" : 111,
            "type" : "VEC3"
        },
        {
            "bufferView" : 2,
            "componentType" : 5126,
            "count" : 111,
            "type" : "VEC2"
        },
        {
            "bufferView" : 3,
            "componentType" : 5123,
            "count" : 144,
            "type" : "SCALAR"
        }
    ],
    "bufferViews" : [
        {
            "buffer" : 0,
            "byteLength" : 1332,
            "byteOffset" : 0
        },
        {
            "buffer" : 0,
            "byteLength" : 1332,
            "byteOffset" : 1332
        },
        {
            "buffer" : 0,
            "byteLength" : 888,
            "byteOffset" : 2664
        },
        {
            "buffer" : 0,
            "byteLength" : 288,
            "byteOffset" : 3552
        }
    ],
    "buffers" : [
        {
            "byteLength" : 3840,
            "uri" : "data:application/octet-stream;base64,"
        }
    ]
}
