<svg width="100" height="100" viewBox="0 0 100 100" fill="none" xmlns="http://www.w3.org/2000/svg">
<path d="M32.763 15.6637C32.9051 15.2657 33.2821 15 33.7047 15H46.0905C46.7794 15 47.2619 15.6802 47.0344 16.3304L23.2344 84.3304C23.094 84.7314 22.7155 85 22.2905 85H9.419C8.72747 85 8.24468 84.3149 8.47726 83.6637L32.763 15.6637Z" fill="#39A0ED"/>
<path d="M49.4352 58.7279C49.7328 58.5852 50.0816 58.5986 50.3674 58.7636L60.8296 64.804C61.5253 65.2057 61.4873 66.2223 60.7635 66.5709L22.9816 84.768C22.6807 84.9129 22.3273 84.8981 22.0397 84.7284L11.6153 78.5799C10.9262 78.1734 10.9697 77.1625 11.6911 76.8167L49.4352 58.7279Z" fill="#39A0ED"/>
<path d="M49.4222 15.6599C49.279 15.2639 48.903 15 48.4818 15H35.9154C35.2249 15 34.7422 15.6832 34.9728 16.3341L59.0741 84.3341C59.2156 84.7332 59.5932 85 60.0166 85H73.0749C73.7682 85 74.2511 84.3118 74.0153 83.6599L49.4222 15.6599Z" fill="#39A0ED"/>
<path d="M53.913 15H66.8165H85.7362C86.1872 15 86.5823 15.3018 86.701 15.7369L89.1555 24.7369C89.329 25.373 88.8501 26 88.1908 26H71.4287C70.7345 26 70.2515 26.6901 70.4892 27.3424L91.0108 83.6576C91.2485 84.3099 90.7655 85 90.0713 85H77.8913C77.4672 85 77.0892 84.7325 76.9482 84.3326L52.9699 16.3326C52.7405 15.682 53.2231 15 53.913 15Z" fill="#F5F0F6"/>
<path d="M28.5873 15H13.7516C13.3063 15 12.9148 15.2943 12.791 15.722L10.1863 24.722C10.0012 25.3616 10.481 26 11.1468 26H25.4137C25.8378 26 26.2158 25.7325 26.3568 25.3326L29.5304 16.3326C29.7598 15.682 29.2772 15 28.5873 15Z" fill="#F5F0F6"/>
</svg>
