<svg width="1108" height="732" viewBox="0 0 1108 732" fill="none" xmlns="http://www.w3.org/2000/svg">
<g clip-path="url(#clip0_105_4007)">
<path d="M767.68 330.79L774.57 328.09C775.23 327.83 775.88 327.55 776.57 327.28C763.819 322.585 753.045 313.691 746.02 302.061C738.994 290.43 736.136 276.755 737.914 263.285C739.692 249.814 746 237.349 755.803 227.939C765.605 218.53 778.318 212.736 791.85 211.51L787.05 235.71L805.27 211.79H805.43C821.158 213.952 835.383 222.273 844.977 234.922C854.571 247.57 858.748 263.512 856.59 279.24C856.44 280.37 856.2 281.47 855.99 282.58C861.6 278.15 866.86 273.26 870.8 267.58C878.8 256.04 881.51 241.82 884.27 224.41C889.74 189.93 894.67 155.07 899.11 120.23C885.476 116.117 873.757 107.275 866.058 95.2945C858.36 83.314 855.187 68.9804 857.11 54.8701C857.36 53.0501 857.71 51.2801 858.11 49.5301C858.21 49.0901 858.31 48.6501 858.42 48.2201C858.85 46.5301 859.33 44.8701 859.89 43.2201C859.98 42.9501 860.1 42.7001 860.19 42.4401C860.69 41.0701 861.19 39.7201 861.84 38.4401C862.06 37.9401 862.28 37.4401 862.51 36.9701C863.2 35.5401 863.93 34.1401 864.73 32.7801C865 32.3301 865.29 31.9001 865.56 31.4501C866.18 30.4501 866.83 29.4501 867.5 28.5201C867.86 28.0201 868.21 27.5201 868.58 27.0301L868.85 26.6401C877.341 15.5268 889.458 7.74047 903.094 4.63464C916.73 1.52882 931.024 3.29992 943.49 9.64006L937.25 41.1301L955.25 17.4901C964.932 25.6927 971.738 36.7759 974.674 49.1211C977.61 61.4663 976.523 74.4269 971.57 86.1101H971.64C971.47 86.5101 971.26 86.8901 971.09 87.2901C970.76 88.0301 970.42 88.76 970.09 89.4901C969.63 90.4201 969.09 91.3301 968.64 92.2301C968.26 92.9101 967.89 93.5901 967.48 94.2301C966.89 95.2301 966.25 96.1301 965.61 97.0601C965.23 97.6001 964.88 98.1601 964.49 98.6901C963.49 100.08 962.37 101.41 961.23 102.69C960.83 103.14 960.4 103.55 959.98 103.99C959.17 104.85 958.36 105.7 957.5 106.51C956.97 107.01 956.41 107.51 955.86 107.97C955.07 108.67 954.26 109.35 953.43 109.97C952.84 110.44 952.24 110.89 951.64 111.33C950.77 111.96 949.89 112.55 949 113.14C948.4 113.53 947.8 113.92 947.19 114.29C946.19 114.9 945.14 115.46 944.09 116.01C943.56 116.28 943.09 116.58 942.5 116.84C940.92 117.61 939.3 118.32 937.65 118.95C937.34 119.07 937.01 119.16 936.7 119.27C935.32 119.77 933.93 120.27 932.52 120.62C931.91 120.79 931.29 120.93 930.67 121.08C929.52 121.36 928.36 121.62 927.19 121.84C926.523 121.96 925.833 122.07 925.12 122.17C923.97 122.34 922.81 122.47 921.64 122.57C920.95 122.63 920.27 122.69 919.57 122.73C918.31 122.79 917.04 122.8 915.77 122.79C915.687 122.785 915.603 122.785 915.52 122.79C913.64 137.457 911.667 152.123 909.6 166.79C914.449 160.243 920.585 154.756 927.631 150.664C934.677 146.573 942.484 143.964 950.574 142.998C958.665 142.032 966.867 142.728 974.678 145.045C982.489 147.362 989.745 151.249 996 156.47L980.32 183.05L1005.53 166.46C1015.06 179.075 1019.2 194.958 1017.03 210.62C1016.29 216.119 1014.78 221.486 1012.53 226.56C1007.72 237.547 999.714 246.834 989.558 253.215C979.402 259.597 967.562 262.778 955.576 262.347C943.589 261.916 932.008 257.892 922.337 250.797C912.666 243.702 905.35 233.864 901.34 222.56C901.11 224.04 900.89 225.56 900.66 227.02C898.22 242.37 895.19 261.48 884.43 277.02C877.14 287.58 867.1 295.38 857.34 302.24C850.993 306.707 844.5 310.963 837.86 315.01C830.89 321.473 822.482 326.183 813.33 328.75C802.663 334.21 791.767 339.147 780.64 343.56L773.69 346.28C767.44 348.72 761.04 351.22 754.69 353.88C755.69 353.97 756.69 354.05 757.69 354.18C770.273 355.908 781.981 361.591 791.123 370.407C800.265 379.224 806.367 390.718 808.55 403.23L766.24 426.34L808.42 424.45C806.731 433.803 802.814 442.612 797 450.13C787.462 462.476 773.482 470.612 758.036 472.805C742.589 474.998 726.897 471.074 714.3 461.87L716.4 465.78C717.8 468.36 719.18 470.93 720.52 473.48C738.85 508.22 740.18 538.22 724.27 557.97L711.27 547.52C726.76 528.3 714.47 497.75 705.77 481.25C704.45 478.75 703.09 476.25 701.77 473.69C690 451.86 676.65 427.12 682 400.79C690 361.09 733.05 344.29 767.68 330.79Z" fill="#F2F2F2"/>
<path d="M554 731.18C859.966 731.18 1108 720.659 1108 707.68C1108 694.701 859.966 684.18 554 684.18C248.034 684.18 0 694.701 0 707.68C0 720.659 248.034 731.18 554 731.18Z" fill="#3F3D56"/>
<path opacity="0.1" d="M554 731.18C859.966 731.18 1108 720.659 1108 707.68C1108 694.701 859.966 684.18 554 684.18C248.034 684.18 0 694.701 0 707.68C0 720.659 248.034 731.18 554 731.18Z" fill="black"/>
<path d="M554 718.18C859.966 718.18 1108 707.659 1108 694.68C1108 681.701 859.966 671.18 554 671.18C248.034 671.18 0 681.701 0 694.68C0 707.659 248.034 718.18 554 718.18Z" fill="#3F3D56"/>
<path d="M85.0001 686.32C82.0001 680.81 85.4001 674.06 89.2801 669.14C93.1601 664.22 97.8901 659.14 97.7901 652.85C97.6501 643.85 88.0901 638.54 80.4601 633.77C74.7988 630.227 69.576 626.028 64.9001 621.26C62.9457 619.422 61.328 617.256 60.1201 614.86C58.5401 611.34 58.5901 607.34 58.6901 603.48C59.0234 590.64 59.6568 577.813 60.5901 565" stroke="#3F3D56" stroke-width="4" stroke-miterlimit="10"/>
<path d="M46.1101 564.29C46.2181 561.941 46.9159 559.657 48.1393 557.649C49.3627 555.641 51.0722 553.973 53.1101 552.8L56.2501 559.01L56.1601 551.49C57.6575 551.044 59.2195 550.855 60.7801 550.93C63.5431 551.065 66.2042 552.016 68.4274 553.662C70.6506 555.308 72.3363 557.576 73.2717 560.18C74.207 562.783 74.3501 565.605 73.6829 568.29C73.0157 570.975 71.568 573.402 69.5227 575.264C67.4774 577.127 64.9262 578.342 62.1909 578.756C59.4557 579.17 56.6592 578.764 54.1544 577.59C51.6495 576.416 49.5487 574.526 48.117 572.159C46.6853 569.792 45.9869 567.054 46.1101 564.29Z" fill="#39A0ED"/>
<path d="M71.1399 659.29C72.5345 662.066 74.8127 664.299 77.6158 665.638C80.419 666.977 83.5878 667.345 86.6233 666.685C89.6589 666.026 92.3888 664.375 94.3832 661.993C96.3777 659.612 97.5234 656.634 97.6399 653.53C97.7397 651.59 97.4297 649.652 96.7299 647.84C95.724 645.16 93.9205 642.852 91.5625 641.228C89.2045 639.605 86.4055 638.743 83.5426 638.759C80.6797 638.776 77.8907 639.669 75.5514 641.32C73.2122 642.97 71.4351 645.298 70.4599 647.99L79.2299 655.12L69.5899 652.88C69.5845 655.11 70.1161 657.309 71.1399 659.29Z" fill="#39A0ED"/>
<path d="M78.0699 632.04C81.5671 632.305 85.0362 631.247 87.7909 629.076C90.5456 626.905 92.3853 623.78 92.946 620.318C93.5066 616.856 92.7474 613.309 90.8186 610.38C88.8898 607.451 85.9318 605.353 82.5299 604.5L82.5999 610.29L79.4199 604C75.7003 603.826 72.0639 605.137 69.3109 607.645C66.5579 610.152 64.9136 613.65 64.7399 617.37C64.5662 621.09 65.8772 624.726 68.3846 627.479C70.8919 630.232 74.3903 631.876 78.1099 632.05L78.0699 632.04Z" fill="#39A0ED"/>
<path d="M44.0001 609.37C45.8386 609.457 47.6761 609.18 49.4079 608.557C51.1396 607.933 52.7316 606.975 54.0929 605.736C55.4542 604.498 56.5582 603.003 57.3418 601.337C58.1255 599.672 58.5734 597.869 58.6601 596.03C58.7467 594.192 58.4704 592.354 57.847 590.622C57.2235 588.891 56.265 587.299 55.0263 585.937C53.7875 584.576 52.2928 583.472 50.6274 582.688C48.962 581.905 47.1586 581.457 45.3201 581.37C42.6954 581.24 40.0877 581.857 37.8001 583.15L40.2801 589.95L35.1701 585.05C32.437 587.553 30.808 591.038 30.6401 594.74C30.5723 596.034 30.6936 597.331 31.0001 598.59C31.6981 601.557 33.3453 604.215 35.6916 606.161C38.0379 608.107 40.9551 609.233 44.0001 609.37Z" fill="#39A0ED"/>
<path opacity="0.1" d="M47.9999 568.03C51.2399 568.39 54.3899 569.4 57.6399 569.6C60.8899 569.8 64.4599 569.02 66.5199 566.5C67.6299 565.13 68.1799 563.41 69.1099 561.93C70.0006 560.548 71.216 559.405 72.6499 558.6C73.4967 560.37 73.9619 562.298 74.0155 564.26C74.069 566.221 73.7096 568.172 72.9606 569.986C72.2116 571.799 71.0897 573.435 69.6678 574.787C68.2458 576.14 66.5555 577.178 64.7064 577.834C62.8574 578.491 60.891 578.752 58.9347 578.6C56.9784 578.447 55.076 577.886 53.3508 576.951C51.6256 576.016 50.1162 574.729 48.9205 573.173C47.7247 571.617 46.8694 569.828 46.4099 567.92C46.9399 567.94 47.4699 567.98 47.9999 568.03Z" fill="black"/>
<path opacity="0.1" d="M44 609.37C46.4205 609.493 48.8315 608.985 50.9969 607.897C53.1624 606.808 55.0082 605.176 56.3537 603.161C57.6992 601.145 58.4984 598.814 58.6731 596.397C58.8477 593.98 58.3918 591.558 57.35 589.37C56.236 590.122 55.2783 591.083 54.53 592.2C53.53 593.71 52.92 595.45 51.75 596.84C49.56 599.41 45.83 600.25 42.44 600.09C39.05 599.93 35.78 598.98 32.44 598.67C31.97 598.67 31.5 598.59 31.03 598.58C31.7247 601.544 33.3667 604.201 35.7071 606.148C38.0476 608.095 40.9589 609.226 44 609.37Z" fill="black"/>
<path opacity="0.1" d="M78.0701 632.04C80.4689 632.163 82.859 631.667 85.0107 630.6C87.1624 629.532 89.0032 627.929 90.3562 625.944C91.7091 623.959 92.5286 621.66 92.736 619.267C92.9433 616.874 92.5315 614.468 91.5401 612.28C90.374 613.038 89.3572 614.004 88.5401 615.13C87.4501 616.67 86.7701 618.44 85.5401 619.86C83.1801 622.5 79.2001 623.43 75.6101 623.34C72.0201 623.25 68.7901 622.41 65.3301 622.15C66.1746 624.911 67.8521 627.343 70.1328 629.114C72.4136 630.884 75.1859 631.906 78.0701 632.04Z" fill="black"/>
<path opacity="0.1" d="M71.1399 659.29C72.5345 662.066 74.8127 664.299 77.6158 665.638C80.419 666.977 83.5878 667.345 86.6233 666.685C89.6589 666.026 92.3888 664.375 94.3833 661.993C96.3777 659.612 97.5234 656.634 97.6399 653.53C97.7397 651.591 97.4297 649.652 96.7299 647.84C95.5736 648.596 94.5357 649.52 93.6499 650.58C92.3099 652.21 91.4399 654.05 89.8899 655.58C87.0199 658.4 82.3899 659.58 78.2699 659.67C75.8879 659.68 73.5073 659.553 71.1399 659.29Z" fill="black"/>
<path d="M106.19 679.98C106.19 679.98 95.1101 679.64 91.7801 677.26C88.4501 674.88 74.7801 672.04 73.9101 675.86C73.0401 679.68 57.2601 694.86 69.7701 694.92C82.2801 694.98 98.8301 692.92 102.16 690.92C105.49 688.92 106.19 679.98 106.19 679.98Z" fill="#656380"/>
<path opacity="0.2" d="M69.5401 693.59C82.0501 693.69 98.6001 691.59 101.94 689.59C104.47 688.05 105.48 682.5 105.82 679.94H106.19C106.19 679.94 105.49 688.87 102.19 690.94C98.8901 693.01 82.3001 695.02 69.8001 694.94C66.1901 694.94 64.9401 693.63 65.0101 691.72C65.4801 692.85 66.8601 693.59 69.5401 693.59Z" fill="black"/>
<path d="M1055 695.32C1052 689.81 1055.4 683.06 1059.28 678.14C1063.16 673.22 1067.89 668.14 1067.79 661.85C1067.65 652.85 1058.09 647.54 1050.46 642.77C1044.8 639.227 1039.58 635.028 1034.9 630.26C1032.95 628.422 1031.33 626.256 1030.12 623.86C1028.54 620.34 1028.59 616.34 1028.69 612.48C1029.02 599.64 1029.65 586.813 1030.59 574" stroke="#3F3D56" stroke-width="4" stroke-miterlimit="10"/>
<path d="M1016.11 573.29C1016.22 570.941 1016.92 568.657 1018.14 566.649C1019.36 564.641 1021.07 562.973 1023.11 561.8L1026.25 568.01L1026.16 560.49C1027.66 560.044 1029.22 559.855 1030.78 559.93C1033.54 560.067 1036.2 561.019 1038.42 562.667C1040.65 564.314 1042.33 566.583 1043.26 569.186C1044.2 571.79 1044.34 574.611 1043.67 577.295C1043 579.979 1041.55 582.405 1039.51 584.267C1037.46 586.129 1034.91 587.343 1032.18 587.756C1029.44 588.169 1026.65 587.763 1024.14 586.588C1021.64 585.414 1019.54 583.524 1018.11 581.158C1016.67 578.791 1015.98 576.053 1016.1 573.29H1016.11Z" fill="#39A0ED"/>
<path d="M742.186 125.5L723.936 137.07L735.016 116.92C731.889 114.42 728.019 113.034 724.016 112.98H723.716C722.45 112.998 721.185 112.904 719.936 112.7L713.746 116.62L716.396 111.8C712.016 110.269 708.23 107.397 705.576 103.59L694.506 110.59L701.506 97.8701C695.026 90.1001 686.306 85.3301 676.696 85.3301C665.186 85.3301 654.936 92.1801 648.316 102.85C646.358 106.04 643.592 108.657 640.297 110.434C637.003 112.211 633.297 113.086 629.556 112.97H628.936C616.226 112.97 605.936 127.38 605.936 145.16C605.936 162.94 616.236 177.34 628.936 177.34C631.725 177.332 634.471 176.646 636.936 175.34C645.226 171.03 656.106 170.95 664.786 174.8C668.507 176.474 672.54 177.344 676.621 177.352C680.701 177.361 684.738 176.508 688.466 174.85C697.086 171.08 707.836 171.16 716.076 175.39C718.521 176.684 721.241 177.37 724.006 177.39C736.716 177.39 747.006 162.98 747.006 145.21C747.082 138.339 745.424 131.56 742.186 125.5Z" fill="#F2F2F2"/>
<path opacity="0.03" d="M707.776 172.59C701.136 171.327 694.27 172.072 688.056 174.73C684.329 176.387 680.294 177.238 676.216 177.23C672.137 177.221 668.106 176.352 664.386 174.68C655.696 170.83 644.816 170.91 636.526 175.22C634.061 176.525 631.315 177.212 628.526 177.22C617.236 177.22 607.846 165.84 605.886 150.84C608.141 149.197 610.057 147.132 611.526 144.76C618.186 134.1 628.396 127.23 639.906 127.23C651.416 127.23 661.546 134 668.166 144.55C670.141 147.738 672.906 150.361 676.193 152.167C679.479 153.974 683.176 154.901 686.926 154.86H687.186C696.186 154.87 703.986 162.08 707.776 172.59Z" fill="black"/>
<path d="M1041.14 668.29C1042.53 671.066 1044.81 673.299 1047.62 674.638C1050.42 675.977 1053.59 676.345 1056.62 675.685C1059.66 675.026 1062.39 673.375 1064.38 670.993C1066.38 668.612 1067.52 665.634 1067.64 662.53C1067.74 660.59 1067.43 658.652 1066.73 656.84C1065.72 654.16 1063.92 651.852 1061.56 650.228C1059.2 648.605 1056.41 647.743 1053.54 647.759C1050.68 647.776 1047.89 648.669 1045.55 650.32C1043.21 651.97 1041.44 654.298 1040.46 656.99L1049.23 664.12L1039.59 661.88C1039.58 664.11 1040.12 666.309 1041.14 668.29Z" fill="#39A0ED"/>
<path d="M1048.07 641.04C1051.57 641.305 1055.04 640.247 1057.79 638.076C1060.55 635.905 1062.39 632.78 1062.95 629.318C1063.51 625.856 1062.75 622.309 1060.82 619.38C1058.89 616.451 1055.93 614.353 1052.53 613.5L1052.6 619.29L1049.42 613C1045.7 612.826 1042.06 614.137 1039.31 616.645C1036.56 619.152 1034.91 622.65 1034.74 626.37C1034.57 630.09 1035.88 633.726 1038.38 636.479C1040.89 639.232 1044.39 640.876 1048.11 641.05L1048.07 641.04Z" fill="#39A0ED"/>
<path d="M1014 618.37C1017.71 618.545 1021.34 617.238 1024.09 614.736C1026.84 612.235 1028.49 608.743 1028.66 605.03C1028.84 601.317 1027.53 597.687 1025.03 594.937C1022.52 592.188 1019.03 590.545 1015.32 590.37C1012.7 590.24 1010.09 590.857 1007.8 592.15L1010.28 598.95L1005.17 594.05C1002.44 596.553 1000.81 600.038 1000.64 603.74C1000.57 605.034 1000.69 606.331 1001 607.59C1001.7 610.557 1003.35 613.215 1005.69 615.161C1008.04 617.107 1010.96 618.233 1014 618.37Z" fill="#39A0ED"/>
<path opacity="0.1" d="M1018 577.03C1021.24 577.39 1024.39 578.4 1027.64 578.6C1030.89 578.8 1034.46 578.02 1036.52 575.5C1037.63 574.13 1038.18 572.41 1039.11 570.93C1040 569.548 1041.22 568.405 1042.65 567.6C1043.5 569.37 1043.96 571.298 1044.02 573.26C1044.07 575.221 1043.71 577.172 1042.96 578.986C1042.21 580.799 1041.09 582.435 1039.67 583.787C1038.25 585.14 1036.56 586.178 1034.71 586.834C1032.86 587.491 1030.89 587.752 1028.93 587.6C1026.98 587.447 1025.08 586.886 1023.35 585.951C1021.63 585.016 1020.12 583.729 1018.92 582.173C1017.72 580.617 1016.87 578.828 1016.41 576.92C1016.94 576.94 1017.47 576.98 1018 577.03Z" fill="black"/>
<path opacity="0.1" d="M1014 618.37C1016.42 618.493 1018.83 617.985 1021 616.897C1023.16 615.808 1025.01 614.176 1026.35 612.161C1027.7 610.145 1028.5 607.814 1028.67 605.397C1028.85 602.98 1028.39 600.558 1027.35 598.37C1026.24 599.122 1025.28 600.083 1024.53 601.2C1023.53 602.71 1022.92 604.45 1021.75 605.84C1019.56 608.41 1015.83 609.25 1012.44 609.09C1009.05 608.93 1005.78 607.98 1002.44 607.67C1001.97 607.67 1001.5 607.59 1001.03 607.58C1001.72 610.544 1003.37 613.201 1005.71 615.148C1008.05 617.095 1010.96 618.226 1014 618.37Z" fill="black"/>
<path opacity="0.1" d="M1048.07 641.04C1050.47 641.163 1052.86 640.667 1055.01 639.6C1057.16 638.532 1059 636.929 1060.36 634.944C1061.71 632.959 1062.53 630.66 1062.74 628.267C1062.94 625.874 1062.53 623.468 1061.54 621.28C1060.37 622.038 1059.36 623.004 1058.54 624.13C1057.45 625.67 1056.77 627.44 1055.54 628.86C1053.18 631.5 1049.2 632.43 1045.61 632.34C1042.02 632.25 1038.79 631.41 1035.33 631.15C1036.17 633.911 1037.85 636.343 1040.13 638.114C1042.41 639.884 1045.19 640.906 1048.07 641.04Z" fill="black"/>
<path opacity="0.1" d="M1041.14 668.29C1042.53 671.066 1044.81 673.299 1047.62 674.638C1050.42 675.977 1053.59 676.345 1056.62 675.685C1059.66 675.026 1062.39 673.375 1064.38 670.993C1066.38 668.612 1067.52 665.634 1067.64 662.53C1067.74 660.591 1067.43 658.652 1066.73 656.84C1065.57 657.596 1064.54 658.52 1063.65 659.58C1062.31 661.21 1061.44 663.05 1059.89 664.58C1057.02 667.4 1052.39 668.58 1048.27 668.67C1045.89 668.68 1043.51 668.553 1041.14 668.29Z" fill="black"/>
<path d="M1076.19 688.98C1076.19 688.98 1065.11 688.64 1061.78 686.26C1058.45 683.88 1044.78 681.04 1043.91 684.86C1043.04 688.68 1027.26 703.86 1039.77 703.92C1052.28 703.98 1068.83 701.92 1072.16 699.92C1075.49 697.92 1076.19 688.98 1076.19 688.98Z" fill="#656380"/>
<path opacity="0.2" d="M1039.54 702.59C1052.05 702.69 1068.6 700.59 1071.94 698.59C1074.47 697.05 1075.48 691.5 1075.82 688.94H1076.19C1076.19 688.94 1075.49 697.87 1072.19 699.94C1068.89 702.01 1052.3 704.02 1039.8 703.94C1036.19 703.94 1034.94 702.63 1035.01 700.72C1035.48 701.85 1036.86 702.59 1039.54 702.59Z" fill="black"/>
<path fill-rule="evenodd" clip-rule="evenodd" d="M725.57 324.85C732.29 326.783 738.957 328.883 745.57 331.15H745.6C812.72 354.26 856.1 390.45 856.1 427.88C856.1 466.91 809.74 505.07 738.5 528.67C734.733 529.917 730.88 531.12 726.94 532.28C728.36 537.927 729.603 543.463 730.67 548.89C744.73 619.93 733.9 678.33 700.57 697.62C668.31 716.31 616.13 697.95 563.31 652.5C557.57 647.547 551.973 642.44 546.52 637.18C542.15 641.36 537.83 645.36 533.52 649.13C479 696.79 423 716.59 389.63 697.33C357.33 678.7 347.17 624.34 360.17 555.88C361.597 548.427 363.223 541.033 365.05 533.7C359.41 532.08 353.81 530.327 348.25 528.44C279.72 505.02 234.61 466.39 234.61 427.88C234.61 390.59 276.63 354.59 342.42 331.7C349.78 329.13 357.47 326.72 365.42 324.46C363.693 317.64 362.163 310.78 360.83 303.88C347.18 234.21 356.79 178.54 389.18 159.79C423 140.24 479.21 161.23 535.32 211.06C538.807 214.167 542.24 217.337 545.62 220.57C550.653 215.717 555.81 210.983 561.09 206.37C614.65 159.78 667.67 140.28 700.09 158.98C733.9 178.47 743.8 237.69 728.66 311.2C727.707 315.773 726.677 320.323 725.57 324.85ZM719.68 506.74C723.24 505.68 726.72 504.6 730.12 503.47C791.63 483.09 829.52 451.88 829.52 427.88C829.52 405.32 794.44 376.05 736.93 356.26C730.99 354.21 724.81 352.27 718.46 350.43C710.118 376.936 700.012 402.853 688.21 428.01C700.48 453.506 710.994 479.811 719.68 506.74ZM707.6 636.05C711.7 613.86 710.82 585.46 704.6 554.05L704.62 553.97C703.64 549.09 702.517 544.09 701.25 538.97C673.524 545.227 645.401 549.57 617.08 551.97C601.225 575.164 583.822 597.261 564.99 618.11C570.23 623.15 575.44 627.9 580.62 632.36C625.79 671.23 667.67 685.96 687.26 674.63C696.46 669.3 703.9 656 707.6 636.05ZM402.89 674.33C412.1 679.64 427.34 679.45 446.48 672.69C467.77 665.14 491.94 650.22 516.05 629.14C520.083 625.607 524.03 621.97 527.89 618.23C508.681 597.457 490.859 575.443 474.54 552.33C446.382 550.181 418.401 546.128 390.79 540.2C389.103 547.04 387.593 553.917 386.26 560.83C375.14 619.33 383.29 663.02 402.89 674.33ZM284.35 464.82C301.51 479.5 326.53 492.96 356.84 503.32C361.907 505.047 367.02 506.647 372.18 508.12C380.636 480.94 390.878 454.349 402.84 428.52C391.025 403.056 380.907 376.839 372.55 350.04C365.357 352.067 358.227 354.31 351.16 356.77C294.9 376.38 261.16 405.25 261.16 427.88C261.16 438.51 268.94 451.62 284.35 464.82ZM402.48 182.78C382.96 194.06 375.21 239.09 386.89 298.78V298.79C388.143 305.21 389.567 311.593 391.16 317.94C418.496 311.857 446.197 307.551 474.09 305.05C490.266 282.064 507.948 260.176 527.02 239.53C523.91 236.56 520.8 233.68 517.7 230.93C469.24 187.9 423.27 170.78 402.48 182.78ZM636.11 333.89C642.63 344.117 648.927 354.477 655 364.97C661.18 375.63 667.14 386.41 672.88 397.31C680.406 379.82 687.045 361.96 692.77 343.8C674.93 339.72 655.94 336.4 636.11 333.89ZM582.21 302.64C570.769 287.322 558.563 272.59 545.64 258.5V258.51C533.2 271.92 520.83 286.72 508.76 302.64C533.253 301.487 557.737 301.487 582.21 302.64ZM418.09 397.29C423.69 386.443 429.54 375.73 435.64 365.15H435.62C441.72 354.57 448.077 344.133 454.69 333.84C434.99 336.31 416.08 339.52 398.35 343.52C403.75 360.93 410.36 378.96 418.09 397.29ZM455.228 523.798C455.236 523.798 455.243 523.799 455.25 523.8H455.23C455.229 523.799 455.229 523.798 455.228 523.798ZM455.228 523.798C448.476 513.318 441.986 502.683 435.76 491.89C429.64 481.31 423.77 470.59 418.15 459.73C410.25 478.46 403.49 496.88 398 514.59C416.906 518.637 436.007 521.71 455.228 523.798ZM546.38 599.119C546.383 599.123 546.387 599.126 546.39 599.13H546.37C546.373 599.126 546.376 599.123 546.38 599.119ZM509 554.38C521.237 570.586 533.783 585.582 546.38 599.119C559.303 584.797 571.482 569.821 582.87 554.25C570.53 554.81 558.027 555.09 545.36 555.09C533.02 555.09 520.9 554.853 509 554.38ZM694 513.44C687.979 494.869 680.997 476.625 673.08 458.78C667.333 469.887 661.333 480.86 655.08 491.7C648.927 502.367 642.567 512.91 636 523.33C655.493 521.049 674.853 517.748 694 513.44ZM602.27 526.54C612.73 510.82 622.667 494.787 632.08 478.44L632.11 478.4C641.617 461.947 650.52 445.18 658.82 428.1C650.42 411.147 641.49 394.523 632.03 378.23C622.57 361.937 612.57 346 602.03 330.42C583.56 329.02 564.5 328.28 545.34 328.28C526.18 328.28 507.24 329.01 488.75 330.41C478.09 346.037 468.047 362.037 458.62 378.41C449.18 394.79 440.37 411.49 432.19 428.51C440.33 445.45 449.167 462.143 458.7 478.59C468.233 495.037 478.363 511.093 489.09 526.76C507.21 527.94 525.94 528.54 545.36 528.54C564.78 528.54 583.83 527.86 602.27 526.54ZM702.68 305.85C715.75 242.38 707.66 193.98 686.85 181.98C667.31 170.71 624.43 186.47 578.55 226.4C573.69 230.647 568.927 235.017 564.26 239.51C583.22 260.161 600.77 282.064 616.79 305.07C644.746 307.607 672.504 311.994 699.88 318.2C700.887 314.093 701.82 309.977 702.68 305.85Z" fill="#53C1DE"/>
<path d="M545.34 372.38C556.317 372.38 567.047 375.635 576.174 381.733C585.301 387.832 592.415 396.5 596.615 406.641C600.816 416.782 601.915 427.941 599.774 438.707C597.632 449.473 592.346 459.362 584.584 467.124C576.823 474.886 566.934 480.172 556.168 482.313C545.402 484.455 534.242 483.356 524.101 479.155C513.96 474.955 505.292 467.841 499.193 458.714C493.095 449.587 489.84 438.857 489.84 427.88C489.839 420.591 491.273 413.374 494.062 406.639C496.851 399.905 500.939 393.786 506.093 388.633C511.247 383.479 517.365 379.391 524.1 376.602C530.834 373.813 538.051 372.379 545.34 372.38Z" fill="#53C1DE"/>
<path d="M559.26 20.4C559.26 23.6832 558.286 26.8926 556.462 29.6225C554.638 32.3523 552.046 34.48 549.013 35.7364C545.979 36.9928 542.642 37.3215 539.422 36.681C536.201 36.0405 533.244 34.4595 530.922 32.138C528.601 29.8164 527.02 26.8586 526.379 23.6385C525.739 20.4184 526.067 17.0807 527.324 14.0475C528.58 11.0142 530.708 8.42164 533.438 6.59761C536.167 4.77358 539.377 3.8 542.66 3.8C544.843 3.7894 547.006 4.21154 549.025 5.04202C551.044 5.87249 552.878 7.09483 554.422 8.6384C555.965 10.182 557.188 12.0161 558.018 14.0349C558.849 16.0537 559.271 18.2171 559.26 20.4Z" fill="#3F3D56"/>
<path d="M529.4 24.59C528.084 22.2121 527.371 19.5479 527.324 16.8306C527.277 14.1134 527.897 11.4261 529.13 9.00408C530.363 6.58209 532.171 4.49934 534.395 2.93828C536.62 1.37722 539.193 0.38549 541.89 0.0499655C539.603 -0.030126 537.324 0.363509 535.197 1.20615C533.069 2.0488 531.138 3.32225 529.526 4.94654C527.914 6.57083 526.656 8.51087 525.829 10.6448C525.003 12.7788 524.627 15.0606 524.724 17.3469C524.822 19.6333 525.391 21.8747 526.396 23.9306C527.401 25.9865 528.82 27.8123 530.565 29.2935C532.309 30.7747 534.341 31.8792 536.532 32.5377C538.724 33.1962 541.028 33.3944 543.3 33.12C540.445 33.0145 537.665 32.174 535.23 30.6796C532.795 29.1853 530.787 27.0878 529.4 24.59Z" fill="#3F3D56"/>
<path d="M566.38 43.52H521.91V112.89H566.38V43.52Z" fill="#3F3D56"/>
<path opacity="0.1" d="M566.38 43.52H521.91V112.89H566.38V43.52Z" fill="black"/>
<path d="M451.66 295.2C451.66 295.2 446.91 308.25 435.66 310.03C424.41 311.81 417.87 314.77 417.87 314.77L444.55 331.96L458.78 330.18C458.78 330.18 460.56 311.8 466.49 307.65C472.42 303.5 451.66 295.2 451.66 295.2Z" fill="#A0616A"/>
<path d="M644.34 295.2C644.34 295.2 649.09 308.25 660.34 310.03C671.59 311.81 678.13 314.77 678.13 314.77L651.45 331.96L637.22 330.18C637.22 330.18 635.44 311.8 629.51 307.65C623.58 303.5 644.34 295.2 644.34 295.2Z" fill="#A0616A"/>
<path d="M514.5 180.18C514.5 180.18 507.39 183.74 505.02 190.86C505.02 190.86 492.02 195.01 484.86 206.27C484.86 206.27 475.96 215.76 474.78 220.5C473.6 225.24 460 253.7 460 253.7C460 253.7 446.36 298.17 439.25 302.91C439.25 302.91 461.78 298.17 465.93 320.7C465.93 320.7 471.26 320.7 477.19 299.95C483.12 279.2 497.35 253.7 497.35 253.7C497.35 253.7 502.09 235.92 506.24 232.95C510.39 229.98 516.91 216.35 522.84 219.95C528.77 223.55 567.9 219.35 567.9 219.35C567.9 219.35 591 229.99 591.58 237.1C592.16 244.21 596.32 244.81 596.91 250.74C597.5 256.67 619.44 303.5 619.44 303.5C619.44 303.5 623.59 316.5 624.78 319.5C624.78 319.5 637.78 288.08 655.02 305.87C655.02 305.87 654.42 294.01 649.09 286.87C643.76 279.73 620.63 224.03 620.63 224.03C620.63 224.03 618.26 215.73 615.89 213.36C613.52 210.99 595.13 192.01 588.61 192.01C588.61 192.01 585.06 183.12 580.91 181.93L514.5 180.18Z" fill="#3F3D56"/>
<path d="M461.14 326.03C456.509 327.889 451.476 328.517 446.531 327.853C441.585 327.189 436.896 325.255 432.92 322.24C429.056 319.273 424.824 316.819 420.33 314.94C414.04 312.4 406.52 310.52 404.23 314.77C400.08 322.48 454.62 341.45 454.62 341.45C454.62 341.45 461.74 337.3 461.14 326.03Z" fill="#3F3D56"/>
<path d="M634.86 326.03C639.491 327.889 644.524 328.517 649.469 327.853C654.415 327.189 659.104 325.255 663.08 322.24C666.944 319.273 671.176 316.819 675.67 314.94C681.96 312.4 689.48 310.52 691.77 314.77C695.92 322.48 641.38 341.45 641.38 341.45C641.38 341.45 634.26 337.3 634.86 326.03Z" fill="#3F3D56"/>
<path d="M533.88 82.67C533.66 84.73 532.98 86.96 531.22 88.05C529.78 88.95 527.96 88.88 526.3 89.22C524.557 89.6564 522.941 90.4966 521.583 91.6726C520.224 92.8486 519.162 94.3275 518.48 95.99C517.149 99.3453 516.887 103.03 517.73 106.54C518.122 108.259 518.63 109.949 519.25 111.6C520.99 116.52 523.09 121.4 526.34 125.49C529.113 128.742 532.232 131.682 535.64 134.26C537.75 135.98 539.93 137.73 542.53 138.54C544.293 139.005 546.107 139.247 547.93 139.26C550.18 139.36 552.58 139.43 554.53 138.31C557.53 136.58 558.42 132.76 560.05 129.69C561.43 127.09 563.49 124.88 564.78 122.23C565.697 120.141 566.368 117.953 566.78 115.71L569.55 103.41C570.55 98.94 571.47 93.9 568.96 90.07C568.778 89.7584 568.524 89.4945 568.22 89.3C567.737 89.1096 567.211 89.0577 566.7 89.15C563.512 89.3573 560.332 88.631 557.55 87.06C557.114 86.8345 556.724 86.5292 556.4 86.16C556.001 85.5195 555.761 84.7925 555.7 84.04C555.43 82.5161 555.001 81.0247 554.42 79.59C554.257 79.0729 553.956 78.6098 553.55 78.25C553.124 77.9831 552.641 77.822 552.14 77.78C547.859 77.0854 543.542 76.6347 539.21 76.43C537.79 76.36 535.65 75.79 534.67 77.05C533.69 78.31 534 81.17 533.88 82.67Z" fill="#A0616A"/>
<path opacity="0.1" d="M533.88 82.67C533.66 84.73 532.98 86.96 531.22 88.05C529.78 88.95 527.96 88.88 526.3 89.22C524.557 89.6564 522.941 90.4966 521.583 91.6726C520.224 92.8486 519.162 94.3275 518.48 95.99C517.149 99.3453 516.887 103.03 517.73 106.54C518.122 108.259 518.63 109.949 519.25 111.6C520.99 116.52 523.09 121.4 526.34 125.49C529.113 128.742 532.232 131.682 535.64 134.26C537.75 135.98 539.93 137.73 542.53 138.54C544.293 139.005 546.107 139.247 547.93 139.26C550.18 139.36 552.58 139.43 554.53 138.31C557.53 136.58 558.42 132.76 560.05 129.69C561.43 127.09 563.49 124.88 564.78 122.23C565.697 120.141 566.368 117.953 566.78 115.71L569.55 103.41C570.55 98.94 571.47 93.9 568.96 90.07C568.778 89.7584 568.524 89.4945 568.22 89.3C567.737 89.1096 567.211 89.0577 566.7 89.15C563.512 89.3573 560.332 88.631 557.55 87.06C557.114 86.8345 556.724 86.5292 556.4 86.16C556.001 85.5195 555.761 84.7925 555.7 84.04C555.43 82.5161 555.001 81.0247 554.42 79.59C554.257 79.0729 553.956 78.6098 553.55 78.25C553.124 77.9831 552.641 77.822 552.14 77.78C547.859 77.0854 543.542 76.6347 539.21 76.43C537.79 76.36 535.65 75.79 534.67 77.05C533.69 78.31 534 81.17 533.88 82.67Z" fill="black"/>
<path d="M525.85 89.7399C523.534 89.0484 521.136 88.6717 518.72 88.6199C513 88.4799 506.88 90.4499 503.58 95.1199C501.332 98.4908 500.509 102.614 501.29 106.59C502.086 110.528 503.876 114.198 506.49 117.25C508 118.854 509.341 120.61 510.49 122.49C512.07 125.49 512.12 129.08 512.55 132.49C513.55 140.61 517.01 148.24 518.38 156.31C519.75 164.38 518.57 173.73 512.2 178.86C511.13 179.72 509.83 180.63 509.74 182C509.6 184.19 512.45 185.12 514.64 185.33C521.19 185.95 527.91 186.56 534.27 184.87C536.9 184.17 539.44 183.08 542.12 182.58C548.92 181.31 555.76 183.92 562.57 185.17C567.498 185.984 572.485 186.388 577.48 186.38C578.643 186.484 579.814 186.33 580.91 185.93C581.453 185.717 581.915 185.337 582.227 184.844C582.54 184.351 582.688 183.772 582.65 183.19C582.428 182.436 582.022 181.749 581.47 181.19C578.03 176.94 576.98 171.29 576.04 165.9L572.89 147.79C571.2 138.11 569.63 127.59 574.21 118.9C577.5 112.65 583.57 108.25 587.04 102.1C588.25 100.241 588.796 98.0281 588.59 95.8199C588.07 92.7299 585.28 90.5199 582.42 89.2299C576.917 86.7614 570.669 86.5318 565 88.5899C565.1 92.9199 564 97.2999 563.29 101.59L562.08 108.59C561.464 112.715 560.559 116.792 559.37 120.79C558.938 122.389 558.202 123.89 557.2 125.21C556.132 126.397 554.828 127.348 553.37 128C550.214 129.543 546.743 130.337 543.23 130.32C541.708 130.343 540.194 130.11 538.75 129.63C536.424 128.61 534.326 127.134 532.58 125.29C531.968 124.767 531.421 124.173 530.95 123.52C530.452 122.689 530.078 121.789 529.84 120.85C529.03 118.404 528.392 115.905 527.93 113.37C527.63 111.43 527.53 109.46 527.39 107.5C527 101.71 527 95.3099 525.85 89.7399Z" fill="#39A0ED"/>
<path d="M542.7 234.134C515.321 234.134 490.445 237.438 472.028 242.822V288.813C490.445 294.197 515.321 297.501 542.7 297.501C574.037 297.501 602.092 293.173 620.936 286.352V245.284C602.092 238.462 574.037 234.134 542.7 234.134Z" fill="#A52B00"/>
<path d="M649.159 271.503L645.95 264.829C645.967 264.576 645.98 264.322 645.98 264.068C645.98 256.503 638.142 249.53 624.955 243.948V284.187C631.108 281.583 636.1 278.676 639.67 275.546C638.619 279.786 635.026 288.365 632.161 294.397C627.452 303.026 625.747 310.537 625.966 310.909C626.105 311.143 627.711 308.655 630.08 304.625C635.593 296.741 646.038 281.691 648.126 277.857C650.491 273.511 649.159 271.503 649.159 271.503Z" fill="#A52B00"/>
<path d="M441.464 264.509C441.464 265.966 441.756 267.401 442.319 268.808L440.397 272.242C440.397 272.242 438.857 274.247 441.569 278.478C443.96 282.207 455.94 296.807 462.262 304.453C464.978 308.373 466.819 310.787 466.981 310.554C467.234 310.184 465.292 302.825 459.899 294.429C457.382 289.919 454.376 283.945 452.572 279.532C457.609 282.732 464.199 285.634 472.028 288.132V240.886C453.161 246.904 441.464 255.265 441.464 264.509Z" fill="#A52B00"/>
<path d="M539.276 164.167L532.999 174.681C531.979 174.77 530.96 174.86 529.94 174.95L521.79 165.879C521.022 164.916 519.788 164.51 518.613 164.785C517.439 165.06 516.493 166.002 516.072 167.07L511.953 178.767C510.948 179.027 509.943 179.287 509.124 179.703L499.408 172.316C498.499 171.709 497.11 171.487 496.12 171.918C494.975 172.534 494.2 173.461 493.963 174.684L491.957 187.054C491.137 187.47 490.332 188.056 489.342 188.486L478.629 183.419C477.55 182.827 476.191 182.947 475.231 183.719C474.256 184.32 473.68 185.572 473.614 186.78L474.015 199.282C473.38 199.853 472.59 200.609 471.785 201.195L460.245 198.434C459.011 198.027 457.851 198.473 456.906 199.415C456.116 200.171 455.724 201.58 455.998 202.758L458.763 214.879C458.143 215.621 457.523 216.362 456.917 217.274L444.89 216.788C443.686 216.722 442.541 217.338 441.95 218.421C441.36 219.503 441.138 220.896 441.752 222.044L446.667 233.29C446.061 234.202 445.626 235.099 445.19 235.996L433.555 238.051C432.196 238.17 431.25 239.112 430.83 240.18C430.424 241.418 430.542 242.781 431.141 243.759L438.176 253.787C438.021 253.972 438.035 254.143 438.05 254.313L418.301 275.287C418.301 275.287 415.42 277.601 419.676 283.237C423.519 288.051 443.351 307.427 453.828 317.667C458.21 322.777 461.225 325.946 461.55 325.745C462.015 325.189 459.487 315.795 450.834 304.879C444.153 294.992 435.47 279.785 437.376 278.072C437.376 278.072 439.687 275.12 444.466 272.982C444.282 272.827 444.282 272.827 444.466 272.982C444.466 272.982 542.751 318.422 633.881 273.644C644.326 271.694 650.636 277.321 650.636 277.321C652.808 278.675 647.145 294.286 642.567 304.65C636.224 316.372 635.31 325.554 635.849 325.85C636.204 325.99 638.471 322.528 641.75 316.915C649.852 305.726 664.94 284.304 667.738 279.077C670.988 273.124 667.751 271.348 667.751 271.348L646.716 255.856C646.487 255.189 646.258 254.522 646.184 253.67L653.015 243.623C653.79 242.696 653.842 241.318 653.398 240.155C652.955 238.991 652.031 238.214 650.812 237.978L638.992 235.928C638.578 235.106 638.149 234.113 637.736 233.291L642.564 221.875C643.155 220.792 643.037 219.429 642.253 218.295C641.655 217.318 640.576 216.726 639.387 216.831L627.434 217.196C626.85 216.389 626.097 215.597 625.513 214.79L628.229 202.701C628.465 201.478 628.177 200.129 627.423 199.337C626.484 198.389 625.251 197.983 624.076 198.258L612.515 201.165C611.776 200.543 611.038 199.922 610.284 199.129L610.577 186.739C610.643 185.531 610.03 184.383 609.106 183.605C608.013 182.843 606.808 182.777 605.663 183.393L594.975 188.456C594.081 188.02 593.172 187.413 592.278 186.976L590.362 174.78C590.244 173.417 589.305 172.469 588.241 172.048C587.163 171.456 585.803 171.575 584.843 172.347L575.197 179.551C574.318 179.285 573.438 179.019 572.389 178.768L568.294 167.107C567.851 165.944 566.912 164.996 565.693 164.76C564.474 164.524 563.315 164.969 562.369 165.911L554.26 175.041C553.395 174.945 552.346 174.694 551.312 174.613L545.097 164.17C544.484 163.022 543.405 162.43 542.201 162.364C540.997 162.298 539.867 163.085 539.276 164.167Z" fill="url(#paint0_linear_105_4007)"/>
<path d="M509.499 300.66C509.124 300.338 508.927 300.148 508.927 300.148L541.117 297.501C514.859 262.732 493.822 290.429 491.583 293.526V300.66H509.499Z" fill="black"/>
<path d="M576.525 300.286C576.9 299.964 577.097 299.773 577.097 299.773L546.162 297.501C572.433 261.305 592.202 290.054 594.441 293.151V300.286H576.525Z" fill="black"/>
<path d="M625.967 265.767C625.967 265.767 622.467 279.819 600.561 294.598L594.466 296.051C594.466 296.051 574.613 259.711 546.492 300.654C546.492 300.654 555.242 295.567 578.716 301.805C578.716 301.805 567.914 318.401 546.19 317.856C546.19 317.856 567.009 342.991 598.751 306.711C598.751 306.711 632.303 293.689 635.018 265.767L625.967 265.767Z" fill="url(#paint1_linear_105_4007)"/>
<path d="M560.778 247.754C560.778 247.754 570.599 236.961 580.42 247.754C580.42 247.754 588.136 262.145 580.42 269.34C580.42 269.34 567.793 279.414 560.778 269.34C560.778 269.34 552.36 261.424 560.778 247.754Z" fill="black"/>
<path d="M572.148 251.757C572.148 255.96 569.679 259.367 566.635 259.367C563.592 259.367 561.124 255.96 561.124 251.757C561.124 247.555 563.592 244.147 566.635 244.147C569.679 244.147 572.148 247.555 572.148 251.757Z" fill="white"/>
<path d="M516.945 244.807C516.945 244.807 533.792 237.32 538.39 254.03C538.39 254.03 543.206 273.506 524.555 274.606C524.555 274.606 500.773 270.008 516.945 244.807Z" fill="black"/>
<path d="M525.406 252.033C525.406 256.367 522.861 259.882 519.722 259.882C516.583 259.882 514.037 256.367 514.037 252.033C514.037 247.699 516.583 244.185 519.722 244.185C522.861 244.185 525.406 247.699 525.406 252.033Z" fill="white"/>
<path d="M491.658 308.981C522.426 348.585 537.001 316.782 537.001 316.782C519.727 314.832 507.474 303.292 507.474 303.292C528.202 300.637 540.185 300.421 540.185 300.421C512.44 263.688 489.931 296.953 489.931 296.953C484.317 294.895 478.541 287.039 474.277 279.779L457.058 274.686C476.868 308.493 491.658 308.981 491.658 308.981Z" fill="url(#paint2_linear_105_4007)"/>
<path d="M519.84 204.49C519.84 204.49 517.47 235.92 532.29 241.25C547.11 246.58 534.07 215.16 534.07 215.16L529.32 205.68L519.84 204.49Z" fill="#A0616A"/>
<path d="M570.23 204.49C570.23 204.49 572.6 235.92 557.78 241.25C542.96 246.58 556 215.16 556 215.16L560.75 205.68L570.23 204.49Z" fill="#A0616A"/>
<path opacity="0.1" d="M506.79 99.59L502.05 107.3C502.05 107.3 506.2 133.98 506.79 138.72C507.302 142.14 508.098 145.512 509.17 148.8C509.17 148.8 509.76 163.03 509.76 168.37C509.76 173.71 512.76 182.6 512.76 182.6C513.178 187.64 514.185 192.614 515.76 197.42C518.13 203.94 520.5 211.65 520.5 211.65C520.5 211.65 523.5 203.35 535.32 215.8C536.644 214.457 537.386 212.646 537.386 210.76C537.386 208.874 536.644 207.063 535.32 205.72C535.32 205.72 531.77 189.72 531.77 181.41C531.77 173.1 525.24 133.41 525.24 133.41C525.24 133.41 521 88.29 506.79 99.59Z" fill="black"/>
<path d="M505.61 98.96L500.87 106.67C500.87 106.67 505.02 133.35 505.61 138.09C506.123 141.511 506.923 144.883 508 148.17C508 148.17 508.59 162.4 508.59 167.73C508.59 173.06 511.59 181.96 511.59 181.96C512.006 187.001 513.013 191.975 514.59 196.78C516.96 203.31 519.34 211.01 519.34 211.01C519.34 211.01 522.34 202.71 534.16 215.16C535.481 213.817 536.221 212.009 536.221 210.125C536.221 208.241 535.481 206.433 534.16 205.09C534.16 205.09 530.6 189.09 530.6 180.78C530.6 172.47 524.08 132.78 524.08 132.78C524.08 132.78 519.84 87.69 505.61 98.96Z" fill="#39A0ED"/>
<path opacity="0.1" d="M583.87 94.81L586.87 98.34C586.87 98.34 590.36 118.52 582.65 144.02L580.28 167.14C580.28 167.14 576.13 186.71 575.54 191.45C574.95 196.19 574.95 196.78 573.76 198.56C573.399 198.976 573.2 199.509 573.2 200.06C573.2 200.611 573.399 201.144 573.76 201.56L570.2 214.56C570.2 214.56 564.87 208.04 554.2 216.34C554.2 216.34 551.2 211.6 553.6 207.45C556 203.3 555.97 201.52 555.38 200.33C554.79 199.14 557.75 193.22 557.75 192.03C557.75 190.84 561.93 163.59 561.93 163.59C561.93 163.59 563.71 136.91 565.49 128.02C566.58 122.55 566.56 110.36 566.37 101.78C566.18 92.84 577 88 583.37 94.28C583.52 94.44 583.7 94.59 583.87 94.81Z" fill="black"/>
<path d="M585.65 93.59L588.65 97.12C588.65 97.12 592.14 117.31 584.43 142.8L582.06 165.92C582.06 165.92 577.91 185.49 577.32 190.23C576.73 194.97 576.72 195.57 575.54 197.35C575.177 197.765 574.977 198.298 574.977 198.85C574.977 199.402 575.177 199.935 575.54 200.35L572 213.39C572 213.39 566.67 206.86 556 215.16C556 215.16 553 210.42 555.41 206.27C557.82 202.12 557.78 200.34 557.19 199.16C556.6 197.98 559.56 192.04 559.56 190.86C559.56 189.68 563.71 162.4 563.71 162.4C563.71 162.4 565.49 135.72 567.27 126.82C569.05 117.92 567.86 91.25 567.86 91.25C567.86 91.25 577.35 84.73 585.65 93.59Z" fill="#39A0ED"/>
<path d="M545.92 85.33C559.02 85.33 569.64 74.7102 569.64 61.61C569.64 48.5098 559.02 37.89 545.92 37.89C532.82 37.89 522.2 48.5098 522.2 61.61C522.2 74.7102 532.82 85.33 545.92 85.33Z" fill="#A0616A"/>
<path opacity="0.1" d="M558.29 26C557.15 29.1828 555.065 31.9415 552.314 33.9072C549.563 35.8728 546.278 36.9518 542.898 36.9996C539.517 37.0474 536.202 36.0619 533.397 34.1749C530.592 32.2878 528.43 29.5892 527.2 26.44C536.46 22.71 545.92 26.03 545.92 26.03C550.65 24.37 554.75 24.52 558.29 26Z" fill="black"/>
<path d="M545.92 27.22C545.92 27.22 500.27 11.22 511.54 88.88C511.54 88.88 521.62 95.4 529.32 91.25C529.32 91.25 523.99 37.3 544.74 39.67C565.49 42.04 561.93 90.07 561.93 90.07C561.93 90.07 573.79 93.62 577.35 87.07C580.91 80.52 576.16 16.59 545.92 27.22Z" fill="#3F3D56"/>
<path opacity="0.1" d="M544.74 36.11C530.5 34.49 528.54 59.38 528.74 75.16C528.91 59.47 531.55 38.16 544.74 39.67C559.55 41.36 561.98 66.33 562.15 80.47C562.32 67.49 560.9 37.96 544.74 36.11Z" fill="black"/>
<path opacity="0.1" d="M511.54 85.32C510.508 78.522 509.916 71.6644 509.77 64.79C509.72 72.8543 510.312 80.9096 511.54 88.88C511.54 88.88 521.62 95.4 529.32 91.25C529.32 91.25 529.2 89.97 529.06 87.82C521.39 91.69 511.54 85.32 511.54 85.32Z" fill="black"/>
<path opacity="0.1" d="M577.35 83.59C574.03 89.67 563.52 87 562.1 86.59C562.03 88.79 561.93 90.11 561.93 90.11C561.93 90.11 573.79 93.66 577.35 87.11C578.08 85.77 578.46 81.98 578.35 76.91C578.25 80.16 577.9 82.59 577.35 83.59Z" fill="black"/>
<path d="M826.73 672.96C831.47 664.18 826.09 653.42 819.91 645.59C813.73 637.76 806.18 629.59 806.34 619.59C806.57 605.24 821.79 596.78 833.96 589.17C842.981 583.529 851.302 576.839 858.75 569.24C861.75 566.19 864.62 562.93 866.37 559.03C868.89 553.43 868.82 547.03 868.66 540.91C868.133 520.437 867.133 499.99 865.66 479.57" stroke="#3F3D56" stroke-width="4" stroke-miterlimit="10"/>
<path d="M888.74 478.49C888.569 474.745 887.457 471.103 885.506 467.901C883.556 464.699 880.83 462.04 877.58 460.17L872.58 470.07L872.73 458.07C868.182 456.725 863.323 456.86 858.857 458.456C854.39 460.052 850.546 463.026 847.881 466.95C845.215 470.873 843.866 475.542 844.027 480.283C844.189 485.023 845.853 489.589 848.779 493.322C851.705 497.055 855.742 499.761 860.307 501.05C864.872 502.338 869.728 502.143 874.175 500.491C878.621 498.839 882.427 495.817 885.043 491.86C887.66 487.904 888.951 483.218 888.73 478.48L888.74 478.49Z" fill="#39A0ED"/>
<path d="M848.86 629.88C846.514 634.442 842.67 638.059 837.974 640.124C833.278 642.188 828.014 642.575 823.066 641.22C818.118 639.864 813.787 636.848 810.799 632.677C807.811 628.507 806.348 623.436 806.655 618.315C806.963 613.194 809.022 608.335 812.487 604.552C815.952 600.768 820.613 598.292 825.687 597.538C830.761 596.783 835.941 597.797 840.357 600.408C844.773 603.019 848.156 607.07 849.94 611.88L835.94 623.25L851.31 619.68C851.318 623.227 850.478 626.724 848.86 629.88Z" fill="#39A0ED"/>
<path d="M837.81 586.45C832.338 586.682 826.97 584.898 822.726 581.437C818.481 577.975 815.653 573.077 814.779 567.67C813.905 562.263 815.045 556.723 817.983 552.1C820.921 547.478 825.453 544.094 830.72 542.59L830.6 551.81L835.66 541.81H835.72C838.667 541.651 841.616 542.076 844.398 543.062C847.179 544.048 849.739 545.574 851.928 547.554C854.117 549.533 855.893 551.926 857.153 554.594C858.413 557.263 859.133 560.154 859.271 563.102C859.409 566.05 858.962 568.996 857.956 571.771C856.951 574.546 855.406 577.094 853.411 579.268C851.416 581.443 849.011 583.202 846.333 584.443C843.655 585.684 840.759 586.383 837.81 586.5V586.45Z" fill="#39A0ED"/>
<path d="M892.11 550.32C888.651 550.482 885.201 549.838 882.032 548.44C878.863 547.042 876.063 544.927 873.851 542.262C871.639 539.597 870.076 536.455 869.285 533.083C868.494 529.711 868.497 526.201 869.293 522.831C870.09 519.46 871.658 516.321 873.874 513.659C876.09 510.998 878.894 508.887 882.065 507.494C885.236 506.101 888.687 505.463 892.146 505.631C895.606 505.798 898.979 506.767 902 508.46L898 519.29L906.13 511.49C909.385 514.476 911.683 518.358 912.735 522.648C913.787 526.938 913.545 531.443 912.04 535.596C910.535 539.748 907.835 543.363 904.279 545.983C900.724 548.603 896.472 550.112 892.06 550.32H892.11Z" fill="#39A0ED"/>
<path opacity="0.1" d="M885.74 484.45C880.57 485.02 875.55 486.63 870.37 486.95C865.19 487.27 859.5 486.03 856.23 481.95C854.46 479.78 853.58 477.04 852.09 474.67C850.675 472.47 848.742 470.65 846.46 469.37C845.017 472.206 844.197 475.317 844.052 478.495C843.907 481.673 844.442 484.846 845.621 487.801C846.8 490.756 848.596 493.426 850.888 495.632C853.181 497.838 855.918 499.529 858.916 500.593C861.914 501.658 865.105 502.07 868.276 501.803C871.446 501.536 874.523 500.596 877.301 499.045C880.079 497.495 882.495 495.369 884.386 492.811C886.278 490.253 887.602 487.321 888.27 484.21C887.42 484.3 886.58 484.36 885.74 484.45Z" fill="black"/>
<path opacity="0.1" d="M892.11 550.32C888.255 550.497 884.42 549.674 880.976 547.932C877.532 546.19 874.598 543.587 872.457 540.376C870.315 537.165 869.04 533.456 868.755 529.607C868.47 525.758 869.185 521.901 870.83 518.41C872.611 519.604 874.14 521.137 875.33 522.92C876.92 525.32 877.89 528.1 879.76 530.31C883.24 534.4 889.2 535.74 894.6 535.5C900 535.26 905.2 533.72 910.6 533.22C911.35 533.16 912.1 533.11 912.86 533.09C911.747 537.829 909.118 542.074 905.374 545.184C901.629 548.293 896.972 550.097 892.11 550.32Z" fill="black"/>
<path opacity="0.1" d="M837.81 586.45C833.993 586.628 830.194 585.826 826.775 584.12C823.356 582.413 820.432 579.86 818.28 576.702C816.128 573.545 814.821 569.888 814.483 566.082C814.145 562.276 814.788 558.447 816.35 554.96C818.195 556.171 819.798 557.714 821.08 559.51C822.82 561.96 823.9 564.78 825.94 567.05C829.71 571.25 836.05 572.73 841.77 572.59C847.31 572.47 852.64 571.11 858.15 570.69C856.795 575.092 854.115 578.968 850.474 581.789C846.833 584.61 842.411 586.238 837.81 586.45Z" fill="black"/>
<path opacity="0.1" d="M848.86 629.88C846.268 635.02 841.794 638.963 836.368 640.889C830.943 642.814 824.984 642.574 819.732 640.218C814.479 637.863 810.337 633.572 808.166 628.24C805.996 622.908 805.965 616.944 808.08 611.59C809.925 612.799 811.579 614.275 812.99 615.97C815.12 618.56 816.52 621.5 818.99 623.91C823.56 628.4 830.94 630.25 837.51 630.42C841.301 630.462 845.09 630.281 848.86 629.88Z" fill="black"/>
<path d="M793 662.85C793 662.85 810.65 662.31 816 658.52C821.35 654.73 843.16 650.21 844.48 656.28C845.8 662.35 871.01 686.5 851.08 686.66C831.15 686.82 804.77 683.56 799.46 680.32C794.15 677.08 793 662.85 793 662.85Z" fill="#656380"/>
<path opacity="0.2" d="M851.4 684.59C831.47 684.75 805.09 681.48 799.78 678.25C795.78 675.78 794.13 666.95 793.59 662.87H793C793 662.87 794.12 677.11 799.43 680.34C804.74 683.57 831.12 686.84 851.05 686.68C856.8 686.68 858.79 684.59 858.68 681.56C857.88 683.37 855.69 684.51 851.4 684.59Z" fill="black"/>
<path d="M833.25 79.2648L824.18 85.0348L829.711 75.0348C828.148 73.7719 826.209 73.0679 824.201 73.0348H824.06C823.428 73.0436 822.795 72.9968 822.17 72.8948L819.081 74.8948L820.38 72.4348C818.195 71.6734 816.305 70.2422 814.98 68.3448L809.461 71.8448L812.951 65.5048C811.482 63.6094 809.61 62.0645 807.47 60.9818C805.331 59.8991 802.978 59.3058 800.581 59.2448C794.831 59.2448 789.72 62.6648 786.42 67.9848C785.44 69.5693 784.057 70.8664 782.413 71.7445C780.77 72.6226 778.923 73.0505 777.06 72.9848H776.75C770.41 72.9848 765.271 80.1748 765.271 88.9848C765.271 97.7948 770.41 105.035 776.75 105.035C778.145 105.03 779.518 104.687 780.75 104.035C782.908 102.986 785.267 102.419 787.666 102.373C790.064 102.326 792.444 102.801 794.641 103.765C796.499 104.592 798.511 105.02 800.545 105.02C802.58 105.02 804.592 104.592 806.451 103.765C808.631 102.82 810.989 102.356 813.365 102.402C815.741 102.449 818.079 103.006 820.22 104.035C821.453 104.687 822.826 105.03 824.22 105.035C830.56 105.035 835.701 97.8548 835.701 88.9848C835.71 85.5908 834.868 82.2487 833.25 79.2648Z" fill="#F2F2F2"/>
<path opacity="0.03" d="M816.1 102.755C812.79 102.13 809.369 102.502 806.271 103.825C804.412 104.652 802.4 105.08 800.365 105.08C798.331 105.08 796.319 104.652 794.461 103.825C792.262 102.861 789.881 102.386 787.481 102.432C785.081 102.479 782.72 103.046 780.56 104.095C779.329 104.749 777.955 105.093 776.56 105.095C770.92 105.095 766.24 99.4247 765.26 91.9447C766.382 91.1324 767.339 90.1143 768.081 88.9447C771.381 83.6247 776.5 80.2147 782.24 80.2147C787.98 80.2147 793.031 83.5847 796.331 88.8447C797.315 90.4358 798.694 91.7453 800.334 92.6459C801.974 93.5466 803.82 94.0078 805.69 93.9847H805.84C810.33 93.9147 814.18 97.5147 816.1 102.755Z" fill="black"/>
<path d="M217.648 171.422L232.308 180.702L223.428 164.552C225.946 162.547 229.06 161.439 232.278 161.402H232.508C233.512 161.417 234.516 161.343 235.508 161.182L240.458 164.322L238.308 160.462C241.814 159.229 244.847 156.927 246.978 153.882L255.848 159.502L250.308 149.312C255.498 143.092 262.488 139.312 270.178 139.312C279.408 139.312 287.618 144.792 292.928 153.312C294.492 155.865 296.703 157.959 299.337 159.383C301.971 160.807 304.935 161.511 307.928 161.422H308.428C318.608 161.422 326.858 172.962 326.858 187.202C326.858 201.442 318.608 212.992 308.428 212.992C306.186 212.983 303.979 212.43 301.998 211.382C298.532 209.698 294.742 208.787 290.89 208.713C287.038 208.639 283.215 209.403 279.688 210.952C276.699 212.288 273.462 212.978 270.188 212.978C266.914 212.978 263.677 212.288 260.688 210.952C257.185 209.434 253.397 208.688 249.581 208.762C245.764 208.836 242.009 209.729 238.568 211.382C236.606 212.403 234.429 212.941 232.218 212.952C222.028 212.952 213.778 201.412 213.778 187.162C213.73 181.674 215.06 176.262 217.648 171.422Z" fill="#F2F2F2"/>
<path opacity="0.03" d="M245.198 209.152C250.519 208.149 256.017 208.748 260.998 210.872C263.987 212.208 267.224 212.898 270.498 212.898C273.772 212.898 277.009 212.208 279.998 210.872C283.527 209.323 287.351 208.559 291.205 208.633C295.059 208.707 298.851 209.618 302.318 211.302C304.296 212.35 306.499 212.903 308.738 212.912C317.788 212.912 325.308 203.802 326.878 191.782C325.072 190.46 323.537 188.803 322.358 186.902C317.048 178.362 308.838 172.902 299.608 172.902C290.378 172.902 282.278 178.322 276.968 186.782C275.388 189.33 273.177 191.429 270.55 192.874C267.922 194.319 264.966 195.062 261.968 195.032H261.738C254.478 194.962 248.238 200.742 245.198 209.152Z" fill="black"/>
<g clip-path="url(#clip1_105_4007)">
<path d="M-19.4331 588.497C-20.1848 588.497 -20.3727 588.121 -19.9969 587.558L-16.0504 582.489C-15.6746 581.926 -14.735 581.55 -13.9833 581.55H53.1063C53.858 581.55 54.046 582.113 53.6701 582.677L50.4754 587.558C50.0995 588.121 49.1599 588.684 48.5961 588.684L-19.4331 588.497Z" fill="#00ACD7"/>
<path d="M-47.8098 605.769C-48.5615 605.769 -48.7494 605.394 -48.3736 604.83L-44.4272 599.761C-44.0513 599.198 -43.1117 598.823 -42.36 598.823H43.3343C44.086 598.823 44.4619 599.386 44.2739 599.949L42.7705 604.455C42.5826 605.206 41.8309 605.581 41.0792 605.581L-47.8098 605.769Z" fill="#00ACD7"/>
<path d="M-2.33179 623.042C-3.08349 623.042 -3.27142 622.479 -2.89557 621.915L-0.264604 617.222C0.111248 616.658 0.862952 616.095 1.61466 616.095H39.1999C39.9516 616.095 40.3274 616.658 40.3274 617.409L39.9516 621.915C39.9516 622.666 39.1999 623.23 38.6361 623.23L-2.33179 623.042Z" fill="#00ACD7"/>
<path d="M192.735 585.117C180.896 588.121 172.815 590.374 161.164 593.378C158.345 594.129 158.157 594.317 155.714 591.501C152.895 588.309 150.828 586.244 146.882 584.366C135.042 578.546 123.579 580.236 112.867 587.182C100.088 595.443 93.5106 607.647 93.6985 622.854C93.8864 637.873 104.222 650.265 119.068 652.33C131.847 654.019 142.559 649.514 151.016 639.939C152.707 637.873 154.211 635.621 156.09 632.992C149.325 632.992 140.868 632.992 119.82 632.992C115.874 632.992 114.934 630.551 116.25 627.36C118.693 621.54 123.203 611.777 125.834 606.896C126.398 605.769 127.713 603.892 130.532 603.892C140.116 603.892 175.446 603.892 198.937 603.892C198.561 608.961 198.561 614.03 197.81 619.099C195.742 632.617 190.668 645.008 182.4 655.897C168.869 673.733 151.204 684.81 128.841 687.813C110.424 690.254 93.3226 686.687 78.2886 675.422C64.382 664.909 56.4891 651.016 54.422 633.743C51.9789 613.279 57.9925 594.88 70.3957 578.734C83.7384 561.274 101.403 550.197 123.015 546.254C140.68 543.062 157.593 545.128 172.815 555.454C182.775 562.025 189.917 571.036 194.615 581.926C195.742 583.615 194.991 584.554 192.735 585.117Z" fill="#00ACD7"/>
<path d="M254.939 688.94C237.838 688.564 222.24 683.683 209.085 672.418C197.998 662.843 191.044 650.64 188.789 636.184C185.407 614.969 191.232 596.194 204.011 579.485C217.73 561.461 234.267 552.074 256.63 548.132C275.799 544.752 293.84 546.63 310.189 557.707C325.036 567.845 334.244 581.55 336.687 599.574C339.882 624.919 332.553 645.571 315.075 663.219C302.672 675.798 287.45 683.683 269.973 687.25C264.899 688.189 259.825 688.377 254.939 688.94ZM299.666 613.091C299.478 610.651 299.478 608.773 299.102 606.896C295.719 588.309 278.618 577.795 260.765 581.926C243.288 585.868 232.012 596.945 227.878 614.593C224.495 629.237 231.636 644.069 245.167 650.077C255.503 654.583 265.839 654.02 275.799 648.95C290.645 641.253 298.726 629.237 299.666 613.091Z" fill="#00ACD7"/>
</g>
<path d="M955.422 518H810.578C800.87 518 793 525.87 793 535.578V680.422C793 690.13 800.87 698 810.578 698H955.422C965.13 698 973 690.13 973 680.422V535.578C973 525.87 965.13 518 955.422 518Z" fill="#3178C6"/>
<path d="M955.422 518H810.578C800.87 518 793 525.87 793 535.578V680.422C793 690.13 800.87 698 810.578 698H955.422C965.13 698 973 690.13 973 680.422V535.578C973 525.87 965.13 518 955.422 518Z" fill="#3178C6"/>
<path fill-rule="evenodd" clip-rule="evenodd" d="M904.424 661.235V678.835C907.285 680.301 910.669 681.401 914.575 682.134C918.482 682.868 922.599 683.234 926.927 683.234C931.146 683.234 935.153 682.831 938.949 682.024C942.746 681.218 946.075 679.889 948.936 678.037C951.797 676.186 954.062 673.765 955.731 670.777C957.4 667.789 958.234 664.095 958.234 659.695C958.234 656.505 957.758 653.709 956.804 651.308C955.85 648.906 954.475 646.771 952.677 644.901C950.88 643.031 948.725 641.353 946.212 639.868C943.7 638.383 940.866 636.981 937.712 635.661C935.401 634.707 933.328 633.782 931.494 632.884C929.66 631.985 928.101 631.068 926.817 630.134C925.533 629.199 924.543 628.209 923.846 627.164C923.149 626.118 922.801 624.936 922.801 623.616C922.801 622.406 923.113 621.315 923.736 620.344C924.36 619.372 925.24 618.538 926.377 617.841C927.514 617.145 928.908 616.604 930.559 616.219C932.21 615.834 934.043 615.642 936.061 615.642C937.528 615.642 939.078 615.752 940.71 615.971C942.342 616.191 943.984 616.531 945.635 616.989C947.285 617.447 948.89 618.025 950.449 618.721C952.008 619.418 953.448 620.225 954.768 621.141V604.697C952.09 603.67 949.165 602.909 945.992 602.414C942.819 601.919 939.179 601.672 935.071 601.672C930.889 601.672 926.927 602.121 923.186 603.019C919.445 603.918 916.153 605.32 913.31 607.227C910.467 609.133 908.22 611.562 906.57 614.514C904.919 617.465 904.094 620.994 904.094 625.101C904.094 630.344 905.607 634.818 908.633 638.521C911.659 642.224 916.253 645.359 922.416 647.926C924.837 648.916 927.093 649.887 929.183 650.84C931.274 651.794 933.081 652.784 934.603 653.81C936.125 654.837 937.326 655.955 938.207 657.165C939.087 658.375 939.527 659.75 939.527 661.29C939.527 662.427 939.252 663.481 938.702 664.452C938.152 665.424 937.317 666.267 936.198 666.982C935.08 667.697 933.686 668.256 932.017 668.66C930.348 669.063 928.395 669.265 926.157 669.265C922.342 669.265 918.564 668.596 914.823 667.257C911.081 665.919 907.615 663.912 904.424 661.235ZM874.837 617.873H897.414V603.43H834.484V617.873H856.951V682.18H874.837V617.873Z" fill="white"/>
<path d="M878 403.817V316.017L954.5 359.917V389.183L903.5 359.917V418.45L878 403.817Z" fill="#00B0FF"/>
<path d="M954.5 359.917L1031 316.017V403.817L980 433.083L954.5 418.45L1005.5 389.183V359.917L954.5 389.183V359.917Z" fill="#0081CB"/>
<path d="M954.5 418.45V447.717L1005.5 476.983V447.717L954.5 418.45Z" fill="#00B0FF"/>
<path d="M1005.5 476.983L1082 433.083V374.55L1056.5 389.183V418.45L1005.5 447.716V476.983ZM1056.5 359.917V330.65L1082 316.017V345.283L1056.5 359.917Z" fill="#0081CB"/>
<g clip-path="url(#clip2_105_4007)">
<path d="M333.221 310.286V311.879H330.915V317.411H329.185V311.879H326.878V310.286H333.221Z" fill="#39A0ED"/>
<path d="M340.142 317.411V311.995L338.7 317.411H337.259L335.528 311.995V317.411H333.798V310.286H336.682L337.835 315.036L338.989 310.286H341.872V317.411H340.142Z" fill="#39A0ED"/>
<path d="M260.92 317.006C258.335 318.106 255.751 318.657 253.138 318.657C249.003 318.657 245.27 317.933 241.968 316.485C238.666 315.036 235.881 313.038 233.612 310.489C231.344 307.94 229.592 304.957 228.386 301.511C227.18 298.064 226.577 294.357 226.577 290.389C226.577 286.305 227.18 282.54 228.386 279.035C229.592 275.531 231.315 272.49 233.583 269.912C235.852 267.305 238.637 265.278 241.939 263.801C245.242 262.324 248.946 261.571 253.109 261.571C255.895 261.571 258.565 262.005 261.149 262.845C263.734 263.685 266.088 264.93 268.184 266.552C270.28 268.174 272.003 270.202 273.353 272.605C274.702 275.009 275.535 277.761 275.851 280.86H264.538C263.82 277.819 262.47 275.531 260.46 273.996C258.45 272.461 256.009 271.708 253.109 271.708C250.439 271.708 248.17 272.229 246.304 273.272C244.438 274.314 242.916 275.705 241.767 277.471C240.618 279.238 239.757 281.236 239.24 283.467C238.723 285.697 238.436 288.014 238.436 290.418C238.436 292.706 238.695 294.936 239.24 297.108C239.757 299.28 240.618 301.221 241.767 302.959C242.916 304.697 244.438 306.087 246.304 307.129C248.17 308.172 250.439 308.693 253.109 308.693C257.043 308.693 260.087 307.68 262.24 305.681C264.394 303.683 265.629 300.787 266.002 296.963H254.057V287.956H276.712V317.411H269.161L267.955 311.242C265.858 313.994 263.504 315.905 260.92 317.006Z" fill="#39A0ED"/>
<path d="M295.98 262.932V307.274H322.311V317.382H284.121V262.932H295.98Z" fill="#39A0ED"/>
<path d="M239.929 324.16C221.811 335.282 194.647 341.596 164.353 341.596C109.767 341.596 65.5469 318.686 65.5469 290.389C65.5469 262.121 109.796 239.182 164.353 239.182C194.762 239.182 222.012 245.641 240.13 256.821C220.375 238.082 184.884 224.932 144.339 224.903C82.2012 224.903 31.8362 254.214 31.8362 290.389C31.8362 326.564 82.2012 355.903 144.31 355.903C184.712 355.903 220.088 342.783 239.929 324.16Z" fill="#39A0ED"/>
<path d="M94.3195 304.146L83.8522 258.674H73.9617L89.4752 317.962H98.7602L111.823 271.389L124.712 317.962H134.026L150.087 258.674H139.62L129.153 304.146L116.523 258.674H106.949L94.3195 304.146Z" fill="#39A0ED"/>
<path d="M176.212 283.641C174.771 281.584 172.954 280.02 170.82 278.949C168.629 277.848 166.091 277.298 163.265 277.298C160.093 277.298 157.239 277.877 154.759 279.006C152.423 280.078 150.433 281.671 148.819 283.727C145.849 287.522 144.292 292.88 144.292 299.223C144.292 302.032 144.695 304.697 145.474 307.072C146.252 309.476 147.435 311.59 148.934 313.357C152.106 317.064 156.633 319.033 162.025 319.033C164.851 319.033 167.158 318.744 169.09 318.136C170.762 317.614 171.887 316.919 172.81 316.311C173.992 315.529 175.059 314.573 176.039 313.473C176.847 312.517 177.568 311.474 178.202 310.344C179.298 308.317 179.846 306.406 179.961 305.421L180.047 304.755H172.348L172.32 305.305C172.118 307.825 168.83 312.314 162.977 312.314C154.615 312.314 152.625 306.232 152.481 300.874H180.509V300.265C180.509 296.819 180.163 293.662 179.471 290.91C178.692 288.043 177.625 285.61 176.212 283.641ZM162.371 284.249C168.571 284.249 171.887 287.608 172.493 294.502H152.423C152.74 288.912 157.152 284.249 162.371 284.249Z" fill="#39A0ED"/>
<path d="M219.235 289.317C218.485 286.913 217.389 284.799 215.976 283.032C214.506 281.208 212.718 279.788 210.671 278.804C208.537 277.79 206.144 277.269 203.548 277.269C201.155 277.298 198.992 277.819 197.089 278.833C195.503 279.644 194.09 280.802 192.879 282.25V264.062H185.209V317.933H192.504V314.255C193.139 315.094 193.975 315.992 195.071 316.774C197.147 318.28 199.713 319.033 202.683 319.033C205.884 319.033 208.768 318.309 211.19 316.89C213.352 315.616 215.198 313.791 216.64 311.474C217.908 309.447 218.86 307.043 219.494 304.349C220.042 302.032 220.331 299.483 220.331 296.993C220.359 294.299 219.985 291.692 219.235 289.317ZM212.343 298.064C212.343 302.293 211.507 305.826 209.892 308.317C208.191 310.953 205.711 312.285 202.539 312.285C197.954 312.285 192.591 309.07 192.591 299.976C192.591 295.631 193.139 292.272 194.234 289.723C195.82 286.045 198.502 284.278 202.395 284.278C206.547 284.278 209.344 285.9 210.901 289.288C212.17 292.069 212.343 295.458 212.343 298.064Z" fill="#39A0ED"/>
</g>
<path d="M86.876 60.6527C80.9177 34.3121 68.4992 27.2999 65.3313 22.343C64.025 20.1594 62.8678 17.8896 61.8676 15.5492C61.7003 17.8892 61.3928 19.3634 59.408 21.1379C55.4229 24.6986 38.4977 38.5202 37.0733 68.4488C35.7462 96.3533 57.5439 113.56 60.4238 115.338C62.6382 116.43 65.3352 115.362 66.6506 114.36C77.1583 107.133 91.515 87.8669 86.8877 60.6527" fill="#10AA50"/>
<path d="M62.7706 100.479C62.2219 107.386 61.8288 111.399 60.4355 115.346C60.4355 115.346 61.3501 121.922 61.9922 128.887H64.265C64.8072 123.982 65.6349 119.113 66.7441 114.305C63.8019 112.854 62.8835 106.54 62.7706 100.479Z" fill="#B8C4C2"/>
<path d="M66.7402 114.309C63.7669 112.932 62.9068 106.485 62.7745 100.479C63.5098 90.5721 63.7241 80.6329 63.4166 70.703C63.2609 65.4926 63.4906 22.4444 62.1362 16.142C63.0627 18.2765 64.1301 20.3468 65.3314 22.3391C68.4992 27.2999 80.9217 34.3121 86.8761 60.6527C91.5151 87.8201 77.2362 107.035 66.7402 114.309Z" fill="#12924F"/>
<path d="M458.639 104.785C457.366 104.785 456.122 104.408 455.062 103.701C454.002 102.994 453.175 101.988 452.683 100.811C452.192 99.6342 452.059 98.3379 452.301 97.0853C452.543 95.8328 453.149 94.6798 454.043 93.7715C454.937 92.8632 456.079 92.24 457.326 91.9803C458.572 91.7206 459.868 91.836 461.049 92.312C462.23 92.788 463.244 93.6033 463.964 94.6554C464.684 95.7076 465.078 96.9496 465.096 98.2253C465.119 99.0854 464.968 99.9414 464.653 100.742C464.338 101.542 463.865 102.271 463.262 102.883C462.659 103.496 461.939 103.98 461.144 104.307C460.35 104.634 459.498 104.796 458.639 104.785V104.785ZM458.639 92.4299C457.476 92.4221 456.337 92.7606 455.366 93.4022C454.394 94.0439 453.635 94.96 453.184 96.0345C452.733 97.109 452.61 98.2934 452.831 99.4379C453.052 100.582 453.607 101.635 454.426 102.463C455.245 103.292 456.29 103.858 457.43 104.09C458.57 104.322 459.753 104.21 460.829 103.768C461.906 103.326 462.827 102.573 463.476 101.606C464.126 100.639 464.474 99.5002 464.477 98.3345C464.492 97.5595 464.352 96.7894 464.065 96.0697C463.777 95.3501 463.349 94.6955 462.804 94.1449C462.26 93.5943 461.611 93.1588 460.895 92.8642C460.18 92.5696 459.413 92.4219 458.639 92.4299V92.4299ZM460.196 102.406L458.53 98.8064H457.188V102.406H456.211V94.216H458.62C460.414 94.216 461.161 94.9961 461.161 96.5054C461.161 97.7066 460.597 98.4554 459.546 98.6855L461.266 102.394L460.196 102.406ZM457.227 97.9601H458.639C459.784 97.9601 460.219 97.5701 460.219 96.5249C460.219 95.4797 459.803 95.1247 458.515 95.1247H457.227V97.9601Z" fill="#21313C"/>
<path d="M362.548 98.8883C364.296 100.288 367.787 100.866 370.865 100.866C374.854 100.866 378.765 100.125 382.587 96.6653C386.479 93.1202 389.156 87.6953 389.156 79.0334C389.156 70.7108 385.996 63.956 379.512 60.0014C375.854 57.6965 371.114 56.7878 365.708 56.7878C364.152 56.7878 362.548 56.8697 361.638 57.2831C361.264 57.5784 361 57.9901 360.886 58.4531C360.723 59.9351 360.723 71.2217 360.723 77.8946C360.723 84.7352 360.723 94.2746 360.886 95.4446C360.972 96.4352 361.47 98.1746 362.548 98.9039V98.8883ZM345.954 53.0828C347.367 53.0828 352.737 53.3285 355.236 53.3285C359.906 53.3285 363.132 53.0828 371.861 53.0828C379.178 53.0828 385.334 55.0601 389.736 58.847C395.06 63.4646 397.909 69.8879 397.909 77.7152C397.909 88.838 392.849 95.2652 387.763 98.8883C382.704 102.679 376.123 104.82 366.747 104.82C361.758 104.82 353.193 104.656 346.043 104.574H345.895C345.561 103.915 346.506 101.345 347.09 101.279C349.036 101.061 349.55 100.983 350.445 100.612C351.955 99.992 352.309 99.2198 352.476 96.5015C352.725 91.3925 352.644 85.2968 352.644 78.3743C352.644 73.433 352.725 63.7922 352.562 60.7424C352.309 58.1918 351.235 57.5327 349.059 57.0374C347.517 56.7089 345.958 56.4616 344.389 56.2964C344.226 55.8011 345.502 53.5664 345.919 53.0828" fill="#21313C"/>
<path d="M418.516 57.2636C418.185 57.3455 417.768 58.1723 417.768 58.5818C417.683 61.5497 417.601 69.2912 417.601 74.6459C417.622 74.7482 417.673 74.8421 417.747 74.9156C417.821 74.9891 417.915 75.0391 418.017 75.0593C419.095 75.1412 421.757 75.227 424.003 75.227C427.163 75.227 428.992 74.8136 429.988 74.3183C432.65 73.0001 433.88 70.1141 433.88 66.9863C433.88 59.8181 428.891 57.0998 421.493 57.0998C420.493 57.0871 419.493 57.1418 418.5 57.2636H418.516ZM437.375 90.2186C437.375 82.9685 432.051 78.8501 422.322 78.8501C421.909 78.8501 418.819 78.7682 418.084 78.932C417.834 79.0139 417.585 79.1777 417.585 79.3454C417.585 84.5363 417.5 92.855 417.753 96.1505C417.92 97.5506 418.92 99.5279 420.162 100.105C421.493 100.846 424.486 101.01 426.564 101.01C432.3 101.01 437.375 97.8002 437.375 90.2186V90.2186ZM403.493 53.2271C404.244 53.2271 406.455 53.4727 412.11 53.4727C417.43 53.4727 421.753 53.309 426.898 53.309C433.3 53.309 442.111 55.6177 442.111 65.1727C442.111 69.8528 438.788 73.6592 434.464 75.4727C434.215 75.5546 434.215 75.7184 434.464 75.8003C440.617 77.3603 446.019 81.155 446.019 88.4051C446.019 95.4914 441.613 99.9413 435.211 102.741C431.319 104.473 426.482 105.046 421.59 105.046C417.85 105.046 407.825 104.656 402.252 104.719C401.668 104.473 402.785 101.833 403.283 101.423C404.56 101.384 405.827 101.185 407.054 100.83C409.047 100.339 409.284 99.6956 409.533 96.7277C409.701 94.1732 409.701 85.0277 409.701 78.5186C409.701 69.6188 409.786 63.6089 409.701 60.641C409.619 58.3361 408.786 57.5912 407.206 57.1817C405.961 56.9321 403.883 56.6864 402.221 56.4407C401.804 56.0273 403.085 53.5547 403.497 53.2271" fill="#21313C"/>
<path d="M105.288 104.785C105.074 104.258 104.987 103.687 105.035 103.12C105.016 102.733 105.104 102.349 105.288 102.008C106.363 101.853 107.429 101.635 108.479 101.357C109.95 100.99 110.503 100.187 110.589 98.3072C110.83 93.8651 110.846 85.5308 110.76 79.6729V79.5013C110.76 78.8695 110.76 78.0116 109.982 77.4071C108.613 76.547 107.128 75.8901 105.572 75.457C104.876 75.2503 104.49 74.8837 104.51 74.4547C104.529 74.0257 104.969 73.5187 105.876 73.3393C108.285 73.0936 114.597 71.5843 117.076 70.4377C117.331 70.7711 117.45 71.1897 117.407 71.6077C117.407 71.8651 117.368 72.1381 117.341 72.4189C117.271 73.2457 117.193 74.1856 117.193 75.1216C117.208 75.2354 117.255 75.3425 117.328 75.4311C117.4 75.5197 117.496 75.5862 117.605 75.6231C117.713 75.66 117.83 75.6658 117.941 75.6399C118.053 75.614 118.155 75.5574 118.236 75.4766C122.957 71.7676 127.187 70.4455 129.355 70.4455C132.923 70.4455 135.702 72.1537 137.854 75.6716C137.904 75.7565 137.974 75.8273 138.058 75.8771C138.143 75.927 138.239 75.9542 138.337 75.9562C138.426 75.9554 138.514 75.933 138.592 75.8909C138.671 75.8488 138.738 75.7883 138.788 75.7145C143.128 72.4151 147.428 70.4455 150.308 70.4455C157.111 70.4455 161.177 75.5506 161.177 84.0955C161.177 86.5526 161.154 89.6687 161.131 92.5742C161.111 95.1248 161.092 97.5155 161.092 99.1691C161.092 99.5591 161.629 100.682 162.435 100.905C163.431 101.392 164.867 101.642 166.684 101.954H166.754C166.891 102.445 166.603 104.352 166.326 104.742C165.875 104.742 165.252 104.703 164.474 104.664C163.061 104.594 161.123 104.496 158.87 104.496C154.347 104.496 151.985 104.582 149.728 104.73C149.557 104.165 149.498 102.34 149.705 101.958C150.639 101.811 151.565 101.609 152.476 101.353C153.915 100.877 154.332 100.222 154.421 98.3072C154.456 96.9461 154.717 84.9536 154.254 82.1066C153.826 79.1543 151.608 75.6988 146.755 75.6988C144.953 75.6988 142.046 76.4515 139.275 78.5575C139.103 78.7528 139.006 79.0031 139.002 79.2634V79.322C139.329 80.8586 139.329 82.6525 139.329 85.363C139.329 86.9231 139.329 88.5493 139.31 90.1756C139.29 93.4829 139.275 96.6029 139.329 98.9624C139.329 100.569 140.298 100.955 141.081 101.263C141.505 101.357 141.839 101.439 142.178 101.517C142.828 101.677 143.505 101.841 144.513 102C144.662 102.686 144.649 103.396 144.474 104.075C144.433 104.33 144.333 104.572 144.182 104.781C141.668 104.695 139.088 104.621 135.364 104.621C134.235 104.621 132.394 104.668 130.767 104.711C129.448 104.746 128.203 104.781 127.494 104.785C127.303 104.332 127.218 103.841 127.245 103.35C127.206 102.887 127.296 102.422 127.506 102.008L128.506 101.825C129.378 101.669 130.133 101.536 130.841 101.357C132.071 100.967 132.534 100.296 132.624 98.7245C132.865 95.0585 133.052 84.4934 132.534 81.8492C131.655 77.6059 129.246 75.4531 125.37 75.4531C123.101 75.4531 120.232 76.549 117.89 78.3079C117.664 78.5278 117.487 78.7921 117.368 79.084C117.25 79.376 117.193 79.6894 117.201 80.0045C117.201 81.2642 117.201 82.7617 117.201 84.3685C117.201 89.6725 117.166 96.2753 117.294 99.1301C117.372 100.011 117.683 101.057 119.33 101.439C119.691 101.544 120.314 101.646 121.038 101.766C121.454 101.837 121.91 101.911 122.381 101.997C122.53 102.93 122.454 103.887 122.159 104.785C121.435 104.785 120.544 104.738 119.524 104.695C117.967 104.625 116.022 104.539 113.823 104.539C111.223 104.539 109.413 104.625 107.962 104.695C106.985 104.742 106.14 104.781 105.296 104.785" fill="#21313C"/>
<path d="M188.747 73.9712C187.342 73.942 185.96 74.3315 184.777 75.0905C181.889 76.8494 180.418 80.3633 180.418 85.5269C180.418 95.1911 185.248 101.942 192.163 101.942C194.018 102.001 195.826 101.359 197.231 100.144C199.355 98.4086 200.484 94.8596 200.484 89.891C200.484 80.3711 195.763 73.9712 188.739 73.9712H188.747ZM190.07 105.526C177.577 105.526 173.129 96.3416 173.129 87.7499C173.129 81.7478 175.577 77.0561 180.406 73.7996C183.789 71.701 187.672 70.5508 191.65 70.469C201.181 70.469 207.839 77.3369 207.839 87.1766C207.839 93.8612 205.181 99.1418 200.149 102.441C197.733 103.923 193.533 105.526 190.07 105.526" fill="#21313C"/>
<path d="M315.929 73.9712C314.521 73.9392 313.137 74.329 311.952 75.0905C309.064 76.8494 307.593 80.3633 307.593 85.5269C307.593 95.1911 312.422 101.942 319.338 101.942C321.198 102.005 323.013 101.363 324.421 100.144C326.546 98.4086 327.67 94.8596 327.67 89.891C327.67 80.3711 322.953 73.9712 315.929 73.9712V73.9712ZM317.26 105.526C304.767 105.526 300.319 96.3416 300.319 87.7538C300.319 81.7439 302.767 77.0561 307.601 73.7996C310.981 71.6997 314.863 70.5494 318.84 70.469C328.371 70.469 335.03 77.3408 335.03 87.1727C335.03 93.8651 332.372 99.1418 327.34 102.437C324.923 103.923 320.724 105.526 317.26 105.526" fill="#21313C"/>
<path d="M273.867 73.6435C270.018 73.6435 267.527 76.6894 267.527 81.4045C267.527 86.1196 269.672 91.7239 275.7 91.7239C276.735 91.7239 278.611 91.2637 279.541 90.238C280.942 88.9471 281.876 86.2795 281.876 83.4637C281.876 77.3134 278.887 73.6435 273.886 73.6435H273.867ZM273.388 106.185C272.301 106.173 271.229 106.442 270.275 106.965C267.228 108.915 265.815 110.865 265.815 113.131C265.815 115.253 266.636 116.941 268.403 118.439C270.543 120.256 273.431 121.142 277.226 121.142C284.694 121.142 288.041 117.117 288.041 113.131C288.041 110.354 286.651 108.494 283.791 107.441C281.588 106.634 277.907 106.189 273.4 106.189L273.388 106.185ZM273.898 125.299C269.415 125.299 266.185 124.351 263.425 122.222C260.74 120.147 259.534 117.066 259.534 114.937C259.563 113.564 260.085 112.249 261.005 111.232C261.783 110.343 263.593 108.677 267.776 105.795C267.841 105.768 267.897 105.721 267.935 105.662C267.974 105.603 267.995 105.534 267.994 105.464C267.996 105.385 267.97 105.308 267.922 105.246C267.874 105.183 267.806 105.139 267.73 105.12C264.286 103.798 263.246 101.61 262.931 100.44C262.931 100.398 262.931 100.331 262.896 100.257C262.799 99.7969 262.705 99.3601 263.332 98.9116C263.815 98.5684 264.585 98.1082 265.41 97.6207C266.575 96.9747 267.692 96.2461 268.753 95.4406C268.81 95.3792 268.853 95.3055 268.877 95.2252C268.901 95.1449 268.907 95.06 268.893 94.9772C268.88 94.8944 268.847 94.8158 268.799 94.7474C268.75 94.679 268.687 94.6227 268.613 94.5826C263.515 92.8666 260.946 89.0719 260.946 83.2726C260.931 81.4642 261.351 79.6787 262.17 78.0676C262.99 76.4565 264.186 75.0673 265.655 74.0179C267.706 72.3916 272.855 70.4377 276.19 70.4377H276.385C279.814 70.5196 281.748 71.2411 284.425 72.2317C285.948 72.7836 287.562 73.0404 289.181 72.9883C292.018 72.9883 293.26 72.0874 294.326 71.0383C294.499 71.5109 294.591 72.0093 294.598 72.5125C294.664 73.7117 294.338 74.8996 293.672 75.8977C293.092 76.705 291.726 77.29 290.477 77.29C290.349 77.29 290.224 77.29 290.088 77.2705C289.43 77.2242 288.779 77.1158 288.142 76.9468L287.823 77.0599C287.722 77.2081 287.788 77.3719 287.87 77.5825C287.889 77.6237 287.905 77.6668 287.916 77.7112C288.144 78.7521 288.299 79.8077 288.379 80.8702C288.379 86.9347 285.994 89.575 283.413 91.5328C280.919 93.4086 277.956 94.5584 274.852 94.8556V94.8556C274.785 94.8556 274.462 94.8829 273.855 94.9375C273.466 94.9726 272.96 95.0194 272.886 95.0194H272.812C272.252 95.1754 270.789 95.8735 270.789 97.1722C270.789 98.2486 271.45 99.5863 274.614 99.8281L276.661 99.9724C280.833 100.265 286.044 100.628 288.496 101.458C290.123 102.031 291.527 103.104 292.51 104.523C293.493 105.942 294.005 107.636 293.972 109.364C293.972 114.804 290.111 119.921 283.647 123.049C280.599 124.508 277.261 125.258 273.883 125.244" fill="#21313C"/>
<path d="M254.774 101.883C252.945 101.638 251.61 101.388 250.034 100.647C249.724 100.326 249.521 99.9178 249.45 99.4772C249.283 96.9227 249.283 89.5088 249.283 84.6572C249.283 80.6987 248.621 77.2472 246.948 74.7707C244.951 71.9666 242.126 70.3208 238.468 70.3208C235.226 70.3208 230.902 72.5438 227.329 75.5936C227.244 75.6755 226.695 76.1981 226.707 75.3869C226.718 74.5757 226.843 72.9299 226.921 71.8769C226.955 71.5971 226.924 71.3132 226.829 71.0477C226.735 70.7822 226.579 70.5426 226.376 70.3481C224.041 71.5181 217.491 73.0781 215.066 73.316C213.3 73.6592 212.852 75.3635 214.74 75.9524H214.767C216.278 76.3699 217.72 77.0058 219.048 77.84C219.795 78.4172 219.713 79.2401 219.713 79.8992C219.795 85.4177 219.795 93.9041 219.546 98.5178C219.464 100.331 218.962 100.99 217.631 101.322L217.756 101.279C216.742 101.534 215.714 101.726 214.677 101.856C214.261 102.266 214.261 104.656 214.677 105.152C215.51 105.152 219.737 104.906 223.239 104.906C228.057 104.906 230.552 105.152 231.801 105.152C232.303 104.574 232.466 102.351 232.136 101.856C230.984 101.804 229.841 101.638 228.723 101.361C227.395 101.033 227.061 100.37 226.979 98.8922C226.816 95.0156 226.816 86.7788 226.816 81.1745C226.816 79.6145 227.228 78.8696 227.726 78.4445C229.388 76.9625 232.136 75.9758 234.545 75.9758C236.88 75.9758 238.436 76.7168 239.604 77.7035C240.964 78.8926 241.816 80.5594 241.986 82.3601C242.316 85.4801 242.231 91.7552 242.231 97.1801C242.231 100.148 241.986 100.893 240.904 101.22C240.406 101.466 239.075 101.716 237.495 101.88C236.996 102.375 237.16 104.68 237.495 105.175C239.654 105.175 242.165 104.929 245.807 104.929C250.38 104.929 253.291 105.175 254.455 105.175C254.953 104.598 255.12 102.445 254.79 101.88" fill="#21313C"/>
</g>
<defs>
<linearGradient id="paint0_linear_105_4007" x1="548.287" y1="333.562" x2="533.278" y2="163.15" gradientUnits="userSpaceOnUse">
<stop stop-color="#F74C00"/>
<stop offset="0.33" stop-color="#F74C00"/>
<stop offset="1" stop-color="#F49600"/>
</linearGradient>
<linearGradient id="paint1_linear_105_4007" x1="590.604" y1="326.335" x2="590.604" y2="265.767" gradientUnits="userSpaceOnUse">
<stop stop-color="#CC3A00"/>
<stop offset="0.15" stop-color="#CC3A00"/>
<stop offset="0.74" stop-color="#F74C00"/>
<stop offset="1" stop-color="#F74C00"/>
</linearGradient>
<linearGradient id="paint2_linear_105_4007" x1="498.622" y1="328.864" x2="498.622" y2="274.686" gradientUnits="userSpaceOnUse">
<stop stop-color="#CC3A00"/>
<stop offset="0.15" stop-color="#CC3A00"/>
<stop offset="0.74" stop-color="#F74C00"/>
<stop offset="1" stop-color="#F74C00"/>
</linearGradient>
<clipPath id="clip0_105_4007">
<rect width="1108" height="731.18" fill="white"/>
</clipPath>
<clipPath id="clip1_105_4007">
<rect width="386" height="144" fill="white" transform="translate(-48.5615 544.94)"/>
</clipPath>
<clipPath id="clip2_105_4007">
<rect width="312" height="131" fill="white" transform="translate(30.6218 224.903)"/>
</clipPath>
</defs>
</svg>
