<svg width="1108" height="732" viewBox="0 0 1108 732" fill="none" xmlns="http://www.w3.org/2000/svg">
<g clip-path="url(#clip0_105_4007)">
<path d="M767.68 330.79L774.57 328.09C775.23 327.83 775.88 327.55 776.57 327.28C763.819 322.585 753.045 313.691 746.02 302.061C738.994 290.43 736.136 276.755 737.914 263.285C739.692 249.814 746 237.349 755.803 227.939C765.605 218.53 778.318 212.736 791.85 211.51L787.05 235.71L805.27 211.79H805.43C821.158 213.952 835.383 222.273 844.977 234.922C854.571 247.57 858.748 263.512 856.59 279.24C856.44 280.37 856.2 281.47 855.99 282.58C861.6 278.15 866.86 273.26 870.8 267.58C878.8 256.04 881.51 241.82 884.27 224.41C889.74 189.93 894.67 155.07 899.11 120.23C885.476 116.117 873.757 107.275 866.058 95.2945C858.36 83.314 855.187 68.9804 857.11 54.8701C857.36 53.0501 857.71 51.2801 858.11 49.5301C858.21 49.0901 858.31 48.6501 858.42 48.2201C858.85 46.5301 859.33 44.8701 859.89 43.2201C859.98 42.9501 860.1 42.7001 860.19 42.4401C860.69 41.0701 861.19 39.7201 861.84 38.4401C862.06 37.9401 862.28 37.4401 862.51 36.9701C863.2 35.5401 863.93 34.1401 864.73 32.7801C865 32.3301 865.29 31.9001 865.56 31.4501C866.18 30.4501 866.83 29.4501 867.5 28.5201C867.86 28.0201 868.21 27.5201 868.58 27.0301L868.85 26.6401C877.341 15.5268 889.458 7.74047 903.094 4.63464C916.73 1.52882 931.024 3.29992 943.49 9.64006L937.25 41.1301L955.25 17.4901C964.932 25.6927 971.738 36.7759 974.674 49.1211C977.61 61.4663 976.523 74.4269 971.57 86.1101H971.64C971.47 86.5101 971.26 86.8901 971.09 87.2901C970.76 88.0301 970.42 88.7601 970.09 89.4901C969.63 90.4201 969.09 91.3301 968.64 92.2301C968.26 92.9101 967.89 93.5901 967.48 94.2301C966.89 95.2301 966.25 96.1301 965.61 97.0601C965.23 97.6001 964.88 98.1601 964.49 98.6901C963.49 100.08 962.37 101.41 961.23 102.69C960.83 103.14 960.4 103.55 959.98 103.99C959.17 104.85 958.36 105.7 957.5 106.51C956.97 107.01 956.41 107.51 955.86 107.97C955.07 108.67 954.26 109.35 953.43 109.97C952.84 110.44 952.24 110.89 951.64 111.33C950.77 111.96 949.89 112.55 949 113.14C948.4 113.53 947.8 113.92 947.19 114.29C946.19 114.9 945.14 115.46 944.09 116.01C943.56 116.28 943.09 116.58 942.5 116.84C940.92 117.61 939.3 118.32 937.65 118.95C937.34 119.07 937.01 119.16 936.7 119.27C935.32 119.77 933.93 120.27 932.52 120.62C931.91 120.79 931.29 120.93 930.67 121.08C929.52 121.36 928.36 121.62 927.19 121.84C926.523 121.96 925.833 122.07 925.12 122.17C923.97 122.34 922.81 122.47 921.64 122.57C920.95 122.63 920.27 122.69 919.57 122.73C918.31 122.79 917.04 122.8 915.77 122.79C915.687 122.785 915.603 122.785 915.52 122.79C913.64 137.457 911.667 152.123 909.6 166.79C914.449 160.243 920.585 154.756 927.631 150.664C934.677 146.573 942.484 143.964 950.574 142.998C958.665 142.032 966.867 142.728 974.678 145.045C982.489 147.362 989.745 151.249 996 156.47L980.32 183.05L1005.53 166.46C1015.06 179.075 1019.2 194.958 1017.03 210.62C1016.29 216.119 1014.78 221.486 1012.53 226.56C1007.72 237.547 999.714 246.834 989.558 253.215C979.402 259.597 967.562 262.778 955.576 262.347C943.589 261.916 932.008 257.892 922.337 250.797C912.666 243.702 905.35 233.864 901.34 222.56C901.11 224.04 900.89 225.56 900.66 227.02C898.22 242.37 895.19 261.48 884.43 277.02C877.14 287.58 867.1 295.38 857.34 302.24C850.993 306.707 844.5 310.963 837.86 315.01C830.89 321.473 822.482 326.183 813.33 328.75C802.663 334.21 791.767 339.147 780.64 343.56L773.69 346.28C767.44 348.72 761.04 351.22 754.69 353.88C755.69 353.97 756.69 354.05 757.69 354.18C770.273 355.908 781.981 361.591 791.123 370.407C800.265 379.224 806.367 390.718 808.55 403.23L766.24 426.34L808.42 424.45C806.731 433.803 802.814 442.612 797 450.13C787.462 462.476 773.482 470.612 758.036 472.805C742.589 474.998 726.897 471.074 714.3 461.87L716.4 465.78C717.8 468.36 719.18 470.93 720.52 473.48C738.85 508.22 740.18 538.22 724.27 557.97L711.27 547.52C726.76 528.3 714.47 497.75 705.77 481.25C704.45 478.75 703.09 476.25 701.77 473.69C690 451.86 676.65 427.12 682 400.79C690 361.09 733.05 344.29 767.68 330.79Z" fill="#F2F2F2"/>
<path d="M554 731.18C859.966 731.18 1108 720.659 1108 707.68C1108 694.701 859.966 684.18 554 684.18C248.034 684.18 0 694.701 0 707.68C0 720.659 248.034 731.18 554 731.18Z" fill="#3F3D56"/>
<path opacity="0.1" d="M554 731.18C859.966 731.18 1108 720.659 1108 707.68C1108 694.701 859.966 684.18 554 684.18C248.034 684.18 0 694.701 0 707.68C0 720.659 248.034 731.18 554 731.18Z" fill="black"/>
<path d="M554 718.18C859.966 718.18 1108 707.659 1108 694.68C1108 681.701 859.966 671.18 554 671.18C248.034 671.18 0 681.701 0 694.68C0 707.659 248.034 718.18 554 718.18Z" fill="#3F3D56"/>
<path d="M85.0001 686.32C82.0001 680.81 85.4001 674.06 89.2801 669.14C93.1601 664.22 97.8901 659.14 97.7901 652.85C97.6501 643.85 88.0901 638.54 80.4601 633.77C74.7988 630.227 69.576 626.028 64.9001 621.26C62.9457 619.422 61.328 617.256 60.1201 614.86C58.5401 611.34 58.5901 607.34 58.6901 603.48C59.0234 590.64 59.6568 577.813 60.5901 565" stroke="#3F3D56" stroke-width="4" stroke-miterlimit="10"/>
<path d="M46.1101 564.29C46.2181 561.941 46.9159 559.657 48.1393 557.649C49.3627 555.641 51.0722 553.973 53.1101 552.8L56.2501 559.01L56.1601 551.49C57.6575 551.044 59.2195 550.855 60.7801 550.93C63.5431 551.065 66.2042 552.016 68.4274 553.662C70.6506 555.308 72.3363 557.576 73.2717 560.18C74.207 562.783 74.3501 565.605 73.6829 568.29C73.0157 570.975 71.568 573.402 69.5227 575.264C67.4774 577.127 64.9262 578.342 62.1909 578.756C59.4557 579.17 56.6592 578.764 54.1544 577.59C51.6495 576.416 49.5487 574.526 48.117 572.159C46.6853 569.792 45.9869 567.054 46.1101 564.29V564.29Z" fill="#39A0ED"/>
<path d="M71.1399 659.29C72.5345 662.066 74.8127 664.299 77.6158 665.638C80.419 666.977 83.5878 667.345 86.6233 666.685C89.6589 666.026 92.3888 664.375 94.3832 661.993C96.3777 659.612 97.5234 656.634 97.6399 653.53C97.7397 651.59 97.4297 649.652 96.7299 647.84C95.724 645.16 93.9205 642.852 91.5625 641.228C89.2045 639.605 86.4055 638.743 83.5426 638.759C80.6797 638.776 77.8907 639.669 75.5514 641.32C73.2122 642.97 71.4351 645.298 70.4599 647.99L79.2299 655.12L69.5899 652.88C69.5845 655.11 70.1161 657.309 71.1399 659.29V659.29Z" fill="#39A0ED"/>
<path d="M78.0699 632.04C81.5671 632.305 85.0362 631.247 87.7909 629.076C90.5456 626.905 92.3853 623.78 92.946 620.318C93.5066 616.856 92.7474 613.309 90.8186 610.38C88.8898 607.451 85.9318 605.353 82.5299 604.5L82.5999 610.29L79.4199 604C75.7003 603.826 72.0639 605.137 69.3109 607.645C66.5579 610.152 64.9136 613.65 64.7399 617.37C64.5662 621.09 65.8772 624.726 68.3846 627.479C70.8919 630.232 74.3903 631.876 78.1099 632.05L78.0699 632.04Z" fill="#39A0ED"/>
<path d="M44.0001 609.37C45.8386 609.457 47.6761 609.18 49.4079 608.557C51.1396 607.933 52.7316 606.975 54.0929 605.736C55.4542 604.498 56.5582 603.003 57.3418 601.337C58.1255 599.672 58.5734 597.869 58.6601 596.03C58.7467 594.192 58.4704 592.354 57.847 590.622C57.2235 588.891 56.265 587.299 55.0263 585.937C53.7875 584.576 52.2928 583.472 50.6274 582.688C48.962 581.905 47.1586 581.457 45.3201 581.37C42.6954 581.24 40.0877 581.857 37.8001 583.15L40.2801 589.95L35.1701 585.05C32.437 587.553 30.808 591.038 30.6401 594.74C30.5723 596.034 30.6936 597.331 31.0001 598.59C31.6981 601.557 33.3453 604.215 35.6916 606.161C38.0379 608.107 40.9551 609.233 44.0001 609.37V609.37Z" fill="#39A0ED"/>
<path opacity="0.1" d="M47.9999 568.03C51.2399 568.39 54.3899 569.4 57.6399 569.6C60.8899 569.8 64.4599 569.02 66.5199 566.5C67.6299 565.13 68.1799 563.41 69.1099 561.93C70.0006 560.548 71.216 559.405 72.6499 558.6C73.4967 560.37 73.9619 562.298 74.0155 564.26C74.069 566.221 73.7096 568.172 72.9606 569.986C72.2116 571.799 71.0897 573.435 69.6678 574.787C68.2458 576.14 66.5555 577.178 64.7064 577.834C62.8574 578.491 60.891 578.752 58.9347 578.6C56.9784 578.447 55.076 577.886 53.3508 576.951C51.6256 576.016 50.1162 574.729 48.9205 573.173C47.7247 571.617 46.8694 569.828 46.4099 567.92C46.9399 567.94 47.4699 567.98 47.9999 568.03Z" fill="black"/>
<path opacity="0.1" d="M44 609.37C46.4205 609.493 48.8315 608.985 50.9969 607.897C53.1624 606.808 55.0082 605.176 56.3537 603.161C57.6992 601.145 58.4984 598.814 58.6731 596.397C58.8477 593.98 58.3918 591.558 57.35 589.37C56.236 590.122 55.2783 591.083 54.53 592.2C53.53 593.71 52.92 595.45 51.75 596.84C49.56 599.41 45.83 600.25 42.44 600.09C39.05 599.93 35.78 598.98 32.44 598.67C31.97 598.67 31.5 598.59 31.03 598.58C31.7247 601.544 33.3667 604.201 35.7071 606.148C38.0476 608.095 40.9589 609.226 44 609.37V609.37Z" fill="black"/>
<path opacity="0.1" d="M78.0701 632.04C80.4689 632.163 82.859 631.667 85.0107 630.6C87.1624 629.532 89.0032 627.929 90.3562 625.944C91.7091 623.959 92.5286 621.66 92.736 619.267C92.9433 616.874 92.5315 614.468 91.5401 612.28C90.374 613.038 89.3572 614.004 88.5401 615.13C87.4501 616.67 86.7701 618.44 85.5401 619.86C83.1801 622.5 79.2001 623.43 75.6101 623.34C72.0201 623.25 68.7901 622.41 65.3301 622.15C66.1746 624.911 67.8521 627.343 70.1328 629.114C72.4136 630.884 75.1859 631.906 78.0701 632.04V632.04Z" fill="black"/>
<path opacity="0.1" d="M71.1399 659.29C72.5345 662.066 74.8127 664.299 77.6158 665.638C80.419 666.977 83.5878 667.345 86.6233 666.685C89.6589 666.026 92.3888 664.375 94.3833 661.993C96.3777 659.612 97.5234 656.634 97.6399 653.53C97.7397 651.591 97.4297 649.652 96.7299 647.84C95.5736 648.596 94.5357 649.52 93.6499 650.58C92.3099 652.21 91.4399 654.05 89.8899 655.58C87.0199 658.4 82.3899 659.58 78.2699 659.67C75.8879 659.68 73.5073 659.553 71.1399 659.29V659.29Z" fill="black"/>
<path d="M106.19 679.98C106.19 679.98 95.1101 679.64 91.7801 677.26C88.4501 674.88 74.7801 672.04 73.9101 675.86C73.0401 679.68 57.2601 694.86 69.7701 694.92C82.2801 694.98 98.8301 692.92 102.16 690.92C105.49 688.92 106.19 679.98 106.19 679.98Z" fill="#656380"/>
<path opacity="0.2" d="M69.5401 693.59C82.0501 693.69 98.6001 691.59 101.94 689.59C104.47 688.05 105.48 682.5 105.82 679.94H106.19C106.19 679.94 105.49 688.87 102.19 690.94C98.8901 693.01 82.3001 695.02 69.8001 694.94C66.1901 694.94 64.9401 693.63 65.0101 691.72C65.4801 692.85 66.8601 693.59 69.5401 693.59Z" fill="black"/>
<path d="M1055 695.32C1052 689.81 1055.4 683.06 1059.28 678.14C1063.16 673.22 1067.89 668.14 1067.79 661.85C1067.65 652.85 1058.09 647.54 1050.46 642.77C1044.8 639.227 1039.58 635.028 1034.9 630.26C1032.95 628.422 1031.33 626.256 1030.12 623.86C1028.54 620.34 1028.59 616.34 1028.69 612.48C1029.02 599.64 1029.65 586.813 1030.59 574" stroke="#3F3D56" stroke-width="4" stroke-miterlimit="10"/>
<path d="M1016.11 573.29C1016.22 570.941 1016.92 568.657 1018.14 566.649C1019.36 564.641 1021.07 562.973 1023.11 561.8L1026.25 568.01L1026.16 560.49C1027.66 560.044 1029.22 559.855 1030.78 559.93C1033.54 560.067 1036.2 561.019 1038.42 562.667C1040.65 564.314 1042.33 566.583 1043.26 569.186C1044.2 571.79 1044.34 574.611 1043.67 577.295C1043 579.979 1041.55 582.405 1039.51 584.267C1037.46 586.129 1034.91 587.343 1032.18 587.756C1029.44 588.169 1026.65 587.763 1024.14 586.588C1021.64 585.414 1019.54 583.524 1018.11 581.158C1016.67 578.791 1015.98 576.053 1016.1 573.29H1016.11Z" fill="#39A0ED"/>
<path d="M1041.14 668.29C1042.53 671.066 1044.81 673.299 1047.62 674.638C1050.42 675.977 1053.59 676.345 1056.62 675.685C1059.66 675.026 1062.39 673.375 1064.38 670.993C1066.38 668.612 1067.52 665.634 1067.64 662.53C1067.74 660.59 1067.43 658.652 1066.73 656.84C1065.72 654.16 1063.92 651.852 1061.56 650.228C1059.2 648.605 1056.41 647.743 1053.54 647.759C1050.68 647.776 1047.89 648.669 1045.55 650.32C1043.21 651.97 1041.44 654.298 1040.46 656.99L1049.23 664.12L1039.59 661.88C1039.58 664.11 1040.12 666.309 1041.14 668.29V668.29Z" fill="#39A0ED"/>
<path d="M1048.07 641.04C1051.57 641.305 1055.04 640.247 1057.79 638.076C1060.55 635.905 1062.39 632.78 1062.95 629.318C1063.51 625.856 1062.75 622.309 1060.82 619.38C1058.89 616.451 1055.93 614.353 1052.53 613.5L1052.6 619.29L1049.42 613C1045.7 612.826 1042.06 614.137 1039.31 616.645C1036.56 619.152 1034.91 622.65 1034.74 626.37C1034.57 630.09 1035.88 633.726 1038.38 636.479C1040.89 639.232 1044.39 640.876 1048.11 641.05L1048.07 641.04Z" fill="#39A0ED"/>
<path d="M1014 618.37C1017.71 618.545 1021.34 617.238 1024.09 614.736C1026.84 612.235 1028.49 608.743 1028.66 605.03C1028.84 601.317 1027.53 597.687 1025.03 594.937C1022.52 592.188 1019.03 590.545 1015.32 590.37C1012.7 590.24 1010.09 590.857 1007.8 592.15L1010.28 598.95L1005.17 594.05C1002.44 596.553 1000.81 600.038 1000.64 603.74C1000.57 605.034 1000.69 606.331 1001 607.59C1001.7 610.557 1003.35 613.215 1005.69 615.161C1008.04 617.107 1010.96 618.233 1014 618.37V618.37Z" fill="#39A0ED"/>
<path opacity="0.1" d="M1018 577.03C1021.24 577.39 1024.39 578.4 1027.64 578.6C1030.89 578.8 1034.46 578.02 1036.52 575.5C1037.63 574.13 1038.18 572.41 1039.11 570.93C1040 569.548 1041.22 568.405 1042.65 567.6C1043.5 569.37 1043.96 571.298 1044.02 573.26C1044.07 575.221 1043.71 577.172 1042.96 578.986C1042.21 580.799 1041.09 582.435 1039.67 583.787C1038.25 585.14 1036.56 586.178 1034.71 586.834C1032.86 587.491 1030.89 587.752 1028.93 587.6C1026.98 587.447 1025.08 586.886 1023.35 585.951C1021.63 585.016 1020.12 583.729 1018.92 582.173C1017.72 580.617 1016.87 578.828 1016.41 576.92C1016.94 576.94 1017.47 576.98 1018 577.03Z" fill="black"/>
<path opacity="0.1" d="M1014 618.37C1016.42 618.493 1018.83 617.985 1021 616.897C1023.16 615.808 1025.01 614.176 1026.35 612.161C1027.7 610.145 1028.5 607.814 1028.67 605.397C1028.85 602.98 1028.39 600.558 1027.35 598.37C1026.24 599.122 1025.28 600.083 1024.53 601.2C1023.53 602.71 1022.92 604.45 1021.75 605.84C1019.56 608.41 1015.83 609.25 1012.44 609.09C1009.05 608.93 1005.78 607.98 1002.44 607.67C1001.97 607.67 1001.5 607.59 1001.03 607.58C1001.72 610.544 1003.37 613.201 1005.71 615.148C1008.05 617.095 1010.96 618.226 1014 618.37V618.37Z" fill="black"/>
<path opacity="0.1" d="M1048.07 641.04C1050.47 641.163 1052.86 640.667 1055.01 639.6C1057.16 638.532 1059 636.929 1060.36 634.944C1061.71 632.959 1062.53 630.66 1062.74 628.267C1062.94 625.874 1062.53 623.468 1061.54 621.28C1060.37 622.038 1059.36 623.004 1058.54 624.13C1057.45 625.67 1056.77 627.44 1055.54 628.86C1053.18 631.5 1049.2 632.43 1045.61 632.34C1042.02 632.25 1038.79 631.41 1035.33 631.15C1036.17 633.911 1037.85 636.343 1040.13 638.114C1042.41 639.884 1045.19 640.906 1048.07 641.04V641.04Z" fill="black"/>
<path opacity="0.1" d="M1041.14 668.29C1042.53 671.066 1044.81 673.299 1047.62 674.638C1050.42 675.977 1053.59 676.345 1056.62 675.685C1059.66 675.026 1062.39 673.375 1064.38 670.993C1066.38 668.612 1067.52 665.634 1067.64 662.53C1067.74 660.591 1067.43 658.652 1066.73 656.84C1065.57 657.596 1064.54 658.52 1063.65 659.58C1062.31 661.21 1061.44 663.05 1059.89 664.58C1057.02 667.4 1052.39 668.58 1048.27 668.67C1045.89 668.68 1043.51 668.553 1041.14 668.29V668.29Z" fill="black"/>
<path d="M1076.19 688.98C1076.19 688.98 1065.11 688.64 1061.78 686.26C1058.45 683.88 1044.78 681.04 1043.91 684.86C1043.04 688.68 1027.26 703.86 1039.77 703.92C1052.28 703.98 1068.83 701.92 1072.16 699.92C1075.49 697.92 1076.19 688.98 1076.19 688.98Z" fill="#656380"/>
<path opacity="0.2" d="M1039.54 702.59C1052.05 702.69 1068.6 700.59 1071.94 698.59C1074.47 697.05 1075.48 691.5 1075.82 688.94H1076.19C1076.19 688.94 1075.49 697.87 1072.19 699.94C1068.89 702.01 1052.3 704.02 1039.8 703.94C1036.19 703.94 1034.94 702.63 1035.01 700.72C1035.48 701.85 1036.86 702.59 1039.54 702.59Z" fill="black"/>
<path fill-rule="evenodd" clip-rule="evenodd" d="M725.57 324.85C732.29 326.783 738.957 328.883 745.57 331.15H745.6C812.72 354.26 856.1 390.45 856.1 427.88C856.1 466.91 809.74 505.07 738.5 528.67C734.733 529.917 730.88 531.12 726.94 532.28C728.36 537.927 729.603 543.463 730.67 548.89C744.73 619.93 733.9 678.33 700.57 697.62C668.31 716.31 616.13 697.95 563.31 652.5C557.57 647.547 551.973 642.44 546.52 637.18C542.15 641.36 537.83 645.36 533.52 649.13C479 696.79 423 716.59 389.63 697.33C357.33 678.7 347.17 624.34 360.17 555.88C361.597 548.427 363.223 541.033 365.05 533.7C359.41 532.08 353.81 530.327 348.25 528.44C279.72 505.02 234.61 466.39 234.61 427.88C234.61 390.59 276.63 354.59 342.42 331.7C349.78 329.13 357.47 326.72 365.42 324.46C363.693 317.64 362.163 310.78 360.83 303.88C347.18 234.21 356.79 178.54 389.18 159.79C423 140.24 479.21 161.23 535.32 211.06C538.807 214.167 542.24 217.337 545.62 220.57C550.653 215.717 555.81 210.983 561.09 206.37C614.65 159.78 667.67 140.28 700.09 158.98C733.9 178.47 743.8 237.69 728.66 311.2C727.707 315.773 726.677 320.323 725.57 324.85ZM719.68 506.74C723.24 505.68 726.72 504.6 730.12 503.47C791.63 483.09 829.52 451.88 829.52 427.88C829.52 405.32 794.44 376.05 736.93 356.26C730.99 354.21 724.81 352.27 718.46 350.43C710.118 376.936 700.012 402.853 688.21 428.01C700.48 453.506 710.994 479.811 719.68 506.74ZM707.6 636.05C711.7 613.86 710.82 585.46 704.6 554.05L704.62 553.97C703.64 549.09 702.517 544.09 701.25 538.97C673.524 545.227 645.401 549.57 617.08 551.97C601.225 575.164 583.822 597.261 564.99 618.11C570.23 623.15 575.44 627.9 580.62 632.36C625.79 671.23 667.67 685.96 687.26 674.63C696.46 669.3 703.9 656 707.6 636.05ZM402.89 674.33C412.1 679.64 427.34 679.45 446.48 672.69C467.77 665.14 491.94 650.22 516.05 629.14C520.083 625.607 524.03 621.97 527.89 618.23C508.681 597.457 490.859 575.443 474.54 552.33C446.382 550.181 418.401 546.128 390.79 540.2C389.103 547.04 387.593 553.917 386.26 560.83C375.14 619.33 383.29 663.02 402.89 674.33ZM284.35 464.82C301.51 479.5 326.53 492.96 356.84 503.32C361.907 505.047 367.02 506.647 372.18 508.12C380.636 480.94 390.878 454.349 402.84 428.52C391.025 403.056 380.907 376.839 372.55 350.04C365.357 352.067 358.227 354.31 351.16 356.77C294.9 376.38 261.16 405.25 261.16 427.88C261.16 438.51 268.94 451.62 284.35 464.82ZM402.48 182.78C382.96 194.06 375.21 239.09 386.89 298.78V298.79C388.143 305.21 389.567 311.593 391.16 317.94C418.496 311.857 446.197 307.551 474.09 305.05C490.266 282.064 507.948 260.176 527.02 239.53C523.91 236.56 520.8 233.68 517.7 230.93C469.24 187.9 423.27 170.78 402.48 182.78ZM636.11 333.89C642.63 344.117 648.927 354.477 655 364.97C661.18 375.63 667.14 386.41 672.88 397.31C680.406 379.82 687.045 361.96 692.77 343.8C674.93 339.72 655.94 336.4 636.11 333.89ZM582.21 302.64C570.769 287.322 558.563 272.59 545.64 258.5V258.51C533.2 271.92 520.83 286.72 508.76 302.64C533.253 301.487 557.737 301.487 582.21 302.64ZM418.09 397.29C423.69 386.443 429.54 375.73 435.64 365.15H435.62C441.72 354.57 448.077 344.133 454.69 333.84C434.99 336.31 416.08 339.52 398.35 343.52C403.75 360.93 410.36 378.96 418.09 397.29ZM455.228 523.798C455.236 523.798 455.243 523.799 455.25 523.8H455.23C455.229 523.799 455.229 523.798 455.228 523.798ZM455.228 523.798C448.476 513.318 441.986 502.683 435.76 491.89C429.64 481.31 423.77 470.59 418.15 459.73C410.25 478.46 403.49 496.88 398 514.59C416.906 518.637 436.007 521.71 455.228 523.798ZM546.38 599.119C546.383 599.123 546.387 599.126 546.39 599.13H546.37C546.373 599.126 546.376 599.123 546.38 599.119ZM509 554.38C521.237 570.586 533.783 585.582 546.38 599.119C559.303 584.797 571.482 569.821 582.87 554.25C570.53 554.81 558.027 555.09 545.36 555.09C533.02 555.09 520.9 554.853 509 554.38ZM694 513.44C687.979 494.869 680.997 476.625 673.08 458.78C667.333 469.887 661.333 480.86 655.08 491.7C648.927 502.367 642.567 512.91 636 523.33C655.493 521.049 674.853 517.748 694 513.44ZM602.27 526.54C612.73 510.82 622.667 494.787 632.08 478.44L632.11 478.4C641.617 461.947 650.52 445.18 658.82 428.1C650.42 411.147 641.49 394.523 632.03 378.23C622.57 361.937 612.57 346 602.03 330.42C583.56 329.02 564.5 328.28 545.34 328.28C526.18 328.28 507.24 329.01 488.75 330.41C478.09 346.037 468.047 362.037 458.62 378.41C449.18 394.79 440.37 411.49 432.19 428.51C440.33 445.45 449.167 462.143 458.7 478.59C468.233 495.037 478.363 511.093 489.09 526.76C507.21 527.94 525.94 528.54 545.36 528.54C564.78 528.54 583.83 527.86 602.27 526.54ZM702.68 305.85C715.75 242.38 707.66 193.98 686.85 181.98C667.31 170.71 624.43 186.47 578.55 226.4C573.69 230.647 568.927 235.017 564.26 239.51C583.22 260.161 600.77 282.064 616.79 305.07C644.746 307.607 672.504 311.994 699.88 318.2C700.887 314.093 701.82 309.977 702.68 305.85Z" fill="#53C1DE"/>
<path d="M545.34 372.38C556.317 372.38 567.047 375.635 576.174 381.733C585.301 387.832 592.415 396.5 596.615 406.641C600.816 416.782 601.915 427.941 599.774 438.707C597.632 449.473 592.346 459.362 584.584 467.124C576.823 474.886 566.934 480.172 556.168 482.313C545.402 484.455 534.242 483.356 524.101 479.155C513.96 474.955 505.292 467.841 499.193 458.714C493.095 449.587 489.84 438.857 489.84 427.88C489.839 420.591 491.273 413.374 494.062 406.639C496.851 399.905 500.939 393.786 506.093 388.633C511.247 383.479 517.365 379.391 524.1 376.602C530.834 373.813 538.051 372.379 545.34 372.38" fill="#53C1DE"/>
<path d="M559.26 20.4C559.26 23.6832 558.286 26.8926 556.462 29.6225C554.638 32.3523 552.046 34.48 549.013 35.7364C545.979 36.9928 542.642 37.3215 539.422 36.681C536.201 36.0405 533.244 34.4595 530.922 32.138C528.601 29.8164 527.02 26.8586 526.379 23.6385C525.739 20.4184 526.067 17.0807 527.324 14.0475C528.58 11.0142 530.708 8.42164 533.438 6.59761C536.167 4.77358 539.377 3.8 542.66 3.8C544.843 3.7894 547.006 4.21154 549.025 5.04202C551.044 5.87249 552.878 7.09483 554.422 8.6384C555.965 10.182 557.188 12.0161 558.018 14.0349C558.849 16.0537 559.271 18.2171 559.26 20.4V20.4Z" fill="#3F3D56"/>
<path d="M529.4 24.59C528.084 22.2121 527.371 19.5479 527.324 16.8306C527.277 14.1134 527.897 11.4261 529.13 9.00408C530.363 6.58209 532.171 4.49934 534.395 2.93828C536.62 1.37722 539.193 0.38549 541.89 0.0499655C539.603 -0.030126 537.324 0.363509 535.197 1.20615C533.069 2.0488 531.138 3.32225 529.526 4.94654C527.914 6.57083 526.656 8.51087 525.829 10.6448C525.003 12.7788 524.627 15.0606 524.724 17.3469C524.822 19.6333 525.391 21.8747 526.396 23.9306C527.401 25.9865 528.82 27.8123 530.565 29.2935C532.309 30.7747 534.341 31.8792 536.532 32.5377C538.724 33.1962 541.028 33.3944 543.3 33.12C540.445 33.0145 537.665 32.174 535.23 30.6796C532.795 29.1853 530.787 27.0878 529.4 24.59V24.59Z" fill="#3F3D56"/>
<path d="M566.38 43.52H521.91V112.89H566.38V43.52Z" fill="#3F3D56"/>
<path opacity="0.1" d="M566.38 43.52H521.91V112.89H566.38V43.52Z" fill="black"/>
<path d="M451.66 295.2C451.66 295.2 446.91 308.25 435.66 310.03C424.41 311.81 417.87 314.77 417.87 314.77L444.55 331.96L458.78 330.18C458.78 330.18 460.56 311.8 466.49 307.65C472.42 303.5 451.66 295.2 451.66 295.2Z" fill="#A0616A"/>
<path d="M644.34 295.2C644.34 295.2 649.09 308.25 660.34 310.03C671.59 311.81 678.13 314.77 678.13 314.77L651.45 331.96L637.22 330.18C637.22 330.18 635.44 311.8 629.51 307.65C623.58 303.5 644.34 295.2 644.34 295.2Z" fill="#A0616A"/>
<path d="M514.5 180.18C514.5 180.18 507.39 183.74 505.02 190.86C505.02 190.86 492.02 195.01 484.86 206.27C484.86 206.27 475.96 215.76 474.78 220.5C473.6 225.24 460 253.7 460 253.7C460 253.7 446.36 298.17 439.25 302.91C439.25 302.91 461.78 298.17 465.93 320.7C465.93 320.7 471.26 320.7 477.19 299.95C483.12 279.2 497.35 253.7 497.35 253.7C497.35 253.7 502.09 235.92 506.24 232.95C510.39 229.98 516.91 216.35 522.84 219.95C528.77 223.55 567.9 219.35 567.9 219.35C567.9 219.35 591 229.99 591.58 237.1C592.16 244.21 596.32 244.81 596.91 250.74C597.5 256.67 619.44 303.5 619.44 303.5C619.44 303.5 623.59 316.5 624.78 319.5C624.78 319.5 637.78 288.08 655.02 305.87C655.02 305.87 654.42 294.01 649.09 286.87C643.76 279.73 620.63 224.03 620.63 224.03C620.63 224.03 618.26 215.73 615.89 213.36C613.52 210.99 595.13 192.01 588.61 192.01C588.61 192.01 585.06 183.12 580.91 181.93L514.5 180.18Z" fill="#3F3D56"/>
<path d="M461.14 326.03C456.509 327.889 451.476 328.517 446.531 327.853C441.585 327.189 436.896 325.255 432.92 322.24C429.056 319.273 424.824 316.819 420.33 314.94C414.04 312.4 406.52 310.52 404.23 314.77C400.08 322.48 454.62 341.45 454.62 341.45C454.62 341.45 461.74 337.3 461.14 326.03Z" fill="#3F3D56"/>
<path d="M634.86 326.03C639.491 327.889 644.524 328.517 649.469 327.853C654.415 327.189 659.104 325.255 663.08 322.24C666.944 319.273 671.176 316.819 675.67 314.94C681.96 312.4 689.48 310.52 691.77 314.77C695.92 322.48 641.38 341.45 641.38 341.45C641.38 341.45 634.26 337.3 634.86 326.03Z" fill="#3F3D56"/>
<path d="M533.88 82.67C533.66 84.73 532.98 86.96 531.22 88.05C529.78 88.95 527.96 88.88 526.3 89.22C524.557 89.6564 522.941 90.4966 521.583 91.6726C520.224 92.8486 519.162 94.3275 518.48 95.99C517.149 99.3453 516.887 103.03 517.73 106.54C518.122 108.259 518.63 109.949 519.25 111.6C520.99 116.52 523.09 121.4 526.34 125.49C529.113 128.742 532.232 131.682 535.64 134.26C537.75 135.98 539.93 137.73 542.53 138.54C544.293 139.005 546.107 139.247 547.93 139.26C550.18 139.36 552.58 139.43 554.53 138.31C557.53 136.58 558.42 132.76 560.05 129.69C561.43 127.09 563.49 124.88 564.78 122.23C565.697 120.141 566.368 117.953 566.78 115.71L569.55 103.41C570.55 98.94 571.47 93.9 568.96 90.07C568.778 89.7584 568.524 89.4945 568.22 89.3C567.737 89.1096 567.211 89.0577 566.7 89.15C563.512 89.3573 560.332 88.631 557.55 87.06C557.114 86.8345 556.724 86.5292 556.4 86.16C556.001 85.5195 555.761 84.7925 555.7 84.04C555.43 82.5161 555.001 81.0247 554.42 79.59C554.257 79.0729 553.956 78.6098 553.55 78.25C553.124 77.9831 552.641 77.822 552.14 77.78C547.859 77.0854 543.542 76.6347 539.21 76.43C537.79 76.36 535.65 75.79 534.67 77.05C533.69 78.31 534 81.17 533.88 82.67Z" fill="#A0616A"/>
<path opacity="0.1" d="M533.88 82.67C533.66 84.73 532.98 86.96 531.22 88.05C529.78 88.95 527.96 88.88 526.3 89.22C524.557 89.6564 522.941 90.4966 521.583 91.6726C520.224 92.8486 519.162 94.3275 518.48 95.99C517.149 99.3453 516.887 103.03 517.73 106.54C518.122 108.259 518.63 109.949 519.25 111.6C520.99 116.52 523.09 121.4 526.34 125.49C529.113 128.742 532.232 131.682 535.64 134.26C537.75 135.98 539.93 137.73 542.53 138.54C544.293 139.005 546.107 139.247 547.93 139.26C550.18 139.36 552.58 139.43 554.53 138.31C557.53 136.58 558.42 132.76 560.05 129.69C561.43 127.09 563.49 124.88 564.78 122.23C565.697 120.141 566.368 117.953 566.78 115.71L569.55 103.41C570.55 98.94 571.47 93.9 568.96 90.07C568.778 89.7584 568.524 89.4945 568.22 89.3C567.737 89.1096 567.211 89.0577 566.7 89.15C563.512 89.3573 560.332 88.631 557.55 87.06C557.114 86.8345 556.724 86.5292 556.4 86.16C556.001 85.5195 555.761 84.7925 555.7 84.04C555.43 82.5161 555.001 81.0247 554.42 79.59C554.257 79.0729 553.956 78.6098 553.55 78.25C553.124 77.9831 552.641 77.822 552.14 77.78C547.859 77.0854 543.542 76.6347 539.21 76.43C537.79 76.36 535.65 75.79 534.67 77.05C533.69 78.31 534 81.17 533.88 82.67Z" fill="black"/>
<path d="M525.85 89.7399C523.534 89.0484 521.136 88.6717 518.72 88.6199C513 88.4799 506.88 90.4499 503.58 95.1199C501.332 98.4908 500.509 102.614 501.29 106.59C502.086 110.528 503.876 114.198 506.49 117.25C508 118.854 509.341 120.61 510.49 122.49C512.07 125.49 512.12 129.08 512.55 132.49C513.55 140.61 517.01 148.24 518.38 156.31C519.75 164.38 518.57 173.73 512.2 178.86C511.13 179.72 509.83 180.63 509.74 182C509.6 184.19 512.45 185.12 514.64 185.33C521.19 185.95 527.91 186.56 534.27 184.87C536.9 184.17 539.44 183.08 542.12 182.58C548.92 181.31 555.76 183.92 562.57 185.17C567.498 185.984 572.485 186.388 577.48 186.38C578.643 186.484 579.814 186.33 580.91 185.93C581.453 185.717 581.915 185.337 582.227 184.844C582.54 184.351 582.688 183.772 582.65 183.19C582.428 182.436 582.022 181.749 581.47 181.19C578.03 176.94 576.98 171.29 576.04 165.9L572.89 147.79C571.2 138.11 569.63 127.59 574.21 118.9C577.5 112.65 583.57 108.25 587.04 102.1C588.25 100.241 588.796 98.0281 588.59 95.8199C588.07 92.7299 585.28 90.5199 582.42 89.2299C576.917 86.7614 570.669 86.5318 565 88.5899C565.1 92.9199 564 97.2999 563.29 101.59L562.08 108.59C561.464 112.715 560.559 116.792 559.37 120.79C558.938 122.389 558.202 123.89 557.2 125.21C556.132 126.397 554.828 127.348 553.37 128C550.214 129.543 546.743 130.337 543.23 130.32C541.708 130.343 540.194 130.11 538.75 129.63C536.424 128.61 534.326 127.134 532.58 125.29C531.968 124.767 531.421 124.173 530.95 123.52C530.452 122.689 530.078 121.789 529.84 120.85C529.03 118.404 528.392 115.905 527.93 113.37C527.63 111.43 527.53 109.46 527.39 107.5C527 101.71 527 95.3099 525.85 89.7399Z" fill="#39A0ED"/>
<path d="M542.7 234.134C515.321 234.134 490.445 237.438 472.028 242.822V288.813C490.445 294.197 515.321 297.501 542.7 297.501C574.037 297.501 602.092 293.173 620.936 286.352V245.284C602.092 238.462 574.037 234.134 542.7 234.134Z" fill="#A52B00"/>
<path d="M649.159 271.503L645.95 264.829C645.967 264.576 645.98 264.322 645.98 264.068C645.98 256.503 638.142 249.53 624.955 243.948V284.187C631.108 281.583 636.1 278.676 639.67 275.546C638.619 279.786 635.026 288.365 632.161 294.397C627.452 303.026 625.747 310.537 625.966 310.909C626.105 311.143 627.711 308.655 630.08 304.625C635.593 296.741 646.038 281.691 648.126 277.857C650.491 273.511 649.159 271.503 649.159 271.503Z" fill="#A52B00"/>
<path d="M441.464 264.509C441.464 265.966 441.756 267.401 442.319 268.808L440.397 272.242C440.397 272.242 438.857 274.247 441.569 278.478C443.96 282.207 455.94 296.807 462.262 304.453C464.978 308.373 466.819 310.787 466.981 310.554C467.234 310.184 465.292 302.825 459.899 294.429C457.382 289.919 454.376 283.945 452.572 279.532C457.609 282.732 464.199 285.634 472.028 288.132V240.886C453.161 246.904 441.464 255.265 441.464 264.509Z" fill="#A52B00"/>
<path d="M539.276 164.167L532.999 174.681C531.979 174.77 530.96 174.86 529.94 174.95L521.79 165.879C521.022 164.916 519.788 164.51 518.613 164.785C517.439 165.06 516.493 166.002 516.072 167.07L511.953 178.767C510.948 179.027 509.943 179.287 509.124 179.703L499.408 172.316C498.499 171.709 497.11 171.487 496.12 171.918C494.975 172.534 494.2 173.461 493.963 174.684L491.957 187.054C491.137 187.47 490.332 188.056 489.342 188.486L478.629 183.419C477.55 182.827 476.191 182.947 475.231 183.719C474.256 184.32 473.68 185.572 473.614 186.78L474.015 199.282C473.38 199.853 472.59 200.609 471.785 201.195L460.245 198.434C459.011 198.027 457.851 198.473 456.906 199.415C456.116 200.171 455.724 201.58 455.998 202.758L458.763 214.879C458.143 215.621 457.523 216.362 456.917 217.274L444.89 216.788C443.686 216.722 442.541 217.338 441.95 218.421C441.36 219.503 441.138 220.896 441.752 222.044L446.667 233.29C446.061 234.202 445.626 235.099 445.19 235.996L433.555 238.051C432.196 238.17 431.25 239.112 430.83 240.18C430.424 241.418 430.542 242.781 431.141 243.759L438.176 253.787C438.021 253.972 438.035 254.143 438.05 254.313L418.301 275.287C418.301 275.287 415.42 277.601 419.676 283.237C423.519 288.051 443.351 307.427 453.828 317.667C458.21 322.777 461.225 325.946 461.55 325.745C462.015 325.189 459.487 315.795 450.834 304.879C444.153 294.992 435.47 279.785 437.376 278.072C437.376 278.072 439.687 275.12 444.466 272.982C444.282 272.827 444.282 272.827 444.466 272.982C444.466 272.982 542.751 318.422 633.881 273.644C644.326 271.694 650.636 277.321 650.636 277.321C652.808 278.675 647.145 294.286 642.567 304.65C636.224 316.372 635.31 325.554 635.849 325.85C636.204 325.99 638.471 322.528 641.75 316.915C649.852 305.726 664.94 284.304 667.738 279.077C670.988 273.124 667.751 271.348 667.751 271.348L646.716 255.856C646.487 255.189 646.258 254.522 646.184 253.67L653.015 243.623C653.79 242.696 653.842 241.318 653.398 240.155C652.955 238.991 652.031 238.214 650.812 237.978L638.992 235.928C638.578 235.106 638.149 234.113 637.736 233.291L642.564 221.875C643.155 220.792 643.037 219.429 642.253 218.295C641.655 217.318 640.576 216.726 639.387 216.831L627.434 217.196C626.85 216.389 626.097 215.597 625.513 214.79L628.229 202.701C628.465 201.478 628.177 200.129 627.423 199.337C626.484 198.389 625.251 197.983 624.076 198.258L612.515 201.165C611.776 200.543 611.038 199.922 610.284 199.129L610.577 186.739C610.643 185.531 610.03 184.383 609.106 183.605C608.013 182.843 606.808 182.777 605.663 183.393L594.975 188.456C594.081 188.02 593.172 187.413 592.278 186.976L590.362 174.78C590.244 173.417 589.305 172.469 588.241 172.048C587.163 171.456 585.803 171.575 584.843 172.347L575.197 179.551C574.318 179.285 573.438 179.019 572.389 178.768L568.294 167.107C567.851 165.944 566.912 164.996 565.693 164.76C564.474 164.524 563.315 164.969 562.369 165.911L554.26 175.041C553.395 174.945 552.346 174.694 551.312 174.613L545.097 164.17C544.484 163.022 543.405 162.43 542.201 162.364C540.997 162.298 539.867 163.085 539.276 164.167Z" fill="url(#paint0_linear_105_4007)"/>
<path d="M509.499 300.66C509.124 300.338 508.927 300.148 508.927 300.148L541.117 297.501C514.859 262.732 493.822 290.429 491.583 293.526V300.66H509.499Z" fill="black"/>
<path d="M576.525 300.286C576.9 299.964 577.097 299.773 577.097 299.773L546.162 297.501C572.433 261.305 592.202 290.054 594.441 293.151V300.286H576.525Z" fill="black"/>
<path d="M625.967 265.767C625.967 265.767 622.467 279.819 600.561 294.598L594.466 296.051C594.466 296.051 574.613 259.711 546.492 300.654C546.492 300.654 555.242 295.567 578.716 301.805C578.716 301.805 567.914 318.401 546.19 317.856C546.19 317.856 567.009 342.991 598.751 306.711C598.751 306.711 632.303 293.689 635.018 265.767L625.967 265.767Z" fill="url(#paint1_linear_105_4007)"/>
<path d="M560.778 247.754C560.778 247.754 570.599 236.961 580.42 247.754C580.42 247.754 588.136 262.145 580.42 269.34C580.42 269.34 567.793 279.414 560.778 269.34C560.778 269.34 552.36 261.424 560.778 247.754Z" fill="black"/>
<path d="M572.148 251.757C572.148 255.96 569.679 259.367 566.635 259.367C563.592 259.367 561.124 255.96 561.124 251.757C561.124 247.555 563.592 244.147 566.635 244.147C569.679 244.147 572.148 247.555 572.148 251.757Z" fill="white"/>
<path d="M516.945 244.807C516.945 244.807 533.792 237.32 538.39 254.03C538.39 254.03 543.206 273.506 524.555 274.606C524.555 274.606 500.773 270.008 516.945 244.807Z" fill="black"/>
<path d="M525.406 252.033C525.406 256.367 522.861 259.882 519.722 259.882C516.583 259.882 514.037 256.367 514.037 252.033C514.037 247.699 516.583 244.185 519.722 244.185C522.861 244.185 525.406 247.699 525.406 252.033Z" fill="white"/>
<path d="M491.658 308.981C522.426 348.585 537.001 316.782 537.001 316.782C519.727 314.832 507.474 303.292 507.474 303.292C528.202 300.637 540.185 300.421 540.185 300.421C512.44 263.688 489.931 296.953 489.931 296.953C484.317 294.895 478.541 287.039 474.277 279.779L457.058 274.686C476.868 308.493 491.658 308.981 491.658 308.981Z" fill="url(#paint2_linear_105_4007)"/>
<path d="M519.84 204.49C519.84 204.49 517.47 235.92 532.29 241.25C547.11 246.58 534.07 215.16 534.07 215.16L529.32 205.68L519.84 204.49Z" fill="#A0616A"/>
<path d="M570.23 204.49C570.23 204.49 572.6 235.92 557.78 241.25C542.96 246.58 556 215.16 556 215.16L560.75 205.68L570.23 204.49Z" fill="#A0616A"/>
<path opacity="0.1" d="M506.79 99.59L502.05 107.3C502.05 107.3 506.2 133.98 506.79 138.72C507.302 142.14 508.098 145.512 509.17 148.8C509.17 148.8 509.76 163.03 509.76 168.37C509.76 173.71 512.76 182.6 512.76 182.6C513.178 187.64 514.185 192.614 515.76 197.42C518.13 203.94 520.5 211.65 520.5 211.65C520.5 211.65 523.5 203.35 535.32 215.8C536.644 214.457 537.386 212.646 537.386 210.76C537.386 208.874 536.644 207.063 535.32 205.72C535.32 205.72 531.77 189.72 531.77 181.41C531.77 173.1 525.24 133.41 525.24 133.41C525.24 133.41 521 88.29 506.79 99.59Z" fill="black"/>
<path d="M505.61 98.96L500.87 106.67C500.87 106.67 505.02 133.35 505.61 138.09C506.123 141.511 506.923 144.883 508 148.17C508 148.17 508.59 162.4 508.59 167.73C508.59 173.06 511.59 181.96 511.59 181.96C512.006 187.001 513.013 191.975 514.59 196.78C516.96 203.31 519.34 211.01 519.34 211.01C519.34 211.01 522.34 202.71 534.16 215.16C535.481 213.817 536.221 212.009 536.221 210.125C536.221 208.241 535.481 206.433 534.16 205.09C534.16 205.09 530.6 189.09 530.6 180.78C530.6 172.47 524.08 132.78 524.08 132.78C524.08 132.78 519.84 87.69 505.61 98.96Z" fill="#39A0ED"/>
<path opacity="0.1" d="M583.87 94.81L586.87 98.34C586.87 98.34 590.36 118.52 582.65 144.02L580.28 167.14C580.28 167.14 576.13 186.71 575.54 191.45C574.95 196.19 574.95 196.78 573.76 198.56C573.399 198.976 573.2 199.509 573.2 200.06C573.2 200.611 573.399 201.144 573.76 201.56L570.2 214.56C570.2 214.56 564.87 208.04 554.2 216.34C554.2 216.34 551.2 211.6 553.6 207.45C556 203.3 555.97 201.52 555.38 200.33C554.79 199.14 557.75 193.22 557.75 192.03C557.75 190.84 561.93 163.59 561.93 163.59C561.93 163.59 563.71 136.91 565.49 128.02C566.58 122.55 566.56 110.36 566.37 101.78C566.18 92.84 577 88 583.37 94.28C583.52 94.44 583.7 94.59 583.87 94.81Z" fill="black"/>
<path d="M585.65 93.59L588.65 97.12C588.65 97.12 592.14 117.31 584.43 142.8L582.06 165.92C582.06 165.92 577.91 185.49 577.32 190.23C576.73 194.97 576.72 195.57 575.54 197.35C575.177 197.765 574.977 198.298 574.977 198.85C574.977 199.402 575.177 199.935 575.54 200.35L572 213.39C572 213.39 566.67 206.86 556 215.16C556 215.16 553 210.42 555.41 206.27C557.82 202.12 557.78 200.34 557.19 199.16C556.6 197.98 559.56 192.04 559.56 190.86C559.56 189.68 563.71 162.4 563.71 162.4C563.71 162.4 565.49 135.72 567.27 126.82C569.05 117.92 567.86 91.25 567.86 91.25C567.86 91.25 577.35 84.73 585.65 93.59Z" fill="#39A0ED"/>
<path d="M545.92 85.33C559.02 85.33 569.64 74.7102 569.64 61.61C569.64 48.5098 559.02 37.89 545.92 37.89C532.82 37.89 522.2 48.5098 522.2 61.61C522.2 74.7102 532.82 85.33 545.92 85.33Z" fill="#A0616A"/>
<path opacity="0.1" d="M558.29 26C557.15 29.1828 555.065 31.9415 552.314 33.9072C549.563 35.8728 546.278 36.9518 542.898 36.9996C539.517 37.0474 536.202 36.0619 533.397 34.1749C530.592 32.2878 528.43 29.5892 527.2 26.44C536.46 22.71 545.92 26.03 545.92 26.03C550.65 24.37 554.75 24.52 558.29 26Z" fill="black"/>
<path d="M545.92 27.22C545.92 27.22 500.27 11.22 511.54 88.88C511.54 88.88 521.62 95.4 529.32 91.25C529.32 91.25 523.99 37.3 544.74 39.67C565.49 42.04 561.93 90.07 561.93 90.07C561.93 90.07 573.79 93.62 577.35 87.07C580.91 80.52 576.16 16.59 545.92 27.22Z" fill="#3F3D56"/>
<path opacity="0.1" d="M544.74 36.11C530.5 34.49 528.54 59.38 528.74 75.16C528.91 59.47 531.55 38.16 544.74 39.67C559.55 41.36 561.98 66.33 562.15 80.47C562.32 67.49 560.9 37.96 544.74 36.11Z" fill="black"/>
<path opacity="0.1" d="M511.54 85.32C510.508 78.522 509.916 71.6644 509.77 64.79C509.72 72.8543 510.312 80.9096 511.54 88.88C511.54 88.88 521.62 95.4 529.32 91.25C529.32 91.25 529.2 89.97 529.06 87.82C521.39 91.69 511.54 85.32 511.54 85.32Z" fill="black"/>
<path opacity="0.1" d="M577.35 83.59C574.03 89.67 563.52 87 562.1 86.59C562.03 88.79 561.93 90.11 561.93 90.11C561.93 90.11 573.79 93.66 577.35 87.11C578.08 85.77 578.46 81.98 578.35 76.91C578.25 80.16 577.9 82.59 577.35 83.59Z" fill="black"/>
<path d="M826.73 672.96C831.47 664.18 826.09 653.42 819.91 645.59C813.73 637.76 806.18 629.59 806.34 619.59C806.57 605.24 821.79 596.78 833.96 589.17C842.981 583.529 851.302 576.839 858.75 569.24C861.75 566.19 864.62 562.93 866.37 559.03C868.89 553.43 868.82 547.03 868.66 540.91C868.133 520.437 867.133 499.99 865.66 479.57" stroke="#3F3D56" stroke-width="4" stroke-miterlimit="10"/>
<path d="M888.74 478.49C888.569 474.745 887.457 471.103 885.506 467.901C883.556 464.699 880.83 462.04 877.58 460.17L872.58 470.07L872.73 458.07C868.182 456.725 863.323 456.86 858.857 458.456C854.39 460.052 850.546 463.026 847.881 466.95C845.215 470.873 843.866 475.542 844.027 480.283C844.189 485.023 845.853 489.589 848.779 493.322C851.705 497.055 855.742 499.761 860.307 501.05C864.872 502.338 869.728 502.143 874.175 500.491C878.621 498.839 882.427 495.817 885.043 491.86C887.66 487.904 888.951 483.218 888.73 478.48L888.74 478.49Z" fill="#39A0ED"/>
<path d="M848.86 629.88C846.514 634.442 842.67 638.059 837.974 640.124C833.278 642.188 828.014 642.575 823.066 641.22C818.118 639.864 813.787 636.848 810.799 632.677C807.811 628.507 806.348 623.436 806.655 618.315C806.963 613.194 809.022 608.335 812.487 604.552C815.952 600.768 820.613 598.292 825.687 597.538C830.761 596.783 835.941 597.797 840.357 600.408C844.773 603.019 848.156 607.07 849.94 611.88L835.94 623.25L851.31 619.68C851.318 623.227 850.478 626.724 848.86 629.88V629.88Z" fill="#39A0ED"/>
<path d="M837.81 586.45C832.338 586.682 826.97 584.898 822.726 581.437C818.481 577.975 815.653 573.077 814.779 567.67C813.905 562.263 815.045 556.723 817.983 552.1C820.921 547.478 825.453 544.094 830.72 542.59L830.6 551.81L835.66 541.81H835.72C838.667 541.651 841.616 542.076 844.398 543.062C847.179 544.048 849.739 545.574 851.928 547.554C854.117 549.533 855.893 551.926 857.153 554.594C858.413 557.263 859.133 560.154 859.271 563.102C859.409 566.05 858.962 568.996 857.956 571.771C856.951 574.546 855.406 577.094 853.411 579.268C851.416 581.443 849.011 583.202 846.333 584.443C843.655 585.684 840.759 586.383 837.81 586.5V586.45Z" fill="#39A0ED"/>
<path d="M892.11 550.32C888.651 550.482 885.201 549.838 882.032 548.44C878.863 547.042 876.063 544.927 873.851 542.262C871.639 539.597 870.076 536.455 869.285 533.083C868.494 529.711 868.497 526.201 869.293 522.831C870.09 519.46 871.658 516.321 873.874 513.659C876.09 510.998 878.894 508.887 882.065 507.494C885.236 506.101 888.687 505.463 892.146 505.631C895.606 505.798 898.979 506.767 902 508.46L898 519.29L906.13 511.49C909.385 514.476 911.683 518.358 912.735 522.648C913.787 526.938 913.545 531.443 912.04 535.596C910.535 539.748 907.835 543.363 904.279 545.983C900.724 548.603 896.472 550.112 892.06 550.32H892.11Z" fill="#39A0ED"/>
<path opacity="0.1" d="M885.74 484.45C880.57 485.02 875.55 486.63 870.37 486.95C865.19 487.27 859.5 486.03 856.23 481.95C854.46 479.78 853.58 477.04 852.09 474.67C850.675 472.47 848.742 470.65 846.46 469.37C845.017 472.206 844.197 475.317 844.052 478.495C843.907 481.673 844.442 484.846 845.621 487.801C846.8 490.756 848.596 493.426 850.888 495.632C853.181 497.838 855.918 499.529 858.916 500.593C861.914 501.658 865.105 502.07 868.276 501.803C871.446 501.536 874.523 500.596 877.301 499.045C880.079 497.495 882.495 495.369 884.386 492.811C886.278 490.253 887.602 487.321 888.27 484.21C887.42 484.3 886.58 484.36 885.74 484.45Z" fill="black"/>
<path opacity="0.1" d="M892.11 550.32C888.255 550.497 884.42 549.674 880.976 547.932C877.532 546.19 874.598 543.587 872.457 540.376C870.315 537.165 869.04 533.456 868.755 529.607C868.47 525.758 869.185 521.901 870.83 518.41C872.611 519.604 874.14 521.137 875.33 522.92C876.92 525.32 877.89 528.1 879.76 530.31C883.24 534.4 889.2 535.74 894.6 535.5C900 535.26 905.2 533.72 910.6 533.22C911.35 533.16 912.1 533.11 912.86 533.09C911.747 537.829 909.118 542.074 905.374 545.184C901.629 548.293 896.972 550.097 892.11 550.32Z" fill="black"/>
<path opacity="0.1" d="M837.81 586.45C833.993 586.628 830.194 585.826 826.775 584.12C823.356 582.413 820.432 579.86 818.28 576.702C816.128 573.545 814.821 569.888 814.483 566.082C814.145 562.276 814.788 558.447 816.35 554.96C818.195 556.171 819.798 557.714 821.08 559.51C822.82 561.96 823.9 564.78 825.94 567.05C829.71 571.25 836.05 572.73 841.77 572.59C847.31 572.47 852.64 571.11 858.15 570.69C856.795 575.092 854.115 578.968 850.474 581.789C846.833 584.61 842.411 586.238 837.81 586.45V586.45Z" fill="black"/>
<path opacity="0.1" d="M848.86 629.88C846.268 635.02 841.794 638.963 836.368 640.889C830.943 642.814 824.984 642.574 819.732 640.218C814.479 637.863 810.337 633.572 808.166 628.24C805.996 622.908 805.965 616.944 808.08 611.59C809.925 612.799 811.579 614.275 812.99 615.97C815.12 618.56 816.52 621.5 818.99 623.91C823.56 628.4 830.94 630.25 837.51 630.42C841.301 630.462 845.09 630.281 848.86 629.88V629.88Z" fill="black"/>
<path d="M793 662.85C793 662.85 810.65 662.31 816 658.52C821.35 654.73 843.16 650.21 844.48 656.28C845.8 662.35 871.01 686.5 851.08 686.66C831.15 686.82 804.77 683.56 799.46 680.32C794.15 677.08 793 662.85 793 662.85Z" fill="#656380"/>
<path opacity="0.2" d="M851.4 684.59C831.47 684.75 805.09 681.48 799.78 678.25C795.78 675.78 794.13 666.95 793.59 662.87H793C793 662.87 794.12 677.11 799.43 680.34C804.74 683.57 831.12 686.84 851.05 686.68C856.8 686.68 858.79 684.59 858.68 681.56C857.88 683.37 855.69 684.51 851.4 684.59Z" fill="black"/>
<path d="M323 42.8599L304.75 54.4299L315.83 34.2799C312.703 31.78 308.833 30.3936 304.83 30.3399H304.53C303.264 30.3577 301.999 30.264 300.75 30.0599L294.56 33.9799L297.21 29.1599C292.83 27.6293 289.043 24.7564 286.39 20.9499L275.32 27.9499L282.32 15.2299C275.84 7.45994 267.12 2.68994 257.51 2.68994C246 2.68994 235.75 9.53995 229.13 20.2099C227.172 23.4003 224.406 26.0165 221.111 27.7936C217.817 29.5708 214.111 30.4458 210.37 30.3299H209.75C197.04 30.3299 186.75 44.7399 186.75 62.5199C186.75 80.2999 197.05 94.6999 209.75 94.6999C212.539 94.6918 215.285 94.0054 217.75 92.6999C226.04 88.3899 236.92 88.31 245.6 92.16C249.321 93.8338 253.354 94.7034 257.435 94.712C261.515 94.7207 265.552 93.868 269.28 92.2099C277.9 88.4399 288.65 88.5199 296.89 92.7499C299.335 94.0434 302.054 94.7294 304.82 94.7499C317.53 94.7499 327.82 80.3399 327.82 62.5699C327.896 55.6992 326.238 48.9202 323 42.8599V42.8599Z" fill="#F2F2F2"/>
<path opacity="0.03" d="M288.59 89.95C281.95 88.6874 275.084 89.4324 268.87 92.09C265.143 93.7466 261.108 94.5985 257.03 94.5898C252.951 94.5812 248.92 93.7123 245.2 92.04C236.51 88.19 225.63 88.27 217.34 92.58C214.875 93.8855 212.129 94.5719 209.34 94.58C198.05 94.58 188.66 83.2 186.7 68.2C188.955 66.557 190.871 64.4922 192.34 62.12C199 51.46 209.21 44.59 220.72 44.59C232.23 44.59 242.36 51.36 248.98 61.91C250.955 65.0975 253.72 67.7213 257.007 69.5275C260.293 71.3336 263.99 72.261 267.74 72.22H268C277 72.23 284.8 79.44 288.59 89.95Z" fill="black"/>
<path d="M800.07 66.42L791 72.19L796.53 62.19C794.968 60.9272 793.028 60.2231 791.02 60.19H790.88C790.247 60.1989 789.615 60.152 788.99 60.05L785.9 62.05L787.2 59.59C785.015 58.8287 783.125 57.3975 781.8 55.5L776.28 59L779.77 52.66C778.301 50.7647 776.429 49.2198 774.29 48.1371C772.151 47.0544 769.797 46.461 767.4 46.4C761.65 46.4 756.54 49.82 753.24 55.14C752.259 56.7246 750.877 58.0217 749.233 58.8997C747.589 59.7778 745.743 60.2057 743.88 60.14H743.57C737.23 60.14 732.09 67.33 732.09 76.14C732.09 84.95 737.23 92.19 743.57 92.19C744.965 92.1852 746.337 91.842 747.57 91.19C749.728 90.1417 752.087 89.5746 754.485 89.528C756.884 89.4814 759.263 89.9564 761.46 90.92C763.319 91.7474 765.331 92.175 767.365 92.175C769.4 92.175 771.411 91.7474 773.27 90.92C775.451 89.9756 777.809 89.511 780.184 89.5576C782.56 89.6042 784.898 90.1609 787.04 91.19C788.273 91.8424 789.645 92.1856 791.04 92.19C797.38 92.19 802.52 85.01 802.52 76.14C802.53 72.7461 801.687 69.404 800.07 66.42V66.42Z" fill="#F2F2F2"/>
<path opacity="0.03" d="M782.92 89.91C779.61 89.2848 776.188 89.6572 773.09 90.98C771.231 91.8074 769.22 92.235 767.185 92.235C765.151 92.235 763.139 91.8074 761.28 90.98C759.082 90.0161 756.7 89.5411 754.3 89.5877C751.901 89.6343 749.539 90.2015 747.38 91.25C746.148 91.9046 744.775 92.248 743.38 92.25C737.74 92.25 733.06 86.58 732.08 79.1C733.202 78.2877 734.159 77.2696 734.9 76.1C738.2 70.78 743.32 67.37 749.06 67.37C754.8 67.37 759.85 70.74 763.15 76C764.135 77.5911 765.514 78.9006 767.154 79.8012C768.794 80.7018 770.639 81.163 772.51 81.14H772.66C777.15 81.07 781 84.67 782.92 89.91Z" fill="black"/>
<path d="M63.9674 145L78.6274 154.28L69.7474 138.13C72.2654 136.126 75.3794 135.017 78.5974 134.98H78.8275C79.832 134.995 80.8359 134.921 81.8275 134.76L86.7774 137.9L84.6274 134.04C88.1342 132.807 91.1664 130.506 93.2975 127.46L102.167 133.08L96.6274 122.89C101.817 116.67 108.807 112.89 116.497 112.89C125.727 112.89 133.937 118.37 139.247 126.89C140.812 129.443 143.023 131.538 145.657 132.962C148.291 134.386 151.254 135.089 154.247 135H154.747C164.927 135 173.177 146.54 173.177 160.78C173.177 175.02 164.927 186.57 154.747 186.57C152.505 186.561 150.299 186.009 148.317 184.96C144.852 183.276 141.062 182.366 137.21 182.292C133.358 182.217 129.535 182.981 126.007 184.53C123.019 185.866 119.781 186.557 116.507 186.557C113.234 186.557 109.996 185.866 107.007 184.53C103.505 183.013 99.7171 182.266 95.9007 182.34C92.0843 182.414 88.3284 183.308 84.8875 184.96C82.9258 185.981 80.7489 186.519 78.5374 186.53C68.3474 186.53 60.0974 174.99 60.0974 160.74C60.0495 155.252 61.3802 149.84 63.9674 145V145Z" fill="#F2F2F2"/>
<path opacity="0.03" d="M91.5176 182.73C96.8384 181.727 102.337 182.326 107.318 184.45C110.307 185.786 113.544 186.477 116.818 186.477C120.092 186.477 123.329 185.786 126.318 184.45C129.847 182.901 133.671 182.137 137.525 182.211C141.379 182.286 145.17 183.196 148.638 184.88C150.616 185.929 152.819 186.481 155.058 186.49C164.108 186.49 171.628 177.38 173.198 165.36C171.392 164.038 169.857 162.382 168.678 160.48C163.368 151.94 155.158 146.48 145.928 146.48C136.698 146.48 128.598 151.9 123.288 160.36C121.708 162.909 119.497 165.007 116.869 166.452C114.242 167.897 111.286 168.641 108.288 168.61H108.058C100.798 168.54 94.5576 174.32 91.5176 182.73Z" fill="black"/>
<g clip-path="url(#clip1_105_4007)">
<path d="M-19.4331 588.497C-20.1848 588.497 -20.3727 588.121 -19.9969 587.558L-16.0504 582.489C-15.6746 581.926 -14.735 581.55 -13.9833 581.55H53.1063C53.858 581.55 54.046 582.113 53.6701 582.677L50.4754 587.558C50.0995 588.121 49.1599 588.684 48.5961 588.684L-19.4331 588.497Z" fill="#00ACD7"/>
<path d="M-47.8098 605.769C-48.5615 605.769 -48.7494 605.394 -48.3736 604.83L-44.4272 599.761C-44.0513 599.198 -43.1117 598.823 -42.36 598.823H43.3343C44.086 598.823 44.4619 599.386 44.2739 599.949L42.7705 604.455C42.5826 605.206 41.8309 605.581 41.0792 605.581L-47.8098 605.769Z" fill="#00ACD7"/>
<path d="M-2.33179 623.042C-3.08349 623.042 -3.27142 622.479 -2.89557 621.915L-0.264604 617.222C0.111248 616.658 0.862953 616.095 1.61466 616.095H39.1999C39.9516 616.095 40.3274 616.658 40.3274 617.409L39.9516 621.915C39.9516 622.666 39.1999 623.23 38.6361 623.23L-2.33179 623.042Z" fill="#00ACD7"/>
<path d="M192.735 585.117C180.896 588.121 172.815 590.374 161.164 593.378C158.345 594.129 158.157 594.317 155.714 591.501C152.895 588.309 150.828 586.244 146.882 584.366C135.042 578.546 123.579 580.236 112.867 587.182C100.088 595.443 93.5106 607.647 93.6985 622.854C93.8864 637.873 104.222 650.265 119.068 652.33C131.847 654.019 142.559 649.514 151.016 639.939C152.707 637.873 154.211 635.621 156.09 632.992C149.325 632.992 140.868 632.992 119.82 632.992C115.874 632.992 114.934 630.551 116.25 627.36C118.693 621.54 123.203 611.777 125.834 606.896C126.398 605.769 127.713 603.892 130.532 603.892C140.116 603.892 175.446 603.892 198.937 603.892C198.561 608.961 198.561 614.03 197.81 619.099C195.742 632.617 190.668 645.008 182.4 655.897C168.869 673.733 151.204 684.81 128.841 687.813C110.424 690.254 93.3226 686.687 78.2886 675.422C64.382 664.909 56.4891 651.016 54.422 633.743C51.9789 613.279 57.9925 594.88 70.3957 578.734C83.7384 561.274 101.403 550.197 123.015 546.254C140.68 543.062 157.593 545.128 172.815 555.454C182.775 562.025 189.917 571.036 194.615 581.926C195.742 583.615 194.991 584.554 192.735 585.117Z" fill="#00ACD7"/>
<path d="M254.939 688.94C237.838 688.564 222.24 683.683 209.085 672.418C197.998 662.843 191.044 650.64 188.789 636.184C185.407 614.969 191.232 596.194 204.011 579.485C217.73 561.461 234.267 552.074 256.63 548.132C275.799 544.752 293.84 546.63 310.189 557.707C325.036 567.845 334.244 581.55 336.687 599.574C339.882 624.919 332.553 645.571 315.075 663.219C302.672 675.798 287.45 683.683 269.973 687.25C264.899 688.189 259.825 688.377 254.939 688.94ZM299.666 613.091C299.478 610.651 299.478 608.773 299.102 606.896C295.719 588.309 278.618 577.795 260.765 581.926C243.288 585.868 232.012 596.945 227.878 614.593C224.495 629.237 231.636 644.069 245.167 650.077C255.503 654.583 265.839 654.02 275.799 648.95C290.645 641.253 298.726 629.237 299.666 613.091Z" fill="#00ACD7"/>
</g>
<path d="M955.422 518H810.578C800.87 518 793 525.87 793 535.578V680.422C793 690.13 800.87 698 810.578 698H955.422C965.13 698 973 690.13 973 680.422V535.578C973 525.87 965.13 518 955.422 518Z" fill="#3178C6"/>
<path d="M955.422 518H810.578C800.87 518 793 525.87 793 535.578V680.422C793 690.13 800.87 698 810.578 698H955.422C965.13 698 973 690.13 973 680.422V535.578C973 525.87 965.13 518 955.422 518Z" fill="#3178C6"/>
<path fill-rule="evenodd" clip-rule="evenodd" d="M904.424 661.235V678.835C907.285 680.301 910.669 681.401 914.575 682.134C918.482 682.868 922.599 683.234 926.927 683.234C931.146 683.234 935.153 682.831 938.949 682.024C942.746 681.218 946.075 679.889 948.936 678.037C951.797 676.186 954.062 673.765 955.731 670.777C957.4 667.789 958.234 664.095 958.234 659.695C958.234 656.505 957.758 653.709 956.804 651.308C955.85 648.906 954.475 646.771 952.677 644.901C950.88 643.031 948.725 641.353 946.212 639.868C943.7 638.383 940.866 636.981 937.712 635.661C935.401 634.707 933.328 633.782 931.494 632.884C929.66 631.985 928.101 631.068 926.817 630.134C925.533 629.199 924.543 628.209 923.846 627.164C923.149 626.118 922.801 624.936 922.801 623.616C922.801 622.406 923.113 621.315 923.736 620.344C924.36 619.372 925.24 618.538 926.377 617.841C927.514 617.145 928.908 616.604 930.559 616.219C932.21 615.834 934.043 615.642 936.061 615.642C937.528 615.642 939.078 615.752 940.71 615.971C942.342 616.191 943.984 616.531 945.635 616.989C947.285 617.447 948.89 618.025 950.449 618.721C952.008 619.418 953.448 620.225 954.768 621.141V604.697C952.09 603.67 949.165 602.909 945.992 602.414C942.819 601.919 939.179 601.672 935.071 601.672C930.889 601.672 926.927 602.121 923.186 603.019C919.445 603.918 916.153 605.32 913.31 607.227C910.467 609.133 908.22 611.562 906.57 614.514C904.919 617.465 904.094 620.994 904.094 625.101C904.094 630.344 905.607 634.818 908.633 638.521C911.659 642.224 916.253 645.359 922.416 647.926C924.837 648.916 927.093 649.887 929.183 650.84C931.274 651.794 933.081 652.784 934.603 653.81C936.125 654.837 937.326 655.955 938.207 657.165C939.087 658.375 939.527 659.75 939.527 661.29C939.527 662.427 939.252 663.481 938.702 664.452C938.152 665.424 937.317 666.267 936.198 666.982C935.08 667.697 933.686 668.256 932.017 668.66C930.348 669.063 928.395 669.265 926.157 669.265C922.342 669.265 918.564 668.596 914.823 667.257C911.081 665.919 907.615 663.912 904.424 661.235V661.235ZM874.837 617.873H897.414V603.43H834.484V617.873H856.951V682.18H874.837V617.873Z" fill="white"/>
<path d="M878 403.817V316.017L954.5 359.917V389.183L903.5 359.917V418.45L878 403.817Z" fill="#00B0FF"/>
<path d="M954.5 359.917L1031 316.017V403.817L980 433.083L954.5 418.45L1005.5 389.183V359.917L954.5 389.183V359.917Z" fill="#0081CB"/>
<path d="M954.5 418.45V447.717L1005.5 476.983V447.717L954.5 418.45Z" fill="#00B0FF"/>
<path d="M1005.5 476.983L1082 433.083V374.55L1056.5 389.183V418.45L1005.5 447.716V476.983ZM1056.5 359.917V330.65L1082 316.017V345.283L1056.5 359.917Z" fill="#0081CB"/>
<g clip-path="url(#clip2_105_4007)">
<path d="M333.221 310.286V311.879H330.915V317.411H329.185V311.879H326.878V310.286H333.221Z" fill="#39A0ED"/>
<path d="M340.142 317.411V311.995L338.7 317.411H337.259L335.528 311.995V317.411H333.798V310.286H336.682L337.835 315.036L338.989 310.286H341.872V317.411H340.142Z" fill="#39A0ED"/>
<path d="M260.92 317.006C258.335 318.106 255.751 318.657 253.138 318.657C249.003 318.657 245.27 317.933 241.968 316.485C238.666 315.036 235.881 313.038 233.612 310.489C231.344 307.94 229.592 304.957 228.386 301.511C227.18 298.064 226.577 294.357 226.577 290.389C226.577 286.305 227.18 282.54 228.386 279.035C229.592 275.531 231.315 272.49 233.583 269.912C235.852 267.305 238.637 265.278 241.939 263.801C245.242 262.324 248.946 261.571 253.109 261.571C255.895 261.571 258.565 262.005 261.149 262.845C263.734 263.685 266.088 264.93 268.184 266.552C270.28 268.174 272.003 270.202 273.353 272.605C274.702 275.009 275.535 277.761 275.851 280.86H264.538C263.82 277.819 262.47 275.531 260.46 273.996C258.45 272.461 256.009 271.708 253.109 271.708C250.439 271.708 248.17 272.229 246.304 273.272C244.438 274.314 242.916 275.705 241.767 277.471C240.618 279.238 239.757 281.236 239.24 283.467C238.723 285.697 238.436 288.014 238.436 290.418C238.436 292.706 238.695 294.936 239.24 297.108C239.757 299.28 240.618 301.221 241.767 302.959C242.916 304.697 244.438 306.087 246.304 307.129C248.17 308.172 250.439 308.693 253.109 308.693C257.043 308.693 260.087 307.68 262.24 305.681C264.394 303.683 265.629 300.787 266.002 296.963H254.057V287.956H276.712V317.411H269.161L267.955 311.242C265.858 313.994 263.504 315.905 260.92 317.006V317.006Z" fill="#39A0ED"/>
<path d="M295.98 262.932V307.274H322.311V317.382H284.121V262.932H295.98Z" fill="#39A0ED"/>
<path d="M239.929 324.16C221.811 335.282 194.647 341.596 164.353 341.596C109.767 341.596 65.5469 318.686 65.5469 290.389C65.5469 262.121 109.796 239.182 164.353 239.182C194.762 239.182 222.012 245.641 240.13 256.821C220.375 238.082 184.884 224.932 144.339 224.903C82.2012 224.903 31.8362 254.214 31.8362 290.389C31.8362 326.564 82.2012 355.903 144.31 355.903C184.712 355.903 220.088 342.783 239.929 324.16V324.16Z" fill="#39A0ED"/>
<path d="M94.3195 304.146L83.8522 258.674H73.9617L89.4752 317.962H98.7602L111.823 271.389L124.712 317.962H134.026L150.087 258.674H139.62L129.153 304.146L116.523 258.674H106.949L94.3195 304.146Z" fill="#39A0ED"/>
<path d="M176.212 283.641C174.771 281.584 172.954 280.02 170.82 278.949C168.629 277.848 166.091 277.298 163.265 277.298C160.093 277.298 157.239 277.877 154.759 279.006C152.423 280.078 150.433 281.671 148.819 283.727C145.849 287.522 144.292 292.88 144.292 299.223C144.292 302.032 144.695 304.697 145.474 307.072C146.252 309.476 147.435 311.59 148.934 313.357C152.106 317.064 156.633 319.033 162.025 319.033C164.851 319.033 167.158 318.744 169.09 318.136C170.762 317.614 171.887 316.919 172.81 316.311C173.992 315.529 175.059 314.573 176.039 313.473C176.847 312.517 177.568 311.474 178.202 310.344C179.298 308.317 179.846 306.406 179.961 305.421L180.047 304.755H172.348L172.32 305.305C172.118 307.825 168.83 312.314 162.977 312.314C154.615 312.314 152.625 306.232 152.481 300.874H180.509V300.265C180.509 296.819 180.163 293.662 179.471 290.91C178.692 288.043 177.625 285.61 176.212 283.641V283.641ZM162.371 284.249C168.571 284.249 171.887 287.608 172.493 294.502H152.423C152.74 288.912 157.152 284.249 162.371 284.249V284.249Z" fill="#39A0ED"/>
<path d="M219.235 289.317C218.485 286.913 217.389 284.799 215.976 283.032C214.506 281.208 212.718 279.788 210.671 278.804C208.537 277.79 206.144 277.269 203.548 277.269C201.155 277.298 198.992 277.819 197.089 278.833C195.503 279.644 194.09 280.802 192.879 282.25V264.062H185.209V317.933H192.504V314.255C193.139 315.094 193.975 315.992 195.071 316.774C197.147 318.28 199.713 319.033 202.683 319.033C205.884 319.033 208.768 318.309 211.19 316.89C213.352 315.616 215.198 313.791 216.64 311.474C217.908 309.447 218.86 307.043 219.494 304.349C220.042 302.032 220.331 299.483 220.331 296.993C220.359 294.299 219.985 291.692 219.235 289.317V289.317ZM212.343 298.064C212.343 302.293 211.507 305.826 209.892 308.317C208.191 310.953 205.711 312.285 202.539 312.285C197.954 312.285 192.591 309.07 192.591 299.976C192.591 295.631 193.139 292.272 194.234 289.723C195.82 286.045 198.502 284.278 202.395 284.278C206.547 284.278 209.344 285.9 210.901 289.288C212.17 292.069 212.343 295.458 212.343 298.064V298.064Z" fill="#39A0ED"/>
</g>
</g>
<defs>
<linearGradient id="paint0_linear_105_4007" x1="548.287" y1="333.562" x2="533.278" y2="163.15" gradientUnits="userSpaceOnUse">
<stop stop-color="#F74C00"/>
<stop offset="0.33" stop-color="#F74C00"/>
<stop offset="1" stop-color="#F49600"/>
</linearGradient>
<linearGradient id="paint1_linear_105_4007" x1="590.604" y1="326.335" x2="590.604" y2="265.767" gradientUnits="userSpaceOnUse">
<stop stop-color="#CC3A00"/>
<stop offset="0.15" stop-color="#CC3A00"/>
<stop offset="0.74" stop-color="#F74C00"/>
<stop offset="1" stop-color="#F74C00"/>
</linearGradient>
<linearGradient id="paint2_linear_105_4007" x1="498.622" y1="328.864" x2="498.622" y2="274.686" gradientUnits="userSpaceOnUse">
<stop stop-color="#CC3A00"/>
<stop offset="0.15" stop-color="#CC3A00"/>
<stop offset="0.74" stop-color="#F74C00"/>
<stop offset="1" stop-color="#F74C00"/>
</linearGradient>
<clipPath id="clip0_105_4007">
<rect width="1108" height="731.18" fill="white"/>
</clipPath>
<clipPath id="clip1_105_4007">
<rect width="386" height="144" fill="white" transform="translate(-48.5615 544.94)"/>
</clipPath>
<clipPath id="clip2_105_4007">
<rect width="312" height="131" fill="white" transform="translate(30.6218 224.903)"/>
</clipPath>
</defs>
</svg>
