<svg width="480" height="367" viewBox="0 0 480 367" fill="none" xmlns="http://www.w3.org/2000/svg">
<g clip-path="url(#clip0_58_5124)">
<path d="M69.0466 216.508C85.8098 216.508 99.399 202.898 99.399 186.109C99.399 169.321 85.8098 155.711 69.0466 155.711C52.2834 155.711 38.6941 169.321 38.6941 186.109C38.6941 202.898 52.2834 216.508 69.0466 216.508Z" fill="#FF6584"/>
<path d="M131.205 357.813H131.174C130.105 357.812 129.081 357.387 128.325 356.63C127.569 355.873 127.144 354.847 127.143 353.776V116.763C127.144 115.692 127.569 114.666 128.325 113.909C129.081 113.152 130.105 112.726 131.174 112.725H330.362C331.431 112.726 332.456 113.152 333.212 113.909C333.967 114.666 334.392 115.692 334.394 116.763V301.054C334.392 302.119 333.972 303.14 333.223 303.896C332.474 304.652 331.457 305.081 330.394 305.091L131.205 357.813Z" fill="#F2F2F2"/>
<path d="M278.431 79.2394H185.951V25.567C185.952 24.4336 186.402 23.3471 187.203 22.5457C188.003 21.7443 189.088 21.2935 190.219 21.2922L274.163 21.2922C275.294 21.2935 276.379 21.7443 277.18 22.5457C277.98 23.3471 278.43 24.4336 278.431 25.567V79.2394ZM186.899 78.2894H277.483V25.567C277.482 24.6855 277.132 23.8404 276.509 23.217C275.887 22.5937 275.043 22.2431 274.163 22.2421L190.219 22.2421C189.339 22.2431 188.495 22.5937 187.873 23.217C187.251 23.8404 186.9 24.6855 186.899 25.567V78.2894Z" fill="#3F3D56"/>
<path d="M212.272 41.7162H252.11C253.116 41.7162 254.081 42.1165 254.793 42.8291C255.504 43.5417 255.904 44.5082 255.904 45.516V102.513H208.478V45.516C208.478 44.5082 208.878 43.5417 209.59 42.8291C210.301 42.1165 211.266 41.7162 212.272 41.7162Z" fill="#E6E6E6"/>
<path d="M220.098 22.2421H200.653V2.76807C200.654 2.13844 200.904 1.53479 201.348 1.08957C201.793 0.64435 202.396 0.393909 203.024 0.393188L217.726 0.393188C218.355 0.393909 218.958 0.64435 219.402 1.08957C219.847 1.53479 220.097 2.13844 220.098 2.76807V22.2421ZM201.601 21.2922H219.149V2.76807C219.149 2.39029 218.999 2.02809 218.732 1.76095C218.465 1.49381 218.103 1.34356 217.726 1.34314L203.024 1.34314C202.647 1.34356 202.285 1.49381 202.019 1.76095C201.752 2.02809 201.602 2.39029 201.601 2.76807V21.2922Z" fill="#3F3D56"/>
<path d="M379.88 308.577C379.691 308.577 379.507 308.577 379.317 308.572C367.585 308.442 356.303 304.026 347.592 296.153C347.27 295.86 346.951 295.562 346.634 295.261L346.487 295.12V204.09L346.532 203.994C346.846 203.327 347.165 202.67 347.483 202.013C357.348 181.955 368.853 170.91 379.88 170.91C395.781 170.91 408.114 192.756 414.05 205.778C422.304 223.886 428.069 246.324 428.069 260.343C428.065 273.044 423.061 285.231 414.143 294.26C405.224 303.289 393.111 308.432 380.43 308.573C380.253 308.577 380.064 308.577 379.88 308.577ZM347.436 294.713C347.698 294.962 347.964 295.207 348.229 295.449C356.77 303.168 367.831 307.497 379.335 307.623C379.527 307.627 379.708 307.622 379.892 307.627C380.064 307.627 380.241 307.627 380.413 307.623C406.171 307.337 427.12 286.127 427.12 260.343C427.12 246.446 421.391 224.17 413.187 206.172C407.345 193.358 395.251 171.86 379.88 171.86C369.233 171.86 358.031 182.717 348.335 202.43C348.035 203.05 347.733 203.672 347.436 204.303L347.436 294.713Z" fill="#3F3D56"/>
<path d="M379.877 366.167C379.733 366.167 379.594 366.11 379.492 366.007C379.389 365.905 379.332 365.766 379.332 365.621V254.064C379.331 253.992 379.345 253.92 379.372 253.854C379.4 253.787 379.44 253.726 379.49 253.675C379.541 253.624 379.601 253.584 379.668 253.556C379.734 253.528 379.806 253.514 379.877 253.514C379.949 253.514 380.021 253.528 380.087 253.556C380.153 253.584 380.214 253.624 380.264 253.675C380.315 253.726 380.355 253.787 380.382 253.854C380.41 253.92 380.423 253.992 380.423 254.064V365.621C380.423 365.766 380.366 365.905 380.263 366.007C380.161 366.11 380.022 366.167 379.877 366.167V366.167Z" fill="#CCCCCC"/>
<path d="M96.7457 366.167C96.601 366.167 96.4622 366.11 96.3599 366.007C96.2576 365.905 96.2001 365.766 96.2001 365.621V254.064C96.1997 253.992 96.2134 253.92 96.2407 253.854C96.2679 253.787 96.308 253.726 96.3588 253.675C96.4095 253.624 96.4698 253.584 96.5362 253.556C96.6026 253.528 96.6738 253.514 96.7457 253.514C96.8176 253.514 96.8888 253.528 96.9553 253.556C97.0217 253.584 97.082 253.624 97.1327 253.675C97.1834 253.726 97.2235 253.787 97.2507 253.854C97.278 253.92 97.2918 253.992 97.2913 254.064V365.621C97.2913 365.766 97.2338 365.905 97.1315 366.007C97.0292 366.11 96.8904 366.167 96.7457 366.167V366.167Z" fill="#CCCCCC"/>
<path d="M379.878 274.907C379.799 274.907 379.722 274.89 379.651 274.857C379.58 274.825 379.516 274.777 379.465 274.718L352.023 243.023C351.928 242.913 351.881 242.771 351.892 242.626C351.902 242.482 351.969 242.348 352.078 242.253C352.188 242.158 352.33 242.11 352.474 242.12C352.618 242.13 352.753 242.197 352.847 242.307L380.29 274.002C380.358 274.081 380.403 274.178 380.417 274.282C380.432 274.386 380.417 274.492 380.374 274.587C380.33 274.682 380.261 274.763 380.173 274.82C380.085 274.876 379.982 274.906 379.878 274.907V274.907Z" fill="#CCCCCC"/>
<path d="M379.877 293.198C379.769 293.198 379.664 293.166 379.574 293.106C379.485 293.046 379.415 292.961 379.373 292.861C379.332 292.761 379.321 292.651 379.342 292.545C379.363 292.439 379.415 292.342 379.492 292.266L395.085 276.648C395.187 276.546 395.326 276.489 395.47 276.49C395.615 276.49 395.753 276.547 395.855 276.65C395.957 276.752 396.015 276.891 396.015 277.035C396.015 277.18 395.958 277.319 395.856 277.421L380.263 293.038C380.213 293.089 380.152 293.13 380.086 293.157C380.02 293.184 379.949 293.199 379.877 293.198V293.198Z" fill="#CCCCCC"/>
<path d="M430.361 366.393H389.572V365.918C389.571 363.235 390.097 360.578 391.122 358.099C392.146 355.62 393.648 353.367 395.542 351.469C397.436 349.571 399.684 348.066 402.159 347.039C404.634 346.012 407.287 345.483 409.966 345.483C412.645 345.483 415.298 346.012 417.773 347.039C420.248 348.066 422.497 349.571 424.391 351.469C426.285 353.367 427.787 355.62 428.811 358.099C429.835 360.578 430.362 363.235 430.361 365.918L430.361 366.393ZM390.526 365.443H429.406C429.283 360.362 427.18 355.53 423.548 351.98C419.916 348.43 415.042 346.443 409.966 346.443C404.891 346.443 400.017 348.43 396.385 351.98C392.752 355.53 390.65 360.362 390.526 365.443H390.526Z" fill="#3F3D56"/>
<path d="M409.966 354.325C409.824 354.325 409.687 354.382 409.586 354.483C409.485 354.584 409.428 354.722 409.428 354.865V360.593L403.857 355.803C403.803 355.757 403.741 355.722 403.673 355.7C403.606 355.677 403.535 355.669 403.465 355.674C403.394 355.679 403.325 355.699 403.262 355.731C403.199 355.763 403.142 355.807 403.096 355.86C403.05 355.914 403.015 355.977 402.993 356.044C402.971 356.112 402.963 356.183 402.968 356.253C402.973 356.324 402.993 356.393 403.025 356.456C403.057 356.519 403.101 356.576 403.155 356.622L409.428 362.014V365.379C409.428 365.45 409.442 365.52 409.468 365.586C409.495 365.651 409.535 365.711 409.585 365.761C409.635 365.811 409.695 365.851 409.76 365.879C409.825 365.906 409.896 365.92 409.966 365.92C410.037 365.92 410.107 365.906 410.173 365.879C410.238 365.851 410.298 365.811 410.348 365.761C410.398 365.711 410.437 365.651 410.464 365.586C410.491 365.52 410.505 365.45 410.505 365.379V354.865C410.505 354.722 410.448 354.584 410.347 354.483C410.246 354.382 410.109 354.325 409.966 354.325Z" fill="#3F3D56"/>
<path d="M88.421 366.393H47.6324V365.918C47.6312 363.235 48.1577 360.578 49.182 358.099C50.2064 355.62 51.7084 353.367 53.6023 351.469C55.4962 349.571 57.7449 348.066 60.2199 347.039C62.6949 346.012 65.3477 345.483 68.0267 345.483C70.7058 345.483 73.3586 346.012 75.8336 347.039C78.3085 348.066 80.5572 349.571 82.4512 351.469C84.3451 353.367 85.8471 355.62 86.8714 358.099C87.8958 360.578 88.4223 363.235 88.421 365.918L88.421 366.393ZM48.5867 365.443H87.4668C87.3431 360.362 85.2406 355.53 81.6083 351.98C77.9761 348.43 73.102 346.443 68.0267 346.443C62.9515 346.443 58.0774 348.43 54.4451 351.98C50.8129 355.53 48.7104 360.362 48.5866 365.443H48.5867Z" fill="#3F3D56"/>
<path d="M68.0268 354.325C67.884 354.325 67.747 354.382 67.6461 354.483C67.5451 354.584 67.4884 354.722 67.4884 354.865V360.593L61.917 355.803C61.8634 355.757 61.8011 355.722 61.7339 355.7C61.6666 355.677 61.5957 355.669 61.525 355.674C61.4544 355.679 61.3856 355.699 61.3224 355.731C61.2592 355.763 61.2029 355.807 61.1567 355.86C61.1106 355.914 61.0755 355.977 61.0535 356.044C61.0315 356.112 61.023 356.183 61.0285 356.253C61.0339 356.324 61.0533 356.393 61.0854 356.456C61.1175 356.519 61.1617 356.576 61.2156 356.622L67.4883 362.014V365.379C67.4881 365.45 67.5019 365.52 67.5289 365.586C67.5558 365.651 67.5955 365.711 67.6455 365.761C67.6955 365.811 67.7549 365.851 67.8203 365.879C67.8858 365.906 67.9559 365.92 68.0268 365.92C68.0976 365.92 68.1677 365.906 68.2332 365.879C68.2986 365.851 68.358 365.811 68.408 365.761C68.458 365.711 68.4977 365.651 68.5246 365.586C68.5516 365.52 68.5654 365.45 68.5652 365.379V354.865C68.5651 354.722 68.5084 354.584 68.4074 354.483C68.3065 354.382 68.1695 354.325 68.0268 354.325V354.325Z" fill="#3F3D56"/>
<path d="M97.2222 308.577C97.0332 308.577 96.8492 308.577 96.6602 308.572C83.9811 308.429 71.8696 303.285 62.9527 294.257C54.0358 285.228 49.0326 273.043 49.0281 260.343C49.0281 246.323 54.7933 223.885 63.0479 205.778C68.9842 192.756 81.3178 170.91 97.2222 170.91C103.773 170.91 110.37 174.649 116.829 182.025C117.149 182.389 117.47 182.763 117.787 183.147L117.895 183.279V303.916L117.628 304.046C117.308 304.201 116.985 304.346 116.661 304.487C110.709 307.125 104.281 308.515 97.7727 308.573C97.5956 308.577 97.4064 308.577 97.2222 308.577ZM97.2222 171.86C81.8482 171.86 69.7525 193.358 63.9107 206.172C55.7066 224.169 49.9767 246.445 49.9767 260.343C49.9767 286.123 70.9265 307.332 96.6773 307.623C96.8692 307.628 97.0482 307.629 97.2347 307.627C97.4069 307.627 97.5834 307.627 97.7554 307.623C104.139 307.567 110.443 306.204 116.281 303.616C116.504 303.519 116.726 303.421 116.947 303.318V183.621C116.672 183.29 116.394 182.968 116.117 182.652C109.845 175.491 103.488 171.86 97.2222 171.86V171.86Z" fill="#3F3D56"/>
<path d="M97.2202 274.907C97.142 274.907 97.0646 274.89 96.9934 274.857C96.9222 274.825 96.8589 274.777 96.8076 274.718L69.3654 243.023C69.2709 242.913 69.2237 242.771 69.2341 242.626C69.2445 242.482 69.3117 242.348 69.4209 242.253C69.5301 242.158 69.6724 242.11 69.8166 242.12C69.9607 242.13 70.095 242.197 70.19 242.307L97.6323 274.002C97.7007 274.081 97.7451 274.178 97.76 274.282C97.7749 274.386 97.7597 274.492 97.7163 274.587C97.6729 274.682 97.6031 274.763 97.5151 274.82C97.4272 274.876 97.3248 274.906 97.2202 274.907V274.907Z" fill="#CCCCCC"/>
<path d="M97.22 293.198C97.1121 293.198 97.0066 293.166 96.9169 293.106C96.8272 293.046 96.7573 292.961 96.716 292.861C96.6747 292.761 96.6639 292.651 96.6849 292.545C96.706 292.439 96.7579 292.342 96.8342 292.266L112.427 276.648C112.53 276.546 112.668 276.489 112.813 276.49C112.957 276.49 113.096 276.547 113.198 276.65C113.3 276.752 113.358 276.891 113.358 277.035C113.358 277.18 113.301 277.319 113.199 277.421L97.6058 293.038C97.5552 293.089 97.4951 293.13 97.4289 293.157C97.3627 293.184 97.2917 293.199 97.22 293.198Z" fill="#CCCCCC"/>
<path d="M140.071 83.0392L140.422 83.7327C140.578 84.0319 140.659 84.3643 140.659 84.7016V103.463H157.258V84.7016C157.259 84.3643 157.34 84.0319 157.496 83.7327L157.847 83.0392H140.071ZM156.31 84.7016V102.513H141.608V84.7016C141.608 84.4616 141.579 84.2223 141.522 83.9892H156.395C156.338 84.2223 156.31 84.4616 156.31 84.7016V84.7016ZM160.939 83.0392L161.29 83.7327C161.445 84.0319 161.527 84.3643 161.527 84.7016V103.463H178.126V84.7016C178.126 84.3643 178.207 84.0319 178.363 83.7327L178.714 83.0392H160.939ZM177.177 84.7016V102.513H162.475V84.7016C162.476 84.4616 162.447 84.2223 162.39 83.9892H177.263C177.206 84.2223 177.177 84.4616 177.177 84.7016V84.7016ZM181.806 83.0392L182.157 83.7327C182.312 84.0319 182.394 84.3643 182.394 84.7016V103.463H198.993V84.7016C198.993 84.3643 199.075 84.0319 199.23 83.7327L199.581 83.0392H181.806ZM198.045 84.7016V102.513H183.343V84.7016C183.343 84.4616 183.314 84.2223 183.257 83.9892H198.13C198.073 84.2223 198.044 84.4616 198.045 84.7016ZM202.673 83.0392L203.024 83.7327C203.18 84.0319 203.261 84.3643 203.261 84.7016V103.463H219.86V84.7016C219.861 84.3643 219.942 84.0319 220.098 83.7327L220.449 83.0392H202.673ZM218.912 84.7016V102.513H204.21V84.7016C204.21 84.4616 204.181 84.2223 204.124 83.9892H218.997C218.94 84.2223 218.912 84.4616 218.912 84.7016ZM223.541 83.0392L223.892 83.7327C224.047 84.0319 224.128 84.3643 224.129 84.7016V103.463H240.728V84.7016C240.728 84.3643 240.809 84.0319 240.965 83.7327L241.316 83.0392H223.541ZM239.779 84.7016V102.513H225.077V84.7016C225.077 84.4616 225.049 84.2223 224.992 83.9892H239.865C239.808 84.2223 239.779 84.4616 239.779 84.7016V84.7016ZM244.408 83.0392L244.759 83.7327C244.914 84.0319 244.996 84.3643 244.996 84.7016V103.463H261.595V84.7016C261.595 84.3643 261.677 84.0319 261.832 83.7327L262.183 83.0392H244.408ZM260.647 84.7016V102.513H245.945V84.7016C245.945 84.4616 245.916 84.2223 245.859 83.9892H260.732C260.675 84.2223 260.646 84.4616 260.647 84.7016V84.7016ZM265.275 83.0392L265.626 83.7327C265.782 84.0319 265.863 84.3643 265.863 84.7016V103.463H282.462V84.7016C282.463 84.3643 282.544 84.0319 282.7 83.7327L283.051 83.0392H265.275ZM281.514 84.7016V102.513H266.812V84.7016C266.812 84.4616 266.783 84.2223 266.726 83.9892H281.599C281.542 84.2223 281.514 84.4616 281.514 84.7016ZM286.142 83.0392L286.494 83.7327C286.649 84.0319 286.73 84.3643 286.731 84.7016V103.463H303.33V84.7016C303.33 84.3643 303.411 84.0319 303.567 83.7327L303.918 83.0392H286.142ZM302.381 84.7016V102.513H287.679V84.7016C287.679 84.4616 287.651 84.2223 287.594 83.9892H302.467C302.41 84.2223 302.381 84.4616 302.381 84.7016ZM307.01 83.0392L307.361 83.7327C307.516 84.0319 307.598 84.3643 307.598 84.7016V103.463H324.197V84.7016C324.197 84.3643 324.279 84.0319 324.434 83.7327L324.785 83.0392H307.01ZM323.249 84.7016V102.513H308.547V84.7016C308.547 84.4616 308.518 84.2223 308.461 83.9892H323.334C323.277 84.2223 323.248 84.4616 323.249 84.7016ZM307.01 83.0392L307.361 83.7327C307.516 84.0319 307.598 84.3643 307.598 84.7016V103.463H324.197V84.7016C324.197 84.3643 324.279 84.0319 324.434 83.7327L324.785 83.0392H307.01ZM323.249 84.7016V102.513H308.547V84.7016C308.547 84.4616 308.518 84.2223 308.461 83.9892H323.334C323.277 84.2223 323.248 84.4616 323.249 84.7016ZM286.142 83.0392L286.494 83.7327C286.649 84.0319 286.73 84.3643 286.731 84.7016V103.463H303.33V84.7016C303.33 84.3643 303.411 84.0319 303.567 83.7327L303.918 83.0392H286.142ZM302.381 84.7016V102.513H287.679V84.7016C287.679 84.4616 287.651 84.2223 287.594 83.9892H302.467C302.41 84.2223 302.381 84.4616 302.381 84.7016ZM265.275 83.0392L265.626 83.7327C265.782 84.0319 265.863 84.3643 265.863 84.7016V103.463H282.462V84.7016C282.463 84.3643 282.544 84.0319 282.7 83.7327L283.051 83.0392H265.275ZM281.514 84.7016V102.513H266.812V84.7016C266.812 84.4616 266.783 84.2223 266.726 83.9892H281.599C281.542 84.2223 281.514 84.4616 281.514 84.7016ZM244.408 83.0392L244.759 83.7327C244.914 84.0319 244.996 84.3643 244.996 84.7016V103.463H261.595V84.7016C261.595 84.3643 261.677 84.0319 261.832 83.7327L262.183 83.0392H244.408ZM260.647 84.7016V102.513H245.945V84.7016C245.945 84.4616 245.916 84.2223 245.859 83.9892H260.732C260.675 84.2223 260.646 84.4616 260.647 84.7016V84.7016ZM223.541 83.0392L223.892 83.7327C224.047 84.0319 224.128 84.3643 224.129 84.7016V103.463H240.728V84.7016C240.728 84.3643 240.809 84.0319 240.965 83.7327L241.316 83.0392H223.541ZM239.779 84.7016V102.513H225.077V84.7016C225.077 84.4616 225.049 84.2223 224.992 83.9892H239.865C239.808 84.2223 239.779 84.4616 239.779 84.7016V84.7016ZM202.673 83.0392L203.024 83.7327C203.18 84.0319 203.261 84.3643 203.261 84.7016V103.463H219.86V84.7016C219.861 84.3643 219.942 84.0319 220.098 83.7327L220.449 83.0392H202.673ZM218.912 84.7016V102.513H204.21V84.7016C204.21 84.4616 204.181 84.2223 204.124 83.9892H218.997C218.94 84.2223 218.912 84.4616 218.912 84.7016ZM181.806 83.0392L182.157 83.7327C182.312 84.0319 182.394 84.3643 182.394 84.7016V103.463H198.993V84.7016C198.993 84.3643 199.075 84.0319 199.23 83.7327L199.581 83.0392H181.806ZM198.045 84.7016V102.513H183.343V84.7016C183.343 84.4616 183.314 84.2223 183.257 83.9892H198.13C198.073 84.2223 198.044 84.4616 198.045 84.7016ZM160.939 83.0392L161.29 83.7327C161.445 84.0319 161.527 84.3643 161.527 84.7016V103.463H178.126V84.7016C178.126 84.3643 178.207 84.0319 178.363 83.7327L178.714 83.0392H160.939ZM177.177 84.7016V102.513H162.475V84.7016C162.476 84.4616 162.447 84.2223 162.39 83.9892H177.263C177.206 84.2223 177.177 84.4616 177.177 84.7016V84.7016ZM140.071 83.0392L140.422 83.7327C140.578 84.0319 140.659 84.3643 140.659 84.7016V103.463H157.258V84.7016C157.259 84.3643 157.34 84.0319 157.496 83.7327L157.847 83.0392H140.071ZM156.31 84.7016V102.513H141.608V84.7016C141.608 84.4616 141.579 84.2223 141.522 83.9892H156.395C156.338 84.2223 156.31 84.4616 156.31 84.7016V84.7016ZM307.01 83.0392L307.361 83.7327C307.516 84.0319 307.598 84.3643 307.598 84.7016V103.463H324.197V84.7016C324.197 84.3643 324.279 84.0319 324.434 83.7327L324.785 83.0392H307.01ZM323.249 84.7016V102.513H308.547V84.7016C308.547 84.4616 308.518 84.2223 308.461 83.9892H323.334C323.277 84.2223 323.248 84.4616 323.249 84.7016ZM286.142 83.0392L286.494 83.7327C286.649 84.0319 286.73 84.3643 286.731 84.7016V103.463H303.33V84.7016C303.33 84.3643 303.411 84.0319 303.567 83.7327L303.918 83.0392H286.142ZM302.381 84.7016V102.513H287.679V84.7016C287.679 84.4616 287.651 84.2223 287.594 83.9892H302.467C302.41 84.2223 302.381 84.4616 302.381 84.7016ZM265.275 83.0392L265.626 83.7327C265.782 84.0319 265.863 84.3643 265.863 84.7016V103.463H282.462V84.7016C282.463 84.3643 282.544 84.0319 282.7 83.7327L283.051 83.0392H265.275ZM281.514 84.7016V102.513H266.812V84.7016C266.812 84.4616 266.783 84.2223 266.726 83.9892H281.599C281.542 84.2223 281.514 84.4616 281.514 84.7016ZM244.408 83.0392L244.759 83.7327C244.914 84.0319 244.996 84.3643 244.996 84.7016V103.463H261.595V84.7016C261.595 84.3643 261.677 84.0319 261.832 83.7327L262.183 83.0392H244.408ZM260.647 84.7016V102.513H245.945V84.7016C245.945 84.4616 245.916 84.2223 245.859 83.9892H260.732C260.675 84.2223 260.646 84.4616 260.647 84.7016V84.7016ZM223.541 83.0392L223.892 83.7327C224.047 84.0319 224.128 84.3643 224.129 84.7016V103.463H240.728V84.7016C240.728 84.3643 240.809 84.0319 240.965 83.7327L241.316 83.0392H223.541ZM239.779 84.7016V102.513H225.077V84.7016C225.077 84.4616 225.049 84.2223 224.992 83.9892H239.865C239.808 84.2223 239.779 84.4616 239.779 84.7016V84.7016ZM202.673 83.0392L203.024 83.7327C203.18 84.0319 203.261 84.3643 203.261 84.7016V103.463H219.86V84.7016C219.861 84.3643 219.942 84.0319 220.098 83.7327L220.449 83.0392H202.673ZM218.912 84.7016V102.513H204.21V84.7016C204.21 84.4616 204.181 84.2223 204.124 83.9892H218.997C218.94 84.2223 218.912 84.4616 218.912 84.7016ZM181.806 83.0392L182.157 83.7327C182.312 84.0319 182.394 84.3643 182.394 84.7016V103.463H198.993V84.7016C198.993 84.3643 199.075 84.0319 199.23 83.7327L199.581 83.0392H181.806ZM198.045 84.7016V102.513H183.343V84.7016C183.343 84.4616 183.314 84.2223 183.257 83.9892H198.13C198.073 84.2223 198.044 84.4616 198.045 84.7016ZM160.939 83.0392L161.29 83.7327C161.445 84.0319 161.527 84.3643 161.527 84.7016V103.463H178.126V84.7016C178.126 84.3643 178.207 84.0319 178.363 83.7327L178.714 83.0392H160.939ZM177.177 84.7016V102.513H162.475V84.7016C162.476 84.4616 162.447 84.2223 162.39 83.9892H177.263C177.206 84.2223 177.177 84.4616 177.177 84.7016V84.7016ZM140.071 83.0392L140.422 83.7327C140.578 84.0319 140.659 84.3643 140.659 84.7016V103.463H157.258V84.7016C157.259 84.3643 157.34 84.0319 157.496 83.7327L157.847 83.0392H140.071ZM156.31 84.7016V102.513H141.608V84.7016C141.608 84.4616 141.579 84.2223 141.522 83.9892H156.395C156.338 84.2223 156.31 84.4616 156.31 84.7016V84.7016ZM307.01 83.0392L307.361 83.7327C307.516 84.0319 307.598 84.3643 307.598 84.7016V103.463H324.197V84.7016C324.197 84.3643 324.279 84.0319 324.434 83.7327L324.785 83.0392H307.01ZM323.249 84.7016V102.513H308.547V84.7016C308.547 84.4616 308.518 84.2223 308.461 83.9892H323.334C323.277 84.2223 323.248 84.4616 323.249 84.7016ZM286.142 83.0392L286.494 83.7327C286.649 84.0319 286.73 84.3643 286.731 84.7016V103.463H303.33V84.7016C303.33 84.3643 303.411 84.0319 303.567 83.7327L303.918 83.0392H286.142ZM302.381 84.7016V102.513H287.679V84.7016C287.679 84.4616 287.651 84.2223 287.594 83.9892H302.467C302.41 84.2223 302.381 84.4616 302.381 84.7016ZM265.275 83.0392L265.626 83.7327C265.782 84.0319 265.863 84.3643 265.863 84.7016V103.463H282.462V84.7016C282.463 84.3643 282.544 84.0319 282.7 83.7327L283.051 83.0392H265.275ZM281.514 84.7016V102.513H266.812V84.7016C266.812 84.4616 266.783 84.2223 266.726 83.9892H281.599C281.542 84.2223 281.514 84.4616 281.514 84.7016ZM244.408 83.0392L244.759 83.7327C244.914 84.0319 244.996 84.3643 244.996 84.7016V103.463H261.595V84.7016C261.595 84.3643 261.677 84.0319 261.832 83.7327L262.183 83.0392H244.408ZM260.647 84.7016V102.513H245.945V84.7016C245.945 84.4616 245.916 84.2223 245.859 83.9892H260.732C260.675 84.2223 260.646 84.4616 260.647 84.7016V84.7016ZM223.541 83.0392L223.892 83.7327C224.047 84.0319 224.128 84.3643 224.129 84.7016V103.463H240.728V84.7016C240.728 84.3643 240.809 84.0319 240.965 83.7327L241.316 83.0392H223.541ZM239.779 84.7016V102.513H225.077V84.7016C225.077 84.4616 225.049 84.2223 224.992 83.9892H239.865C239.808 84.2223 239.779 84.4616 239.779 84.7016V84.7016ZM202.673 83.0392L203.024 83.7327C203.18 84.0319 203.261 84.3643 203.261 84.7016V103.463H219.86V84.7016C219.861 84.3643 219.942 84.0319 220.098 83.7327L220.449 83.0392H202.673ZM218.912 84.7016V102.513H204.21V84.7016C204.21 84.4616 204.181 84.2223 204.124 83.9892H218.997C218.94 84.2223 218.912 84.4616 218.912 84.7016ZM181.806 83.0392L182.157 83.7327C182.312 84.0319 182.394 84.3643 182.394 84.7016V103.463H198.993V84.7016C198.993 84.3643 199.075 84.0319 199.23 83.7327L199.581 83.0392H181.806ZM198.045 84.7016V102.513H183.343V84.7016C183.343 84.4616 183.314 84.2223 183.257 83.9892H198.13C198.073 84.2223 198.044 84.4616 198.045 84.7016ZM160.939 83.0392L161.29 83.7327C161.445 84.0319 161.527 84.3643 161.527 84.7016V103.463H178.126V84.7016C178.126 84.3643 178.207 84.0319 178.363 83.7327L178.714 83.0392H160.939ZM177.177 84.7016V102.513H162.475V84.7016C162.476 84.4616 162.447 84.2223 162.39 83.9892H177.263C177.206 84.2223 177.177 84.4616 177.177 84.7016V84.7016ZM140.071 83.0392L140.422 83.7327C140.578 84.0319 140.659 84.3643 140.659 84.7016V103.463H157.258V84.7016C157.259 84.3643 157.34 84.0319 157.496 83.7327L157.847 83.0392H140.071ZM156.31 84.7016V102.513H141.608V84.7016C141.608 84.4616 141.579 84.2223 141.522 83.9892H156.395C156.338 84.2223 156.31 84.4616 156.31 84.7016V84.7016ZM307.01 83.0392L307.361 83.7327C307.516 84.0319 307.598 84.3643 307.598 84.7016V103.463H324.197V84.7016C324.197 84.3643 324.279 84.0319 324.434 83.7327L324.785 83.0392H307.01ZM323.249 84.7016V102.513H308.547V84.7016C308.547 84.4616 308.518 84.2223 308.461 83.9892H323.334C323.277 84.2223 323.248 84.4616 323.249 84.7016ZM286.142 83.0392L286.494 83.7327C286.649 84.0319 286.73 84.3643 286.731 84.7016V103.463H303.33V84.7016C303.33 84.3643 303.411 84.0319 303.567 83.7327L303.918 83.0392H286.142ZM302.381 84.7016V102.513H287.679V84.7016C287.679 84.4616 287.651 84.2223 287.594 83.9892H302.467C302.41 84.2223 302.381 84.4616 302.381 84.7016ZM265.275 83.0392L265.626 83.7327C265.782 84.0319 265.863 84.3643 265.863 84.7016V103.463H282.462V84.7016C282.463 84.3643 282.544 84.0319 282.7 83.7327L283.051 83.0392H265.275ZM281.514 84.7016V102.513H266.812V84.7016C266.812 84.4616 266.783 84.2223 266.726 83.9892H281.599C281.542 84.2223 281.514 84.4616 281.514 84.7016ZM244.408 83.0392L244.759 83.7327C244.914 84.0319 244.996 84.3643 244.996 84.7016V103.463H261.595V84.7016C261.595 84.3643 261.677 84.0319 261.832 83.7327L262.183 83.0392H244.408ZM260.647 84.7016V102.513H245.945V84.7016C245.945 84.4616 245.916 84.2223 245.859 83.9892H260.732C260.675 84.2223 260.646 84.4616 260.647 84.7016V84.7016ZM223.541 83.0392L223.892 83.7327C224.047 84.0319 224.128 84.3643 224.129 84.7016V103.463H240.728V84.7016C240.728 84.3643 240.809 84.0319 240.965 83.7327L241.316 83.0392H223.541ZM239.779 84.7016V102.513H225.077V84.7016C225.077 84.4616 225.049 84.2223 224.992 83.9892H239.865C239.808 84.2223 239.779 84.4616 239.779 84.7016V84.7016ZM202.673 83.0392L203.024 83.7327C203.18 84.0319 203.261 84.3643 203.261 84.7016V103.463H219.86V84.7016C219.861 84.3643 219.942 84.0319 220.098 83.7327L220.449 83.0392H202.673ZM218.912 84.7016V102.513H204.21V84.7016C204.21 84.4616 204.181 84.2223 204.124 83.9892H218.997C218.94 84.2223 218.912 84.4616 218.912 84.7016ZM181.806 83.0392L182.157 83.7327C182.312 84.0319 182.394 84.3643 182.394 84.7016V103.463H198.993V84.7016C198.993 84.3643 199.075 84.0319 199.23 83.7327L199.581 83.0392H181.806ZM198.045 84.7016V102.513H183.343V84.7016C183.343 84.4616 183.314 84.2223 183.257 83.9892H198.13C198.073 84.2223 198.044 84.4616 198.045 84.7016ZM160.939 83.0392L161.29 83.7327C161.445 84.0319 161.527 84.3643 161.527 84.7016V103.463H178.126V84.7016C178.126 84.3643 178.207 84.0319 178.363 83.7327L178.714 83.0392H160.939ZM177.177 84.7016V102.513H162.475V84.7016C162.476 84.4616 162.447 84.2223 162.39 83.9892H177.263C177.206 84.2223 177.177 84.4616 177.177 84.7016V84.7016ZM140.071 83.0392L140.422 83.7327C140.578 84.0319 140.659 84.3643 140.659 84.7016V103.463H157.258V84.7016C157.259 84.3643 157.34 84.0319 157.496 83.7327L157.847 83.0392H140.071ZM156.31 84.7016V102.513H141.608V84.7016C141.608 84.4616 141.579 84.2223 141.522 83.9892H156.395C156.338 84.2223 156.31 84.4616 156.31 84.7016V84.7016ZM307.01 83.0392L307.361 83.7327C307.516 84.0319 307.598 84.3643 307.598 84.7016V103.463H324.197V84.7016C324.197 84.3643 324.279 84.0319 324.434 83.7327L324.785 83.0392H307.01ZM323.249 84.7016V102.513H308.547V84.7016C308.547 84.4616 308.518 84.2223 308.461 83.9892H323.334C323.277 84.2223 323.248 84.4616 323.249 84.7016ZM286.494 83.7327C286.649 84.0319 286.73 84.3643 286.731 84.7016V103.463H303.33V84.7016C303.33 84.3643 303.411 84.0319 303.567 83.7327L303.918 83.0392H286.142L286.494 83.7327ZM302.467 83.9892C302.41 84.2223 302.381 84.4616 302.381 84.7016V102.513H287.679V84.7016C287.679 84.4616 287.651 84.2223 287.594 83.9892H302.467ZM265.626 83.7327C265.782 84.0319 265.863 84.3643 265.863 84.7016V103.463H282.462V84.7016C282.463 84.3643 282.544 84.0319 282.7 83.7327L283.051 83.0392H265.275L265.626 83.7327ZM281.599 83.9892C281.542 84.2223 281.514 84.4616 281.514 84.7016V102.513H266.812V84.7016C266.812 84.4616 266.783 84.2223 266.726 83.9892H281.599ZM244.759 83.7327C244.914 84.0319 244.996 84.3643 244.996 84.7016V103.463H261.595V84.7016C261.595 84.3643 261.677 84.0319 261.832 83.7327L262.183 83.0392H244.408L244.759 83.7327ZM260.732 83.9892C260.675 84.2223 260.646 84.4616 260.647 84.7016V102.513H245.945V84.7016C245.945 84.4616 245.916 84.2223 245.859 83.9892H260.732ZM223.892 83.7327C224.047 84.0319 224.128 84.3643 224.129 84.7016V103.463H240.728V84.7016C240.728 84.3643 240.809 84.0319 240.965 83.7327L241.316 83.0392H223.541L223.892 83.7327ZM239.865 83.9892C239.808 84.2223 239.779 84.4616 239.779 84.7016V102.513H225.077V84.7016C225.077 84.4616 225.049 84.2223 224.992 83.9892H239.865ZM203.024 83.7327C203.18 84.0319 203.261 84.3643 203.261 84.7016V103.463H219.86V84.7016C219.861 84.3643 219.942 84.0319 220.098 83.7327L220.449 83.0392H202.673L203.024 83.7327ZM218.997 83.9892C218.94 84.2223 218.912 84.4616 218.912 84.7016V102.513H204.21V84.7016C204.21 84.4616 204.181 84.2223 204.124 83.9892H218.997ZM182.157 83.7327C182.312 84.0319 182.394 84.3643 182.394 84.7016V103.463H198.993V84.7016C198.993 84.3643 199.075 84.0319 199.23 83.7327L199.581 83.0392H181.806L182.157 83.7327ZM198.13 83.9892C198.073 84.2223 198.044 84.4616 198.045 84.7016V102.513H183.343V84.7016C183.343 84.4616 183.314 84.2223 183.257 83.9892H198.13ZM161.29 83.7327C161.445 84.0319 161.527 84.3643 161.527 84.7016V103.463H178.126V84.7016C178.126 84.3643 178.207 84.0319 178.363 83.7327L178.714 83.0392H160.939L161.29 83.7327ZM177.263 83.9892C177.206 84.2223 177.177 84.4616 177.177 84.7016V102.513H162.475V84.7016C162.476 84.4616 162.447 84.2223 162.39 83.9892H177.263ZM140.422 83.7327C140.578 84.0319 140.659 84.3643 140.659 84.7016V103.463H157.258V84.7016C157.259 84.3643 157.34 84.0319 157.496 83.7327L157.847 83.0392H140.071L140.422 83.7327ZM156.395 83.9892C156.338 84.2223 156.31 84.4616 156.31 84.7016V102.513H141.608V84.7016C141.608 84.4616 141.579 84.2223 141.522 83.9892H156.395ZM307.361 83.7327C307.516 84.0319 307.598 84.3643 307.598 84.7016V103.463H324.197V84.7016C324.197 84.3643 324.279 84.0319 324.434 83.7327L324.785 83.0392H307.01L307.361 83.7327ZM323.334 83.9892C323.277 84.2223 323.248 84.4616 323.249 84.7016V102.513H308.547V84.7016C308.547 84.4616 308.518 84.2223 308.461 83.9892H323.334ZM286.494 83.7327C286.649 84.0319 286.73 84.3643 286.731 84.7016V103.463H303.33V84.7016C303.33 84.3643 303.411 84.0319 303.567 83.7327L303.918 83.0392H286.142L286.494 83.7327ZM302.467 83.9892C302.41 84.2223 302.381 84.4616 302.381 84.7016V102.513H287.679V84.7016C287.679 84.4616 287.651 84.2223 287.594 83.9892H302.467ZM265.626 83.7327C265.782 84.0319 265.863 84.3643 265.863 84.7016V103.463H282.462V84.7016C282.463 84.3643 282.544 84.0319 282.7 83.7327L283.051 83.0392H265.275L265.626 83.7327ZM281.599 83.9892C281.542 84.2223 281.514 84.4616 281.514 84.7016V102.513H266.812V84.7016C266.812 84.4616 266.783 84.2223 266.726 83.9892H281.599ZM244.759 83.7327C244.914 84.0319 244.996 84.3643 244.996 84.7016V103.463H261.595V84.7016C261.595 84.3643 261.677 84.0319 261.832 83.7327L262.183 83.0392H244.408L244.759 83.7327ZM260.732 83.9892C260.675 84.2223 260.646 84.4616 260.647 84.7016V102.513H245.945V84.7016C245.945 84.4616 245.916 84.2223 245.859 83.9892H260.732ZM223.892 83.7327C224.047 84.0319 224.128 84.3643 224.129 84.7016V103.463H240.728V84.7016C240.728 84.3643 240.809 84.0319 240.965 83.7327L241.316 83.0392H223.541L223.892 83.7327ZM239.865 83.9892C239.808 84.2223 239.779 84.4616 239.779 84.7016V102.513H225.077V84.7016C225.077 84.4616 225.049 84.2223 224.992 83.9892H239.865ZM203.024 83.7327C203.18 84.0319 203.261 84.3643 203.261 84.7016V103.463H219.86V84.7016C219.861 84.3643 219.942 84.0319 220.098 83.7327L220.449 83.0392H202.673L203.024 83.7327ZM218.997 83.9892C218.94 84.2223 218.912 84.4616 218.912 84.7016V102.513H204.21V84.7016C204.21 84.4616 204.181 84.2223 204.124 83.9892H218.997ZM182.157 83.7327C182.312 84.0319 182.394 84.3643 182.394 84.7016V103.463H198.993V84.7016C198.993 84.3643 199.075 84.0319 199.23 83.7327L199.581 83.0392H181.806L182.157 83.7327ZM198.13 83.9892C198.073 84.2223 198.044 84.4616 198.045 84.7016V102.513H183.343V84.7016C183.343 84.4616 183.314 84.2223 183.257 83.9892H198.13ZM161.29 83.7327C161.445 84.0319 161.527 84.3643 161.527 84.7016V103.463H178.126V84.7016C178.126 84.3643 178.207 84.0319 178.363 83.7327L178.714 83.0392H160.939L161.29 83.7327ZM177.263 83.9892C177.206 84.2223 177.177 84.4616 177.177 84.7016V102.513H162.475V84.7016C162.476 84.4616 162.447 84.2223 162.39 83.9892H177.263ZM140.422 83.7327C140.578 84.0319 140.659 84.3643 140.659 84.7016V103.463H157.258V84.7016C157.259 84.3643 157.34 84.0319 157.496 83.7327L157.847 83.0392H140.071L140.422 83.7327ZM156.395 83.9892C156.338 84.2223 156.31 84.4616 156.31 84.7016V102.513H141.608V84.7016C141.608 84.4616 141.579 84.2223 141.522 83.9892H156.395ZM343.167 106.313H337.514C337.202 105.22 336.544 104.259 335.639 103.573C334.734 102.888 333.631 102.516 332.497 102.513H329.414V84.7016C329.415 84.3193 329.343 83.9403 329.2 83.5854C329.738 83.2685 330.156 82.7833 330.391 82.2046C330.625 81.626 330.663 80.986 330.499 80.3836C330.334 79.7812 329.976 79.2497 329.48 78.8712C328.984 78.4928 328.378 78.2883 327.754 78.2894H137.102C136.479 78.2883 135.872 78.4928 135.376 78.8712C134.88 79.2497 134.522 79.7812 134.358 80.3836C134.193 80.986 134.231 81.626 134.466 82.2046C134.7 82.7833 135.119 83.2685 135.656 83.5854C135.514 83.9403 135.441 84.3193 135.443 84.7016V102.513H132.36C131.225 102.516 130.122 102.888 129.217 103.573C128.312 104.259 127.654 105.22 127.342 106.313H121.215C120.083 106.315 118.999 106.766 118.199 107.567C117.398 108.368 116.948 109.455 116.947 110.588L116.947 361.376C116.949 362.509 117.399 363.595 118.199 364.396C118.999 365.197 120.084 365.648 121.215 365.651H343.167C344.299 365.649 345.384 365.198 346.184 364.397C346.984 363.595 347.434 362.509 347.436 361.376V110.588C347.434 109.455 346.984 108.368 346.184 107.567C345.383 106.766 344.299 106.315 343.167 106.313V106.313ZM346.487 361.376C346.486 362.055 346.278 362.717 345.891 363.274C345.503 363.831 344.955 364.256 344.32 364.492C343.952 364.632 343.561 364.703 343.167 364.701H121.215C120.821 364.703 120.43 364.632 120.062 364.492C119.427 364.256 118.879 363.831 118.491 363.274C118.104 362.717 117.896 362.055 117.895 361.376L117.895 110.588C117.896 109.706 118.246 108.861 118.868 108.238C119.491 107.615 120.335 107.264 121.215 107.263H128.101L128.177 106.883C128.376 105.919 128.901 105.053 129.663 104.43C130.424 103.807 131.377 103.466 132.36 103.463H136.391V84.7016C136.391 84.3151 136.496 83.9359 136.695 83.6044L136.989 83.1152L136.453 82.9157C136.034 82.7637 135.682 82.4685 135.459 82.0822C135.236 81.6959 135.157 81.2433 135.234 80.804C135.312 80.3647 135.542 79.9669 135.884 79.6807C136.225 79.3945 136.657 79.2382 137.102 79.2394H327.754C328.199 79.2382 328.631 79.3945 328.973 79.6807C329.314 79.9669 329.544 80.3647 329.622 80.804C329.7 81.2433 329.62 81.6959 329.397 82.0822C329.174 82.4685 328.823 82.7637 328.404 82.9157L327.868 83.1152L328.162 83.6044C328.36 83.9358 328.465 84.3151 328.465 84.7016V103.463H332.496C333.48 103.466 334.432 103.807 335.194 104.43C335.955 105.053 336.48 105.919 336.679 106.883L336.755 107.263H343.167C344.047 107.264 344.891 107.615 345.514 108.238C346.136 108.861 346.486 109.706 346.487 110.588L346.487 361.376ZM140.071 83.0392L140.422 83.7327C140.578 84.0319 140.659 84.3643 140.659 84.7016V103.463H157.258V84.7016C157.259 84.3643 157.34 84.0319 157.496 83.7327L157.847 83.0392H140.071ZM156.31 84.7016V102.513H141.608V84.7016C141.608 84.4616 141.579 84.2223 141.522 83.9892H156.395C156.338 84.2223 156.31 84.4616 156.31 84.7016V84.7016ZM160.939 83.0392L161.29 83.7327C161.445 84.0319 161.527 84.3643 161.527 84.7016V103.463H178.126V84.7016C178.126 84.3643 178.207 84.0319 178.363 83.7327L178.714 83.0392H160.939ZM177.177 84.7016V102.513H162.475V84.7016C162.476 84.4616 162.447 84.2223 162.39 83.9892H177.263C177.206 84.2223 177.177 84.4616 177.177 84.7016V84.7016ZM181.806 83.0392L182.157 83.7327C182.312 84.0319 182.394 84.3643 182.394 84.7016V103.463H198.993V84.7016C198.993 84.3643 199.075 84.0319 199.23 83.7327L199.581 83.0392H181.806ZM198.045 84.7016V102.513H183.343V84.7016C183.343 84.4616 183.314 84.2223 183.257 83.9892H198.13C198.073 84.2223 198.044 84.4616 198.045 84.7016V84.7016ZM202.673 83.0392L203.024 83.7327C203.18 84.0319 203.261 84.3643 203.261 84.7016V103.463H219.86V84.7016C219.861 84.3643 219.942 84.0319 220.098 83.7327L220.449 83.0392H202.673ZM218.912 84.7016V102.513H204.21V84.7016C204.21 84.4616 204.181 84.2223 204.124 83.9892H218.997C218.94 84.2223 218.912 84.4616 218.912 84.7016V84.7016ZM223.541 83.0392L223.892 83.7327C224.047 84.0319 224.128 84.3643 224.129 84.7016V103.463H240.728V84.7016C240.728 84.3643 240.809 84.0319 240.965 83.7327L241.316 83.0392H223.541ZM239.779 84.7016V102.513H225.077V84.7016C225.077 84.4616 225.049 84.2223 224.992 83.9892H239.865C239.808 84.2223 239.779 84.4616 239.779 84.7016V84.7016ZM244.408 83.0392L244.759 83.7327C244.914 84.0319 244.996 84.3643 244.996 84.7016V103.463H261.595V84.7016C261.595 84.3643 261.677 84.0319 261.832 83.7327L262.183 83.0392H244.408ZM260.647 84.7016V102.513H245.945V84.7016C245.945 84.4616 245.916 84.2223 245.859 83.9892H260.732C260.675 84.2223 260.646 84.4616 260.647 84.7016V84.7016ZM265.275 83.0392L265.626 83.7327C265.782 84.0319 265.863 84.3643 265.863 84.7016V103.463H282.462V84.7016C282.463 84.3643 282.544 84.0319 282.7 83.7327L283.051 83.0392H265.275ZM281.514 84.7016V102.513H266.812V84.7016C266.812 84.4616 266.783 84.2223 266.726 83.9892H281.599C281.542 84.2223 281.514 84.4616 281.514 84.7016V84.7016ZM286.142 83.0392L286.494 83.7327C286.649 84.0319 286.73 84.3643 286.731 84.7016V103.463H303.33V84.7016C303.33 84.3643 303.411 84.0319 303.567 83.7327L303.918 83.0392H286.142ZM302.381 84.7016V102.513H287.679V84.7016C287.679 84.4616 287.651 84.2223 287.594 83.9892H302.467C302.41 84.2223 302.381 84.4616 302.381 84.7016V84.7016ZM307.01 83.0392L307.361 83.7327C307.516 84.0319 307.598 84.3643 307.598 84.7016V103.463H324.197V84.7016C324.197 84.3643 324.279 84.0319 324.434 83.7327L324.785 83.0392H307.01ZM323.249 84.7016V102.513H308.547V84.7016C308.547 84.4616 308.518 84.2223 308.461 83.9892H323.334C323.277 84.2223 323.248 84.4616 323.249 84.7016V84.7016ZM140.071 83.0392L140.422 83.7327C140.578 84.0319 140.659 84.3643 140.659 84.7016V103.463H157.258V84.7016C157.259 84.3643 157.34 84.0319 157.496 83.7327L157.847 83.0392H140.071ZM156.31 84.7016V102.513H141.608V84.7016C141.608 84.4616 141.579 84.2223 141.522 83.9892H156.395C156.338 84.2223 156.31 84.4616 156.31 84.7016V84.7016ZM160.939 83.0392L161.29 83.7327C161.445 84.0319 161.527 84.3643 161.527 84.7016V103.463H178.126V84.7016C178.126 84.3643 178.207 84.0319 178.363 83.7327L178.714 83.0392H160.939ZM177.177 84.7016V102.513H162.475V84.7016C162.476 84.4616 162.447 84.2223 162.39 83.9892H177.263C177.206 84.2223 177.177 84.4616 177.177 84.7016V84.7016ZM181.806 83.0392L182.157 83.7327C182.312 84.0319 182.394 84.3643 182.394 84.7016V103.463H198.993V84.7016C198.993 84.3643 199.075 84.0319 199.23 83.7327L199.581 83.0392H181.806ZM198.045 84.7016V102.513H183.343V84.7016C183.343 84.4616 183.314 84.2223 183.257 83.9892H198.13C198.073 84.2223 198.044 84.4616 198.045 84.7016V84.7016ZM202.673 83.0392L203.024 83.7327C203.18 84.0319 203.261 84.3643 203.261 84.7016V103.463H219.86V84.7016C219.861 84.3643 219.942 84.0319 220.098 83.7327L220.449 83.0392H202.673ZM218.912 84.7016V102.513H204.21V84.7016C204.21 84.4616 204.181 84.2223 204.124 83.9892H218.997C218.94 84.2223 218.912 84.4616 218.912 84.7016V84.7016ZM223.541 83.0392L223.892 83.7327C224.047 84.0319 224.128 84.3643 224.129 84.7016V103.463H240.728V84.7016C240.728 84.3643 240.809 84.0319 240.965 83.7327L241.316 83.0392H223.541ZM239.779 84.7016V102.513H225.077V84.7016C225.077 84.4616 225.049 84.2223 224.992 83.9892H239.865C239.808 84.2223 239.779 84.4616 239.779 84.7016V84.7016ZM244.408 83.0392L244.759 83.7327C244.914 84.0319 244.996 84.3643 244.996 84.7016V103.463H261.595V84.7016C261.595 84.3643 261.677 84.0319 261.832 83.7327L262.183 83.0392H244.408ZM260.647 84.7016V102.513H245.945V84.7016C245.945 84.4616 245.916 84.2223 245.859 83.9892H260.732C260.675 84.2223 260.646 84.4616 260.647 84.7016V84.7016ZM265.275 83.0392L265.626 83.7327C265.782 84.0319 265.863 84.3643 265.863 84.7016V103.463H282.462V84.7016C282.463 84.3643 282.544 84.0319 282.7 83.7327L283.051 83.0392H265.275ZM281.514 84.7016V102.513H266.812V84.7016C266.812 84.4616 266.783 84.2223 266.726 83.9892H281.599C281.542 84.2223 281.514 84.4616 281.514 84.7016V84.7016ZM286.142 83.0392L286.494 83.7327C286.649 84.0319 286.73 84.3643 286.731 84.7016V103.463H303.33V84.7016C303.33 84.3643 303.411 84.0319 303.567 83.7327L303.918 83.0392H286.142ZM302.381 84.7016V102.513H287.679V84.7016C287.679 84.4616 287.651 84.2223 287.594 83.9892H302.467C302.41 84.2223 302.381 84.4616 302.381 84.7016V84.7016ZM307.01 83.0392L307.361 83.7327C307.516 84.0319 307.598 84.3643 307.598 84.7016V103.463H324.197V84.7016C324.197 84.3643 324.279 84.0319 324.434 83.7327L324.785 83.0392H307.01ZM323.249 84.7016V102.513H308.547V84.7016C308.547 84.4616 308.518 84.2223 308.461 83.9892H323.334C323.277 84.2223 323.248 84.4616 323.249 84.7016V84.7016ZM140.071 83.0392L140.422 83.7327C140.578 84.0319 140.659 84.3643 140.659 84.7016V103.463H157.258V84.7016C157.259 84.3643 157.34 84.0319 157.496 83.7327L157.847 83.0392H140.071ZM156.31 84.7016V102.513H141.608V84.7016C141.608 84.4616 141.579 84.2223 141.522 83.9892H156.395C156.338 84.2223 156.31 84.4616 156.31 84.7016V84.7016ZM160.939 83.0392L161.29 83.7327C161.445 84.0319 161.527 84.3643 161.527 84.7016V103.463H178.126V84.7016C178.126 84.3643 178.207 84.0319 178.363 83.7327L178.714 83.0392H160.939ZM177.177 84.7016V102.513H162.475V84.7016C162.476 84.4616 162.447 84.2223 162.39 83.9892H177.263C177.206 84.2223 177.177 84.4616 177.177 84.7016V84.7016ZM181.806 83.0392L182.157 83.7327C182.312 84.0319 182.394 84.3643 182.394 84.7016V103.463H198.993V84.7016C198.993 84.3643 199.075 84.0319 199.23 83.7327L199.581 83.0392H181.806ZM198.045 84.7016V102.513H183.343V84.7016C183.343 84.4616 183.314 84.2223 183.257 83.9892H198.13C198.073 84.2223 198.044 84.4616 198.045 84.7016V84.7016ZM202.673 83.0392L203.024 83.7327C203.18 84.0319 203.261 84.3643 203.261 84.7016V103.463H219.86V84.7016C219.861 84.3643 219.942 84.0319 220.098 83.7327L220.449 83.0392H202.673ZM218.912 84.7016V102.513H204.21V84.7016C204.21 84.4616 204.181 84.2223 204.124 83.9892H218.997C218.94 84.2223 218.912 84.4616 218.912 84.7016V84.7016ZM223.541 83.0392L223.892 83.7327C224.047 84.0319 224.128 84.3643 224.129 84.7016V103.463H240.728V84.7016C240.728 84.3643 240.809 84.0319 240.965 83.7327L241.316 83.0392H223.541ZM239.779 84.7016V102.513H225.077V84.7016C225.077 84.4616 225.049 84.2223 224.992 83.9892H239.865C239.808 84.2223 239.779 84.4616 239.779 84.7016V84.7016ZM244.408 83.0392L244.759 83.7327C244.914 84.0319 244.996 84.3643 244.996 84.7016V103.463H261.595V84.7016C261.595 84.3643 261.677 84.0319 261.832 83.7327L262.183 83.0392H244.408ZM260.647 84.7016V102.513H245.945V84.7016C245.945 84.4616 245.916 84.2223 245.859 83.9892H260.732C260.675 84.2223 260.646 84.4616 260.647 84.7016V84.7016ZM265.275 83.0392L265.626 83.7327C265.782 84.0319 265.863 84.3643 265.863 84.7016V103.463H282.462V84.7016C282.463 84.3643 282.544 84.0319 282.7 83.7327L283.051 83.0392H265.275ZM281.514 84.7016V102.513H266.812V84.7016C266.812 84.4616 266.783 84.2223 266.726 83.9892H281.599C281.542 84.2223 281.514 84.4616 281.514 84.7016V84.7016ZM286.142 83.0392L286.494 83.7327C286.649 84.0319 286.73 84.3643 286.731 84.7016V103.463H303.33V84.7016C303.33 84.3643 303.411 84.0319 303.567 83.7327L303.918 83.0392H286.142ZM302.381 84.7016V102.513H287.679V84.7016C287.679 84.4616 287.651 84.2223 287.594 83.9892H302.467C302.41 84.2223 302.381 84.4616 302.381 84.7016V84.7016ZM307.01 83.0392L307.361 83.7327C307.516 84.0319 307.598 84.3643 307.598 84.7016V103.463H324.197V84.7016C324.197 84.3643 324.279 84.0319 324.434 83.7327L324.785 83.0392H307.01ZM323.249 84.7016V102.513H308.547V84.7016C308.547 84.4616 308.518 84.2223 308.461 83.9892H323.334C323.277 84.2223 323.248 84.4616 323.249 84.7016V84.7016ZM140.071 83.0392L140.422 83.7327C140.578 84.0319 140.659 84.3643 140.659 84.7016V103.463H157.258V84.7016C157.259 84.3643 157.34 84.0319 157.496 83.7327L157.847 83.0392H140.071ZM156.31 84.7016V102.513H141.608V84.7016C141.608 84.4616 141.579 84.2223 141.522 83.9892H156.395C156.338 84.2223 156.31 84.4616 156.31 84.7016V84.7016ZM160.939 83.0392L161.29 83.7327C161.445 84.0319 161.527 84.3643 161.527 84.7016V103.463H178.126V84.7016C178.126 84.3643 178.207 84.0319 178.363 83.7327L178.714 83.0392H160.939ZM177.177 84.7016V102.513H162.475V84.7016C162.476 84.4616 162.447 84.2223 162.39 83.9892H177.263C177.206 84.2223 177.177 84.4616 177.177 84.7016V84.7016ZM181.806 83.0392L182.157 83.7327C182.312 84.0319 182.394 84.3643 182.394 84.7016V103.463H198.993V84.7016C198.993 84.3643 199.075 84.0319 199.23 83.7327L199.581 83.0392H181.806ZM198.045 84.7016V102.513H183.343V84.7016C183.343 84.4616 183.314 84.2223 183.257 83.9892H198.13C198.073 84.2223 198.044 84.4616 198.045 84.7016V84.7016ZM202.673 83.0392L203.024 83.7327C203.18 84.0319 203.261 84.3643 203.261 84.7016V103.463H219.86V84.7016C219.861 84.3643 219.942 84.0319 220.098 83.7327L220.449 83.0392H202.673ZM218.912 84.7016V102.513H204.21V84.7016C204.21 84.4616 204.181 84.2223 204.124 83.9892H218.997C218.94 84.2223 218.912 84.4616 218.912 84.7016V84.7016ZM223.541 83.0392L223.892 83.7327C224.047 84.0319 224.128 84.3643 224.129 84.7016V103.463H240.728V84.7016C240.728 84.3643 240.809 84.0319 240.965 83.7327L241.316 83.0392H223.541ZM239.779 84.7016V102.513H225.077V84.7016C225.077 84.4616 225.049 84.2223 224.992 83.9892H239.865C239.808 84.2223 239.779 84.4616 239.779 84.7016V84.7016ZM244.408 83.0392L244.759 83.7327C244.914 84.0319 244.996 84.3643 244.996 84.7016V103.463H261.595V84.7016C261.595 84.3643 261.677 84.0319 261.832 83.7327L262.183 83.0392H244.408ZM260.647 84.7016V102.513H245.945V84.7016C245.945 84.4616 245.916 84.2223 245.859 83.9892H260.732C260.675 84.2223 260.646 84.4616 260.647 84.7016V84.7016ZM265.275 83.0392L265.626 83.7327C265.782 84.0319 265.863 84.3643 265.863 84.7016V103.463H282.462V84.7016C282.463 84.3643 282.544 84.0319 282.7 83.7327L283.051 83.0392H265.275ZM281.514 84.7016V102.513H266.812V84.7016C266.812 84.4616 266.783 84.2223 266.726 83.9892H281.599C281.542 84.2223 281.514 84.4616 281.514 84.7016V84.7016ZM286.142 83.0392L286.494 83.7327C286.649 84.0319 286.73 84.3643 286.731 84.7016V103.463H303.33V84.7016C303.33 84.3643 303.411 84.0319 303.567 83.7327L303.918 83.0392H286.142ZM302.381 84.7016V102.513H287.679V84.7016C287.679 84.4616 287.651 84.2223 287.594 83.9892H302.467C302.41 84.2223 302.381 84.4616 302.381 84.7016V84.7016ZM307.01 83.0392L307.361 83.7327C307.516 84.0319 307.598 84.3643 307.598 84.7016V103.463H324.197V84.7016C324.197 84.3643 324.279 84.0319 324.434 83.7327L324.785 83.0392H307.01ZM323.249 84.7016V102.513H308.547V84.7016C308.547 84.4616 308.518 84.2223 308.461 83.9892H323.334C323.277 84.2223 323.248 84.4616 323.249 84.7016V84.7016Z" fill="#3F3D56"/>
<path d="M196.457 166.16H161.484C160.747 166.159 160.041 165.866 159.52 165.344C158.999 164.823 158.706 164.115 158.705 163.378V144.719C158.706 143.981 158.999 143.274 159.52 142.752C160.041 142.231 160.747 141.937 161.484 141.936H196.457C197.193 141.937 197.9 142.231 198.42 142.752C198.941 143.274 199.234 143.981 199.235 144.719V163.378C199.234 164.115 198.941 164.823 198.42 165.344C197.9 165.866 197.193 166.159 196.457 166.16V166.16Z" fill="#39A0ED"/>
<path d="M249.678 166.16H214.704C213.968 166.159 213.262 165.866 212.741 165.344C212.22 164.823 211.927 164.115 211.926 163.378V144.719C211.927 143.981 212.22 143.274 212.741 142.752C213.262 142.231 213.968 141.937 214.704 141.936H249.678C250.414 141.937 251.12 142.231 251.641 142.752C252.162 143.274 252.455 143.981 252.456 144.719V163.378C252.455 164.115 252.162 164.823 251.641 165.344C251.12 165.866 250.414 166.159 249.678 166.16V166.16Z" fill="#39A0ED"/>
<path d="M302.899 166.16H267.925C267.189 166.159 266.483 165.866 265.962 165.344C265.441 164.823 265.148 164.115 265.147 163.378V144.719C265.148 143.981 265.441 143.274 265.962 142.752C266.483 142.231 267.189 141.937 267.925 141.936H302.899C303.635 141.937 304.341 142.231 304.862 142.752C305.383 143.274 305.676 143.981 305.677 144.719V163.378C305.676 164.115 305.383 164.823 304.862 165.344C304.341 165.866 303.635 166.159 302.899 166.16V166.16Z" fill="#39A0ED"/>
<path d="M196.457 228.382H161.484C160.747 228.381 160.041 228.088 159.52 227.566C158.999 227.045 158.706 226.337 158.705 225.6V206.941C158.706 206.203 158.999 205.496 159.52 204.974C160.041 204.453 160.747 204.159 161.484 204.158H196.457C197.193 204.159 197.9 204.453 198.42 204.974C198.941 205.496 199.234 206.203 199.235 206.941V225.6C199.234 226.337 198.941 227.045 198.42 227.566C197.9 228.088 197.193 228.381 196.457 228.382V228.382Z" fill="#39A0ED"/>
<path d="M249.678 228.382H214.704C213.968 228.381 213.262 228.088 212.741 227.566C212.22 227.045 211.927 226.337 211.926 225.6V206.941C211.927 206.203 212.22 205.496 212.741 204.974C213.262 204.453 213.968 204.159 214.704 204.158H249.678C250.414 204.159 251.12 204.453 251.641 204.974C252.162 205.496 252.455 206.203 252.456 206.941V225.6C252.455 226.337 252.162 227.045 251.641 227.566C251.12 228.088 250.414 228.381 249.678 228.382V228.382Z" fill="#39A0ED"/>
<path d="M302.899 228.382H267.925C267.189 228.381 266.483 228.088 265.962 227.566C265.441 227.045 265.148 226.337 265.147 225.6V206.941C265.148 206.203 265.441 205.496 265.962 204.974C266.483 204.453 267.189 204.159 267.925 204.158H302.899C303.635 204.159 304.341 204.453 304.862 204.974C305.383 205.496 305.676 206.203 305.677 206.941V225.6C305.676 226.337 305.383 227.045 304.862 227.566C304.341 228.088 303.635 228.381 302.899 228.382V228.382Z" fill="#39A0ED"/>
<path d="M196.457 290.604H161.484C160.747 290.603 160.041 290.31 159.52 289.788C158.999 289.267 158.706 288.559 158.705 287.822V269.163C158.706 268.425 158.999 267.718 159.52 267.196C160.041 266.675 160.747 266.381 161.484 266.38H196.457C197.193 266.381 197.9 266.675 198.42 267.196C198.941 267.718 199.234 268.425 199.235 269.163V287.822C199.234 288.559 198.941 289.267 198.42 289.788C197.9 290.31 197.193 290.603 196.457 290.604V290.604Z" fill="#39A0ED"/>
<path d="M249.678 290.604H214.704C213.968 290.603 213.262 290.31 212.741 289.788C212.22 289.267 211.927 288.559 211.926 287.822V269.163C211.927 268.425 212.22 267.718 212.741 267.196C213.262 266.675 213.968 266.381 214.704 266.38H249.678C250.414 266.381 251.12 266.675 251.641 267.196C252.162 267.718 252.455 268.425 252.456 269.163V287.822C252.455 288.559 252.162 289.267 251.641 289.788C251.12 290.31 250.414 290.603 249.678 290.604V290.604Z" fill="#39A0ED"/>
<path d="M302.899 290.604H267.925C267.189 290.603 266.483 290.31 265.962 289.788C265.441 289.267 265.148 288.559 265.147 287.822V269.163C265.148 268.425 265.441 267.718 265.962 267.196C266.483 266.675 267.189 266.381 267.925 266.38H302.899C303.635 266.381 304.341 266.675 304.862 267.196C305.383 267.718 305.676 268.425 305.677 269.163V287.822C305.676 288.559 305.383 289.267 304.862 289.788C304.341 290.31 303.635 290.603 302.899 290.604V290.604Z" fill="#39A0ED"/>
<path d="M190.795 168.554H150.28C149.301 168.553 148.363 168.163 147.67 167.47C146.978 166.776 146.589 165.836 146.588 164.856V143.241C146.589 142.26 146.978 141.32 147.67 140.627C148.363 139.933 149.301 139.543 150.28 139.542H190.795C191.774 139.543 192.713 139.933 193.405 140.627C194.097 141.32 194.487 142.26 194.488 143.241V164.856C194.487 165.836 194.097 166.776 193.405 167.47C192.713 168.163 191.774 168.553 190.795 168.554V168.554ZM150.28 140.492C149.553 140.493 148.855 140.783 148.341 141.298C147.826 141.813 147.537 142.512 147.536 143.241V164.856C147.537 165.585 147.826 166.283 148.341 166.798C148.855 167.314 149.553 167.604 150.28 167.604H190.795C191.522 167.604 192.22 167.314 192.735 166.798C193.249 166.283 193.538 165.585 193.539 164.856V143.241C193.538 142.512 193.249 141.813 192.735 141.298C192.22 140.783 191.522 140.493 190.795 140.492H150.28Z" fill="#3F3D56"/>
<path d="M252.448 168.554H211.934C210.955 168.553 210.016 168.163 209.324 167.47C208.632 166.776 208.242 165.836 208.241 164.856V143.241C208.242 142.26 208.632 141.32 209.324 140.627C210.016 139.933 210.955 139.543 211.934 139.542H252.448C253.427 139.543 254.366 139.933 255.058 140.627C255.751 141.32 256.14 142.26 256.141 143.241V164.856C256.14 165.836 255.751 166.776 255.058 167.47C254.366 168.163 253.427 168.553 252.448 168.554ZM211.934 140.492C211.206 140.493 210.509 140.783 209.994 141.298C209.48 141.813 209.19 142.512 209.19 143.241V164.856C209.19 165.585 209.48 166.283 209.994 166.798C210.509 167.314 211.206 167.604 211.934 167.604H252.448C253.176 167.604 253.873 167.314 254.388 166.798C254.902 166.283 255.192 165.585 255.193 164.856V143.241C255.192 142.512 254.902 141.813 254.388 141.298C253.873 140.783 253.176 140.493 252.448 140.492H211.934Z" fill="#3F3D56"/>
<path d="M314.102 168.554H273.587C272.608 168.553 271.67 168.163 270.977 167.47C270.285 166.776 269.896 165.836 269.895 164.856V143.241C269.896 142.26 270.285 141.32 270.977 140.627C271.67 139.933 272.608 139.543 273.587 139.542H314.102C315.081 139.543 316.019 139.933 316.712 140.627C317.404 141.32 317.793 142.26 317.795 143.241V164.856C317.793 165.836 317.404 166.776 316.712 167.47C316.019 168.163 315.081 168.553 314.102 168.554ZM273.587 140.492C272.86 140.493 272.162 140.783 271.648 141.298C271.133 141.813 270.844 142.512 270.843 143.241V164.856C270.844 165.585 271.133 166.283 271.648 166.798C272.162 167.314 272.86 167.604 273.587 167.604H314.102C314.829 167.604 315.527 167.314 316.041 166.798C316.556 166.283 316.845 165.585 316.846 164.856V143.241C316.845 142.512 316.556 141.813 316.041 141.298C315.527 140.783 314.829 140.493 314.102 140.492H273.587Z" fill="#3F3D56"/>
<path d="M190.795 230.776H150.28C149.301 230.775 148.363 230.385 147.67 229.692C146.978 228.998 146.589 228.058 146.588 227.078V205.463C146.589 204.482 146.978 203.542 147.67 202.849C148.363 202.155 149.301 201.765 150.28 201.764H190.795C191.774 201.765 192.713 202.155 193.405 202.849C194.097 203.542 194.487 204.482 194.488 205.463V227.078C194.487 228.058 194.097 228.998 193.405 229.692C192.713 230.385 191.774 230.775 190.795 230.776V230.776ZM150.28 202.714C149.553 202.715 148.855 203.005 148.341 203.52C147.826 204.035 147.537 204.734 147.536 205.463V227.078C147.537 227.807 147.826 228.505 148.341 229.02C148.855 229.536 149.553 229.826 150.28 229.826H190.795C191.522 229.826 192.22 229.536 192.735 229.02C193.249 228.505 193.538 227.807 193.539 227.078V205.463C193.538 204.734 193.249 204.035 192.735 203.52C192.22 203.005 191.522 202.715 190.795 202.714H150.28Z" fill="#3F3D56"/>
<path d="M252.448 230.776H211.934C210.955 230.775 210.016 230.385 209.324 229.692C208.632 228.998 208.242 228.058 208.241 227.078V205.463C208.242 204.482 208.632 203.542 209.324 202.849C210.016 202.155 210.955 201.765 211.934 201.764H252.448C253.427 201.765 254.366 202.155 255.058 202.849C255.751 203.542 256.14 204.482 256.141 205.463V227.078C256.14 228.058 255.751 228.998 255.058 229.692C254.366 230.385 253.427 230.775 252.448 230.776ZM211.934 202.714C211.206 202.715 210.509 203.005 209.994 203.52C209.48 204.035 209.19 204.734 209.19 205.463V227.078C209.19 227.807 209.48 228.505 209.994 229.02C210.509 229.536 211.206 229.826 211.934 229.826H252.448C253.176 229.826 253.873 229.536 254.388 229.02C254.902 228.505 255.192 227.807 255.193 227.078V205.463C255.192 204.734 254.902 204.035 254.388 203.52C253.873 203.005 253.176 202.715 252.448 202.714H211.934Z" fill="#3F3D56"/>
<path d="M314.102 230.776H273.587C272.608 230.775 271.67 230.385 270.977 229.692C270.285 228.998 269.896 228.058 269.895 227.078V205.463C269.896 204.482 270.285 203.542 270.977 202.849C271.67 202.155 272.608 201.765 273.587 201.764H314.102C315.081 201.765 316.019 202.155 316.712 202.849C317.404 203.542 317.793 204.482 317.795 205.463V227.078C317.793 228.058 317.404 228.998 316.712 229.692C316.019 230.385 315.081 230.775 314.102 230.776ZM273.587 202.714C272.86 202.715 272.162 203.005 271.648 203.52C271.133 204.035 270.844 204.734 270.843 205.463V227.078C270.844 227.807 271.133 228.505 271.648 229.02C272.162 229.536 272.86 229.826 273.587 229.826H314.102C314.829 229.826 315.527 229.536 316.041 229.02C316.556 228.505 316.845 227.807 316.846 227.078V205.463C316.845 204.734 316.556 204.035 316.041 203.52C315.527 203.005 314.829 202.715 314.102 202.714H273.587Z" fill="#3F3D56"/>
<path d="M190.795 292.998H150.28C149.301 292.997 148.363 292.607 147.67 291.914C146.978 291.22 146.589 290.28 146.588 289.3V267.685C146.589 266.704 146.978 265.764 147.67 265.071C148.363 264.377 149.301 263.987 150.28 263.986H190.795C191.774 263.987 192.713 264.377 193.405 265.071C194.097 265.764 194.487 266.704 194.488 267.685V289.3C194.487 290.28 194.097 291.22 193.405 291.914C192.713 292.607 191.774 292.997 190.795 292.998V292.998ZM150.28 264.936C149.553 264.937 148.855 265.227 148.341 265.742C147.826 266.257 147.537 266.956 147.536 267.685V289.3C147.537 290.029 147.826 290.727 148.341 291.242C148.855 291.758 149.553 292.048 150.28 292.048H190.795C191.522 292.048 192.22 291.758 192.735 291.242C193.249 290.727 193.538 290.029 193.539 289.3V267.685C193.538 266.956 193.249 266.257 192.735 265.742C192.22 265.227 191.522 264.937 190.795 264.936H150.28Z" fill="#3F3D56"/>
<path d="M252.448 292.998H211.934C210.955 292.997 210.016 292.607 209.324 291.914C208.632 291.22 208.242 290.28 208.241 289.3V267.685C208.242 266.704 208.632 265.764 209.324 265.071C210.016 264.377 210.955 263.987 211.934 263.986H252.448C253.427 263.987 254.366 264.377 255.058 265.071C255.751 265.764 256.14 266.704 256.141 267.685V289.3C256.14 290.28 255.751 291.22 255.058 291.914C254.366 292.607 253.427 292.997 252.448 292.998V292.998ZM211.934 264.936C211.206 264.937 210.509 265.227 209.994 265.742C209.48 266.257 209.19 266.956 209.19 267.685V289.3C209.19 290.029 209.48 290.727 209.994 291.242C210.509 291.758 211.206 292.048 211.934 292.048H252.448C253.176 292.048 253.873 291.758 254.388 291.242C254.902 290.727 255.192 290.029 255.193 289.3V267.685C255.192 266.956 254.902 266.257 254.388 265.742C253.873 265.227 253.176 264.937 252.448 264.936H211.934Z" fill="#3F3D56"/>
<path d="M314.102 292.998H273.587C272.608 292.997 271.67 292.607 270.977 291.914C270.285 291.22 269.896 290.28 269.895 289.3V267.685C269.896 266.704 270.285 265.764 270.977 265.071C271.67 264.377 272.608 263.987 273.587 263.986H314.102C315.081 263.987 316.019 264.377 316.712 265.071C317.404 265.764 317.793 266.704 317.795 267.685V289.3C317.793 290.28 317.404 291.22 316.712 291.914C316.019 292.607 315.081 292.997 314.102 292.998V292.998ZM273.587 264.936C272.86 264.937 272.162 265.227 271.648 265.742C271.133 266.257 270.844 266.956 270.843 267.685V289.3C270.844 290.029 271.133 290.727 271.648 291.242C272.162 291.758 272.86 292.048 273.587 292.048H314.102C314.829 292.048 315.527 291.758 316.041 291.242C316.556 290.727 316.845 290.029 316.846 289.3V267.685C316.845 266.956 316.556 266.257 316.041 265.742C315.527 265.227 314.829 264.937 314.102 264.936H273.587Z" fill="#3F3D56"/>
<path d="M256.141 320.39C256.154 319.306 255.737 318.261 254.981 317.486C254.225 316.71 253.192 316.266 252.11 316.253H232.191V365.413H256.141V320.39Z" fill="#3F3D56"/>
<path d="M232.665 364.938H207.767V320.528C207.768 319.331 208.243 318.185 209.088 317.339C209.933 316.493 211.078 316.017 212.272 316.016H232.665V364.938ZM208.715 363.988H231.717V316.965H212.272C211.329 316.967 210.425 317.342 209.758 318.01C209.091 318.678 208.716 319.583 208.715 320.528V363.988Z" fill="#3F3D56"/>
<path d="M210.85 343.802C211.635 343.802 212.272 343.164 212.272 342.377C212.272 341.59 211.635 340.952 210.85 340.952C210.064 340.952 209.427 341.59 209.427 342.377C209.427 343.164 210.064 343.802 210.85 343.802Z" fill="#3F3D56"/>
</g>
<defs>
<clipPath id="clip0_58_5124">
<rect width="479" height="366" fill="white" transform="translate(0.624634 0.393188)"/>
</clipPath>
</defs>
</svg>
