<svg width="531" height="333" viewBox="0 0 531 333" fill="none" xmlns="http://www.w3.org/2000/svg">
<g clip-path="url(#clip0_58_5164)">
<path d="M406.436 296.397C439.435 296.397 466.186 291.025 466.186 284.398C466.186 277.772 439.435 272.4 406.436 272.4C373.437 272.4 346.686 277.772 346.686 284.398C346.686 291.025 373.437 296.397 406.436 296.397Z" stroke="#444053" stroke-miterlimit="10"/>
<path d="M180.956 188.818C181.131 189.263 181.33 189.699 181.551 190.123V190.178C181.551 190.178 184.381 200.632 185.706 202.827C186.091 203.462 186.526 204.152 186.956 204.827C186.871 205.323 186.871 205.83 186.956 206.326C187.356 208.656 187.841 211.861 187.621 212.566C187.401 213.271 187.886 215.026 187.121 215.636C186.356 216.245 185.571 217.305 187.916 218.71C187.916 218.71 188.356 219.895 187.961 220.16C187.916 220.19 187.961 220.255 188.071 220.34C187.426 222.25 186.481 225.339 187.071 225.559C187.396 225.684 188.276 225.224 189.241 224.605C189.266 224.73 189.286 224.865 189.311 225C189.464 226.029 189.702 227.044 190.021 228.034C190.451 228.989 190.881 230.599 190.651 231.129C190.421 231.659 191.281 232.839 191.081 233.304C190.881 233.769 191.746 235.278 191.746 235.278C191.746 235.278 192.606 238.208 192.571 239.198C192.536 240.188 193.501 246.572 193.501 246.572C193.501 246.572 192.501 249.867 193.001 250.822C193.501 251.777 193.826 255.071 193.001 256.291C192.176 257.511 191.141 260.206 191.476 260.931C191.811 261.656 191.011 270.615 193.031 274.304C193.289 275.677 193.478 277.062 193.596 278.454C193.596 279.454 195.186 282.109 195.186 282.109C195.186 282.109 194.226 286.108 196.581 286.783C196.743 286.834 196.911 286.866 197.081 286.878C197.153 287.315 197.093 287.764 196.911 288.168C196.508 288.725 196.222 289.357 196.071 290.028V290.028C196.036 290.154 196.052 290.288 196.116 290.403C196.381 290.698 197.116 294.652 197.116 294.652C197.116 294.652 198.176 299.097 204.011 298.012C204.011 298.012 207.956 297.782 207.626 296.397C207.517 295.94 207.373 295.492 207.196 295.057C207.057 294.776 206.933 294.487 206.826 294.192C206.761 293.862 205.931 292.937 205.866 292.312C205.801 291.688 205.271 290.468 205.366 290.073C205.461 289.678 204.471 286.848 204.401 286.218C204.32 285.78 204.194 285.351 204.026 284.938L204.236 284.838C204.236 284.838 204.766 281.874 204.306 280.789C203.846 279.704 202.016 278.289 202.016 278.289C202.016 278.289 202.281 271.01 201.951 270.02C201.621 269.03 202.116 265.28 202.116 265.28C202.116 265.28 203.241 259.976 203.176 258.781C203.138 258.041 203.25 257.302 203.506 256.606C203.506 256.606 204.206 248.802 204.666 247.812C205.126 246.822 205.666 237.143 205.666 237.143L205.976 238.033C206.411 239.369 206.929 240.676 207.526 241.948C207.781 242.348 208.526 243.628 209.166 244.697L210.111 246.297C210.111 246.297 210.541 247.847 210.241 248.797C209.941 249.747 213.326 254.886 213.326 254.886C213.108 255.315 212.995 255.79 212.996 256.271C213.091 256.771 211.966 258.346 211.966 258.346C211.966 258.346 211.536 259.761 211.801 260.256C212.066 260.751 211.371 263.68 211.371 263.68C211.371 263.68 210.241 270.135 209.976 270.895C209.711 271.655 210.111 276.854 210.111 276.854C210.111 276.854 208.031 282.179 208.996 283.948C209.036 284.603 209.041 285.603 208.786 286.008C208.441 286.548 208.541 288.543 208.576 289.093C208.576 289.188 208.576 289.238 208.576 289.238C208.576 289.238 207.446 290.738 208.871 291.348C210.296 291.957 215.141 292.397 215.141 292.397C215.141 292.397 219.746 293.717 221.966 294.077C224.186 294.437 228.831 294.307 229.161 292.957C229.278 292.538 229.319 292.101 229.281 291.668C229.251 291.394 229.151 291.132 228.991 290.908C228.83 290.684 228.615 290.505 228.366 290.388C227.001 289.845 225.605 289.382 224.186 289.003C224.186 289.003 221.996 288.503 221.796 287.553C221.596 286.603 218.481 283.963 218.481 283.963C218.481 283.963 218.446 283.778 218.381 283.528H218.481L218.331 283.378C218.176 282.878 217.926 282.219 217.621 282.343C217.573 282.254 217.544 282.156 217.535 282.055C217.527 281.954 217.539 281.852 217.57 281.756C217.602 281.66 217.653 281.571 217.72 281.495C217.787 281.419 217.869 281.357 217.961 281.314C219.156 280.659 219.886 278.584 219.551 276.344C219.216 274.104 219.156 274.499 219.851 273.214C220.282 272.243 220.454 271.177 220.351 270.12L222.186 263.28C222.473 262.44 222.651 261.566 222.716 260.681C222.747 259.984 222.927 259.302 223.246 258.681C223.246 258.681 224.076 253.936 224.806 252.852C225.536 251.767 224.306 247.942 224.306 247.942C224.306 247.942 223.181 242.018 223.246 239.313C223.311 236.608 220.326 227.229 220.326 227.229C219.943 226.62 219.78 225.899 219.866 225.184C219.926 224.625 219.576 223.715 219.181 222.9L219.056 222.645C219.208 222.449 219.392 222.28 219.601 222.145C220.421 221.645 220.806 220.33 220.811 219.405L209.506 192.763C209.506 192.683 214.741 181.989 214.726 181.909C214.416 180.154 211.456 175.5 211.456 175.5C211.427 175.441 211.384 175.391 211.331 175.355C210.666 175.05 208.416 173.775 208.416 173.775C206.651 171.595 204.996 171.145 203.916 171.16C203.576 171.156 203.238 171.208 202.916 171.315C202.8 171.351 202.688 171.396 202.581 171.45L202.531 171.885C202.438 170.879 202.518 169.865 202.766 168.885C202.791 168.8 202.816 168.71 202.836 168.625C203.001 168.625 203.166 168.625 203.336 168.625C204.394 168.629 205.443 168.424 206.422 168.022C207.401 167.62 208.291 167.029 209.042 166.283C209.793 165.537 210.389 164.65 210.798 163.673C211.206 162.697 211.417 161.65 211.421 160.591C211.42 159.839 211.316 159.09 211.111 158.367L211.071 158.252L211.321 158.142C212.321 157.772 213.576 158.402 214.386 157.732C214.679 157.44 214.89 157.076 214.996 156.677C215.22 156.141 215.37 155.578 215.441 155.002C215.441 154.902 215.441 154.802 215.441 154.702C215.443 154.672 215.443 154.642 215.441 154.612C215.443 154.575 215.443 154.539 215.441 154.502C215.441 154.457 215.441 154.412 215.441 154.367C215.441 154.322 215.441 154.367 215.441 154.367C215.395 154 215.246 153.653 215.011 153.367C214.481 152.747 213.596 152.597 212.926 152.142C212.378 151.718 211.923 151.185 211.591 150.577C211.257 149.973 210.818 149.433 210.296 148.983C210.03 148.759 209.708 148.613 209.366 148.559C209.023 148.506 208.672 148.546 208.351 148.678C208.155 148.811 207.939 148.913 207.711 148.978C207.463 148.981 207.218 148.915 207.006 148.788C204.706 147.713 202.006 147.903 199.506 148.223C198.49 148.303 197.492 148.543 196.551 148.933C196.08 149.126 195.657 149.42 195.312 149.794C194.966 150.168 194.706 150.613 194.551 151.097C194.346 151.872 194.501 152.712 194.256 153.477C194.086 153.977 193.756 154.437 193.546 154.942C193.444 155.206 193.38 155.484 193.356 155.767V155.767C193.356 155.767 193.356 155.822 193.356 155.847C193.271 156.982 193.716 158.177 193.931 159.346C194.226 160.941 194.076 162.676 194.761 164.186C194.829 164.371 194.916 164.549 195.021 164.716C194.781 165.216 194.521 165.746 194.271 166.241C193.901 166.136 192.771 165.886 192.731 166.876C192.723 167.68 192.535 168.473 192.181 169.195C192.128 169.237 192.073 169.275 192.016 169.31C191.955 169.338 191.904 169.385 191.871 169.443C191.838 169.501 191.823 169.569 191.831 169.635V169.635L191.701 169.735C191.643 169.739 191.588 169.758 191.541 169.79C191.471 169.67 191.241 169.66 190.511 170.53C189.539 171.541 188.422 172.4 187.196 173.08C187.196 173.08 182.286 176.505 182.021 178.079C181.756 179.654 180.116 186.534 180.956 188.818ZM202.516 172.11C202.516 172.11 202.516 172.075 202.516 172.055L202.576 172.085L202.516 172.11ZM215.856 284.098C215.723 284.155 215.58 284.184 215.436 284.183L215.856 284.098Z" fill="url(#paint0_linear_58_5164)"/>
<path d="M204.551 298.027C198.786 299.107 197.736 294.687 197.736 294.687C197.736 294.687 197.016 290.758 196.736 290.463C196.672 290.348 196.656 290.214 196.691 290.088V290.088C196.841 289.422 197.123 288.793 197.521 288.238C197.881 287.813 197.586 286.043 197.586 286.043L204.266 284.343C204.551 284.974 204.771 285.632 204.921 286.308C204.991 286.928 205.971 289.748 205.871 290.138C205.771 290.528 206.301 291.742 206.371 292.367C206.441 292.992 207.256 293.907 207.321 294.232C207.421 294.528 207.541 294.817 207.681 295.097C207.859 295.528 208.001 295.973 208.106 296.427C208.446 297.797 204.551 298.027 204.551 298.027Z" fill="#444053"/>
<path opacity="0.1" d="M204.551 298.027C198.786 299.107 197.736 294.687 197.736 294.687C197.736 294.687 197.016 290.758 196.736 290.463C196.672 290.348 196.656 290.214 196.691 290.088L198.076 294.087C198.076 294.087 199.226 296.482 203.481 296.117C205.906 295.917 207.096 295.467 207.676 295.117C207.854 295.548 207.996 295.993 208.101 296.447C208.446 297.797 204.551 298.027 204.551 298.027Z" fill="black"/>
<path opacity="0.1" d="M200.061 291.802C200.061 291.802 201.506 291.837 201.601 290.658L200.061 291.802Z" fill="black"/>
<path d="M225.121 253.092C224.401 254.171 223.581 258.886 223.581 258.886C223.276 259.51 223.105 260.191 223.081 260.886C223.028 261.767 222.859 262.638 222.581 263.475L220.686 270.255C220.786 271.306 220.614 272.365 220.186 273.329C219.501 274.609 219.566 274.214 219.891 276.444C220.216 278.674 219.501 280.734 218.321 281.389C217.141 282.043 218.846 283.583 218.846 283.583C218.846 283.583 211.311 285.613 209.736 284.368C208.161 283.123 210.556 276.969 210.556 276.969C210.556 276.969 210.166 271.795 210.426 271.04C210.686 270.285 211.801 263.865 211.801 263.865C211.801 263.865 212.491 260.951 212.226 260.461C211.961 259.971 212.391 258.561 212.391 258.561C212.391 258.561 213.506 256.986 213.391 256.496C213.392 256.018 213.505 255.548 213.721 255.121C213.721 255.121 210.381 250.012 210.671 249.062C210.961 248.112 210.541 246.562 210.541 246.562C210.541 246.562 210.121 245.837 209.611 244.972C208.991 243.907 208.241 242.638 207.986 242.238C207.4 240.973 206.891 239.674 206.461 238.348L206.151 237.458C206.151 237.458 205.651 247.087 205.151 248.067C204.651 249.047 204.006 256.816 204.006 256.816C203.751 257.506 203.638 258.241 203.676 258.976C203.741 260.186 202.626 265.475 202.626 265.475C202.626 265.475 202.126 269.21 202.466 270.195C202.806 271.18 202.531 278.414 202.531 278.414C202.531 278.414 204.331 279.824 204.791 280.914C205.251 282.003 204.726 284.943 204.726 284.943C204.726 284.943 199.486 287.563 197.156 286.873C194.826 286.183 195.781 282.223 195.781 282.223C195.781 282.223 194.211 279.604 194.211 278.589C194.094 277.204 193.907 275.825 193.651 274.459C191.651 270.79 192.441 261.886 192.116 261.161C191.791 260.436 192.801 257.756 193.616 256.546C194.431 255.336 194.116 252.047 193.616 251.107C193.116 250.167 194.116 246.882 194.116 246.882C194.116 246.882 193.166 240.528 193.201 239.548C193.236 238.568 192.381 235.648 192.381 235.648C192.381 235.648 191.531 234.149 191.726 233.684C191.921 233.219 191.071 232.044 191.301 231.524C191.531 231.004 191.101 229.394 190.676 228.444C190.365 227.464 190.13 226.461 189.976 225.444C189.776 224.315 189.631 223.32 189.631 223.32L195.036 218.965L208.536 215.426L213.656 213.761L218.601 221.555C218.601 221.555 219.101 222.37 219.566 223.31C219.956 224.12 220.301 225.025 220.241 225.584C220.158 226.294 220.321 227.01 220.701 227.614C220.701 227.614 223.646 236.948 223.581 239.613C223.516 242.278 224.631 248.197 224.631 248.197C224.631 248.197 225.841 252.012 225.121 253.092Z" fill="#3F3D56"/>
<path opacity="0.1" d="M194.791 257.971C194.791 257.971 200.556 255.516 202.256 257.251C203.956 258.986 194.791 257.971 194.791 257.971Z" fill="black"/>
<path opacity="0.1" d="M198.031 258.951C198.031 258.951 192.186 262.256 194.186 262.786C196.186 263.315 198.031 258.951 198.031 258.951Z" fill="black"/>
<path opacity="0.1" d="M215.456 256.106C215.456 256.106 212.956 256.266 213.916 256.761C214.876 257.256 215.456 256.106 215.456 256.106Z" fill="black"/>
<path opacity="0.1" d="M218.571 256.856C218.536 257.021 211.331 259.356 212.741 260.396C214.151 261.436 218.571 256.856 218.571 256.856Z" fill="black"/>
<path opacity="0.1" d="M195.641 276.899C196.721 276.739 202.751 273.954 200.391 275.954C199.759 276.528 198.984 276.919 198.147 277.085C197.31 277.252 196.444 277.187 195.641 276.899Z" fill="black"/>
<path opacity="0.1" d="M198.621 279.094C198.621 279.094 199.146 281.129 201.146 280.864C203.146 280.599 198.621 279.094 198.621 279.094Z" fill="black"/>
<path opacity="0.1" d="M196.951 283.223C197.311 283.123 201.601 281.159 201.701 282.079C201.801 282.998 197.606 284.578 197.281 284.108C197.092 283.849 196.978 283.543 196.951 283.223V283.223Z" fill="black"/>
<path opacity="0.1" d="M210.841 280.864C211.341 280.834 216.276 279.259 217.261 280.669L210.841 280.864Z" fill="black"/>
<path opacity="0.1" d="M215.296 281.784C215.296 281.784 216.146 281.029 216.996 281.424C217.846 281.819 215.296 281.784 215.296 281.784Z" fill="black"/>
<path opacity="0.1" d="M204.421 289.903C204.474 290.182 204.607 290.439 204.804 290.643C205.001 290.847 205.254 290.99 205.531 291.053L204.421 289.903Z" fill="black"/>
<path d="M229.411 292.982C229.086 294.327 224.496 294.457 222.306 294.097C220.116 293.737 215.556 292.427 215.556 292.427C215.556 292.427 210.776 291.967 209.366 291.378C207.956 290.788 209.071 289.283 209.071 289.283C209.071 289.283 209.071 289.233 209.071 289.143C209.036 288.593 208.941 286.608 209.276 286.073C209.671 285.448 209.441 283.418 209.441 283.418C209.441 283.418 216.221 284.728 216.351 284.108C216.481 283.488 217.531 282.608 218.021 282.403C218.511 282.198 218.876 284.043 218.876 284.043C218.876 284.043 221.956 286.663 222.151 287.613C222.346 288.563 224.506 289.053 224.506 289.053C225.908 289.429 227.288 289.888 228.636 290.428C228.883 290.544 229.096 290.722 229.255 290.944C229.413 291.166 229.512 291.426 229.541 291.698C229.576 292.13 229.532 292.566 229.411 292.982V292.982Z" fill="#444053"/>
<path opacity="0.1" d="M229.411 292.982C229.086 294.327 224.496 294.457 222.306 294.097C220.116 293.737 215.556 292.427 215.556 292.427C215.556 292.427 210.776 291.967 209.366 291.378C207.956 290.788 209.071 289.283 209.071 289.283C209.071 289.283 209.071 289.233 209.071 289.143L215.926 290.643C215.926 290.643 219.301 292.082 221.461 292.082C223.351 292.082 227.576 292.857 229.541 291.682C229.578 292.12 229.534 292.561 229.411 292.982V292.982Z" fill="black"/>
<path opacity="0.1" d="M220.141 287.808C220.141 287.808 219.816 289.968 218.506 290.693L220.141 287.808Z" fill="black"/>
<path d="M241.136 208.196C239.186 208.936 234.686 209.016 232.686 209.016C232.076 209.016 231.686 209.016 231.686 209.016L230.401 206.396L231.686 204.212C231.686 204.212 232.866 203.887 234.436 203.602C236.751 203.187 239.936 202.862 241.436 203.797C243.956 205.362 243.686 207.261 241.136 208.196Z" fill="#A1616A"/>
<path d="M211.351 176.845L211.921 176.19C211.921 176.19 214.846 180.819 215.151 182.564C215.456 184.309 215.851 186.319 215.851 186.319C215.851 186.319 216.591 188.588 217.076 189.593C217.489 190.355 217.811 191.162 218.036 191.998C218.076 192.433 217.861 193.393 218.776 193.998C219.691 194.603 219.911 196.268 219.911 196.268C219.911 196.268 223.231 199.497 224.981 199.587C226.731 199.677 231.746 200.547 231.576 201.417C231.406 202.287 233.671 202.817 234.576 203.037C235.481 203.257 228.686 205.882 232.686 209.261C232.686 209.261 230.151 209.761 229.891 210.396C229.631 211.031 226.966 210.046 226.966 210.046C226.966 210.046 226.396 208.691 224.431 208.606C222.466 208.521 221.461 207.646 221.461 207.516C221.461 207.386 219.496 206.291 218.406 205.987C217.316 205.682 215.871 205.552 215.826 205.242C215.781 204.932 209.276 176.86 209.276 176.86L211.351 176.845Z" fill="#39A0ED"/>
<path opacity="0.05" d="M211.351 176.955L211.921 176.3C211.921 176.3 214.846 180.929 215.151 182.679C215.456 184.429 215.851 186.434 215.851 186.434C215.851 186.434 216.591 188.703 217.076 189.708C217.488 190.468 217.81 191.274 218.036 192.108C218.076 192.548 217.861 193.508 218.776 194.108C219.691 194.708 219.911 196.378 219.911 196.378C219.911 196.378 223.231 199.612 224.981 199.697C226.731 199.782 231.746 200.657 231.576 201.532C231.406 202.407 233.671 202.932 234.576 203.147C235.481 203.362 228.686 205.997 232.686 209.361C232.686 209.361 230.151 209.861 229.891 210.496C229.631 211.131 226.966 210.146 226.966 210.146C226.966 210.146 226.396 208.791 224.431 208.706C222.466 208.621 221.461 207.746 221.461 207.611C221.461 207.476 219.496 206.392 218.406 206.087C217.316 205.782 215.871 205.647 215.826 205.342C215.781 205.037 209.276 176.955 209.276 176.955H211.351Z" fill="black"/>
<path d="M278.186 295.642C311.186 295.642 337.936 301.017 337.936 307.641C337.936 314.265 311.186 319.64 278.186 319.64C245.186 319.64 218.436 314.27 218.436 307.641" stroke="#444053" stroke-miterlimit="10"/>
<path d="M265.907 48.3668L257.483 46.9375L246.854 109.571L255.279 111L265.907 48.3668Z" fill="#444053"/>
<path d="M275.856 299.737L277.726 313.085L279.326 299.207L275.856 299.737Z" fill="#D0D2D5"/>
<path d="M215.786 292.262V300.542L217.656 307.746H218.991L220.596 300.007L221.396 290.663L215.786 292.262Z" fill="#3F3D56"/>
<path d="M211.981 259.966L215.981 260.766C215.981 260.766 211.446 273.309 214.646 275.979H209.581C209.581 275.979 207.711 266.37 211.981 259.966Z" fill="#D0D2D5"/>
<path opacity="0.1" d="M211.981 259.966L215.981 260.766C215.981 260.766 211.446 273.309 214.646 275.979H209.581C209.581 275.979 207.711 266.37 211.981 259.966Z" fill="black"/>
<path d="M238.746 109.147L225.931 190.293C225.931 190.293 206.981 276.784 214.186 293.867H223.266L250.496 127.835L238.746 109.147Z" fill="#D0D2D5"/>
<path d="M271.246 99.0677L281.071 180.629C281.071 180.629 288.226 284.533 280.391 301.336H272.651L258.821 117.311L271.246 99.0677Z" fill="#D0D2D5"/>
<path d="M237.551 79.4998C238.21 77.2844 239.583 75.3485 241.455 73.9926C243.327 72.6366 245.595 71.9365 247.906 72.0006C255.811 72.2006 268.031 73.6405 274.406 80.1698C284.286 90.3137 267.731 124.48 267.731 124.48C267.731 124.48 252.231 153.042 238.101 116.741C238.081 116.771 232.221 97.333 237.551 79.4998Z" fill="#444053"/>
<path opacity="0.1" d="M237.551 79.4998C238.21 77.2844 239.583 75.3485 241.455 73.9926C243.327 72.6366 245.595 71.9365 247.906 72.0006C255.811 72.2006 268.031 73.6405 274.406 80.1698C284.286 90.3137 267.731 124.48 267.731 124.48C267.731 124.48 252.231 153.042 238.101 116.741C238.081 116.771 232.221 97.333 237.551 79.4998Z" fill="black"/>
<path d="M242.986 86.4391C243.461 84.8653 244.44 83.4913 245.773 82.5283C247.105 81.5654 248.717 81.067 250.361 81.1097C255.986 81.2547 264.686 82.2796 269.211 86.9291C276.246 94.1483 264.461 118.476 264.461 118.476C264.461 118.476 253.461 138.809 243.361 112.976C243.361 112.961 239.186 99.1378 242.986 86.4391Z" fill="#444053"/>
<path d="M270.351 294.312C270.436 295.602 270.636 296.957 271.451 297.967C272.801 299.637 275.256 299.767 277.356 300.292C278.968 300.753 280.532 301.369 282.026 302.131L286.571 304.281C285.405 304.348 284.256 304.588 283.161 304.991C282.576 305.206 281.936 305.561 281.851 306.171C281.84 306.425 281.906 306.677 282.041 306.893C282.175 307.109 282.372 307.279 282.606 307.381C283.081 307.576 283.592 307.667 284.106 307.646C286.813 307.722 289.522 307.58 292.206 307.221L292.526 307.176C293.906 307.859 295.279 308.557 296.646 309.271C297.216 309.571 297.901 309.271 298.381 308.851C298.967 308.332 299.484 307.741 299.921 307.091C300.001 307.231 300.081 307.366 300.146 307.501C300.586 308.346 301.001 309.451 300.371 310.171C299.871 310.73 298.926 310.825 298.641 311.505C298.563 311.751 298.566 312.016 298.65 312.259C298.734 312.503 298.893 312.714 299.106 312.86C299.541 313.147 300.041 313.319 300.561 313.36C301.797 313.53 303.052 313.52 304.286 313.33C304.954 313.283 305.588 313.014 306.086 312.565C306.511 311.986 306.736 311.284 306.726 310.565L307.581 300.852C307.659 300.39 307.624 299.917 307.481 299.472C307.141 298.647 306.156 298.302 305.266 298.157H305.171C305.911 298.157 306.671 298.122 307.471 298.122C308.168 298.167 308.867 298.078 309.531 297.862C310.801 297.362 311.486 296.027 312.031 294.797C313.031 292.637 314.181 290.298 314.031 287.898L313.641 287.723C313.606 285.168 312.536 282.783 312.141 280.289C312.575 279.619 312.806 278.837 312.806 278.039C312.754 277.161 312.563 276.297 312.241 275.479C310.656 270.77 309.071 266.045 306.951 261.546C305.579 258.549 303.904 255.701 301.951 253.047C301.441 252.38 300.911 251.713 300.361 251.047C299.961 250.587 299.066 249.937 298.901 249.352C298.736 248.767 299.086 248.197 298.901 247.597C298.853 247.441 298.793 247.289 298.721 247.142C299.891 245.592 299.561 243.353 299.151 241.423L298.651 239.018C298.544 238.355 298.335 237.712 298.031 237.113C297.709 236.6 297.305 236.142 296.836 235.758C294.376 233.539 291.336 232.064 288.571 230.224C285.646 228.279 283.031 225.914 280.411 223.58C279.611 222.87 278.606 222.105 277.571 222.405C276.536 222.705 276.106 223.825 276.071 224.845C276.061 225.552 276.201 226.253 276.481 226.903C276.761 227.552 277.175 228.135 277.696 228.614C279.506 230.269 282.241 230.404 284.396 231.574C285.136 232.004 285.84 232.494 286.501 233.039L292.761 237.953C293.235 238.237 293.584 238.691 293.736 239.223C293.76 239.544 293.709 239.866 293.586 240.163C293.351 240.883 292.951 241.788 292.656 242.703L292.156 242.343C291.119 241.568 290.009 240.898 288.841 240.343C287.291 239.71 285.654 239.317 283.986 239.178C280.291 238.763 276.986 239.333 274.726 242.418C274.257 243.123 273.662 243.734 272.971 244.222C272.458 244.461 271.979 244.765 271.546 245.127C270.386 246.412 271.046 248.542 272.136 249.627C273.058 250.484 274.195 251.076 275.426 251.342C276.104 252.856 277.316 254.067 278.83 254.746C280.344 255.424 282.054 255.522 283.636 255.021C283.713 255.665 283.728 256.315 283.681 256.961C283.657 257.294 283.708 257.628 283.83 257.939C283.952 258.249 284.142 258.528 284.386 258.756C284.649 258.935 284.939 259.07 285.246 259.156C286.352 259.556 287.399 260.103 288.361 260.781C287.232 262.004 286.301 263.395 285.601 264.905C285.171 265.908 284.991 267 285.078 268.087C285.166 269.174 285.516 270.224 286.101 271.145L286.131 271.185C286.047 271.496 285.891 271.784 285.676 272.025C285.371 272.262 284.986 272.373 284.601 272.334C284.216 272.295 283.861 272.109 283.611 271.815C283.182 271.307 282.819 270.748 282.531 270.15C282.036 269.342 281.382 268.643 280.608 268.096C279.835 267.55 278.958 267.166 278.031 266.97C277.346 266.795 276.624 266.824 275.956 267.055C275.627 267.173 275.339 267.383 275.125 267.659C274.912 267.935 274.782 268.267 274.751 268.615C274.751 269.37 275.301 269.995 275.841 270.53C277.497 272.248 279.342 273.774 281.341 275.079C281.885 275.416 282.448 275.723 283.026 275.999C282.026 275.789 281.039 275.584 280.066 275.384C278.702 275.044 277.293 274.921 275.891 275.019C275.191 275.074 274.513 275.286 273.907 275.639C273.301 275.992 272.783 276.478 272.391 277.059C271.84 278.105 271.723 279.327 272.066 280.459C272.412 281.581 272.93 282.644 273.601 283.608C274.653 285.377 275.943 286.991 277.436 288.408C276.186 288.783 274.936 289.193 273.716 289.643C272.496 290.093 271.216 290.643 270.656 291.762C270.327 292.57 270.222 293.45 270.351 294.312ZM288.756 277.314H288.801C289.067 277.194 289.293 277.001 289.456 276.759C290.216 275.742 290.754 274.577 291.036 273.339C291.326 273.3 291.612 273.228 291.886 273.124C291.699 273.302 291.55 273.516 291.449 273.754C291.347 273.991 291.295 274.246 291.296 274.504L294.116 275.884C294.319 275.961 294.494 276.099 294.616 276.279C294.693 276.466 294.712 276.671 294.671 276.869C294.591 277.514 294.466 278.159 294.386 278.799C293.541 278.549 292.711 278.349 291.966 278.149C290.906 277.859 289.831 277.589 288.756 277.319V277.314Z" fill="url(#paint1_linear_58_5164)"/>
<path d="M289.281 250.757C289.99 250.934 290.728 250.966 291.45 250.85C292.172 250.734 292.863 250.473 293.481 250.082C293.728 249.908 294.004 249.78 294.296 249.702C294.555 249.679 294.815 249.717 295.057 249.814C295.298 249.91 295.514 250.062 295.686 250.257C296.886 251.452 297.026 253.421 296.406 254.996C295.786 256.571 294.541 257.811 293.236 258.886C292.182 259.754 291.067 260.546 289.901 261.256C289.579 260.503 289.112 259.821 288.524 259.25C287.937 258.679 287.243 258.231 286.481 257.931C285.111 257.401 284.111 255.981 283.326 254.741C282.741 253.821 282.221 253.861 282.746 252.912C283.338 251.999 284.037 251.16 284.826 250.412C285.256 249.957 285.631 249.453 285.946 248.912C286.296 248.282 286.216 247.872 286.756 248.372C287.111 248.702 287.256 249.417 287.666 249.802C288.121 250.244 288.674 250.571 289.281 250.757V250.757Z" fill="#FABDBD"/>
<path d="M293.576 241.008C293.693 240.714 293.742 240.398 293.721 240.083C293.571 239.56 293.23 239.112 292.766 238.828L286.651 233.979C286.009 233.441 285.323 232.957 284.601 232.534C282.491 231.379 279.826 231.244 278.056 229.614C277.547 229.137 277.142 228.56 276.869 227.919C276.595 227.278 276.458 226.587 276.466 225.889C276.466 224.89 276.966 223.76 277.911 223.48C278.856 223.2 279.911 223.94 280.691 224.645C283.246 226.944 285.796 229.279 288.651 231.199C291.351 233.019 294.326 234.468 296.731 236.663C297.169 237.036 297.545 237.477 297.846 237.968C298.14 238.563 298.343 239.198 298.451 239.853L298.951 242.223C299.371 244.222 299.711 246.547 298.366 248.082C298.17 248.328 297.922 248.528 297.641 248.667C297.359 248.806 297.05 248.881 296.736 248.887C296.292 248.833 295.865 248.686 295.481 248.457C294.481 247.957 292.671 247.457 292.366 246.207C291.976 244.642 293.101 242.458 293.576 241.008Z" fill="#FABDBD"/>
<path d="M283.821 272.255C283.403 271.753 283.049 271.202 282.766 270.615C282.287 269.82 281.65 269.131 280.895 268.591C280.14 268.051 279.283 267.671 278.376 267.475C277.715 267.308 277.021 267.336 276.376 267.555C276.053 267.674 275.771 267.882 275.563 268.156C275.355 268.43 275.229 268.757 275.201 269.1C275.201 269.84 275.736 270.46 276.261 270.985C277.878 272.683 279.683 274.193 281.641 275.484C283.601 276.77 285.85 277.55 288.186 277.754C288.421 277.783 288.66 277.761 288.886 277.689C289.145 277.569 289.366 277.381 289.526 277.144C290.766 275.554 291.196 273.489 291.526 271.505C291.406 272.22 287.381 270.55 286.926 270.765C286.256 271.08 286.321 272.02 285.836 272.47C285.539 272.705 285.161 272.815 284.784 272.774C284.407 272.734 284.061 272.548 283.821 272.255V272.255Z" fill="#FABDBD"/>
<path d="M313.146 287.963C313.169 288.213 313.12 288.464 313.006 288.688C312.731 289.118 312.111 289.123 311.606 289.048C310.44 288.851 309.288 288.574 308.161 288.218L297.896 285.253C297.733 285.222 297.581 285.148 297.456 285.038C297.347 284.91 297.276 284.754 297.251 284.588C296.894 283.116 296.818 281.589 297.026 280.089C297.038 279.872 297.109 279.663 297.231 279.484C297.462 279.271 297.767 279.156 298.081 279.164C299.689 279.001 301.305 278.927 302.921 278.944C303.969 278.988 305.02 278.965 306.066 278.874C307.416 278.714 308.971 277.939 310.326 278.059C311.501 278.159 311.451 279.059 311.571 280.059C311.906 282.713 313.121 285.253 313.146 287.963Z" fill="#FABDBD"/>
<path d="M280.371 275.779C279.039 275.439 277.662 275.316 276.291 275.414C275.607 275.468 274.945 275.676 274.354 276.022C273.762 276.369 273.257 276.845 272.876 277.414C272.331 278.448 272.216 279.655 272.556 280.774C272.899 281.877 273.404 282.924 274.056 283.878C275.209 285.873 276.692 287.658 278.441 289.158C279.316 289.853 280.281 290.428 281.121 291.158C282.911 292.722 284.021 294.907 285.086 297.032C286.086 299.032 287.086 301.072 287.516 303.271C287.519 303.356 287.54 303.439 287.577 303.516C287.614 303.592 287.667 303.661 287.731 303.716C287.87 303.784 288.029 303.794 288.176 303.746L293.101 302.836C293.24 302.842 293.378 302.81 293.501 302.744C293.623 302.677 293.726 302.578 293.796 302.458C293.867 302.338 293.904 302.201 293.903 302.062C293.902 301.922 293.863 301.786 293.791 301.666C292.722 297.075 290.723 292.751 287.916 288.963C289.22 290.195 290.8 291.098 292.523 291.598C294.247 292.097 296.065 292.177 297.826 291.832C298.514 291.735 299.164 291.453 299.706 291.018C300.806 290.018 300.756 288.313 300.511 286.858C300.29 285.562 299.986 284.281 299.601 283.023C298.676 280.024 294.686 279.214 291.981 278.484C288.141 277.467 284.271 276.566 280.371 275.779Z" fill="#3F3D56"/>
<path opacity="0.1" d="M284.016 286.408C284.719 286.686 285.356 287.109 285.886 287.648C285.001 286.648 282.471 286.148 281.231 285.683C279.696 285.113 278.021 284.528 276.731 283.513C279.226 284.3 281.661 285.268 284.016 286.408Z" fill="black"/>
<path d="M299.966 307.481C300.391 308.321 300.796 309.406 300.186 310.121C299.716 310.67 298.776 310.765 298.496 311.435C298.419 311.678 298.422 311.939 298.503 312.18C298.585 312.421 298.742 312.629 298.951 312.775C299.373 313.062 299.862 313.235 300.371 313.275C301.579 313.44 302.805 313.43 304.011 313.245C304.664 313.197 305.282 312.932 305.766 312.49C306.186 311.91 306.406 311.207 306.391 310.49L307.226 300.902C307.299 300.445 307.267 299.978 307.131 299.537C306.796 298.722 305.836 298.387 304.966 298.242C303.993 298.077 303.003 298.037 302.021 298.122C301.357 298.131 300.714 298.351 300.186 298.752C299.694 299.311 299.392 300.011 299.321 300.752C299.096 301.891 298.466 303.471 298.601 304.626C298.686 305.581 299.546 306.641 299.966 307.481Z" fill="#39A0ED"/>
<path d="M288.926 304.381C287.051 304.137 285.144 304.351 283.371 305.006C282.801 305.216 282.176 305.571 282.091 306.171C282.079 306.422 282.144 306.67 282.276 306.883C282.408 307.096 282.601 307.264 282.831 307.366C283.296 307.559 283.797 307.649 284.301 307.631C286.944 307.701 289.589 307.561 292.211 307.211C292.892 307.166 293.552 306.959 294.136 306.606C294.424 306.423 294.642 306.146 294.752 305.823C294.862 305.499 294.858 305.147 294.741 304.826C294.426 304.166 293.566 303.961 293.151 303.366C292.851 302.936 292.776 302.301 292.306 302.076C291.95 301.963 291.565 301.992 291.231 302.156C290.731 302.331 289.531 302.506 289.186 302.921C289.036 303.395 288.949 303.885 288.926 304.381Z" fill="#39A0ED"/>
<path d="M281.846 256.001C285.471 256.001 288.411 253.062 288.411 249.437C288.411 245.812 285.471 242.873 281.846 242.873C278.22 242.873 275.281 245.812 275.281 249.437C275.281 253.062 278.22 256.001 281.846 256.001Z" fill="#FABDBD"/>
<path d="M297.416 246.547C296.361 245.772 295.031 245.507 293.746 245.267C293.312 245.132 292.844 245.155 292.426 245.332C292.149 245.532 291.931 245.801 291.791 246.112C291.395 246.754 291.101 247.454 290.921 248.187C290.833 248.554 290.832 248.937 290.919 249.304C291.006 249.671 291.178 250.013 291.421 250.302C291.811 250.702 292.371 250.902 292.771 251.302C293.03 251.591 293.219 251.937 293.321 252.312C293.423 252.687 293.437 253.08 293.361 253.462C293.199 254.22 292.903 254.943 292.486 255.596C291.522 257.296 290.421 258.914 289.196 260.436C287.921 262.021 286.491 263.545 285.741 265.435C285.323 266.426 285.15 267.504 285.237 268.576C285.324 269.648 285.668 270.684 286.241 271.595C287.456 273.364 289.876 274.314 291.881 273.549C291.698 273.725 291.553 273.937 291.455 274.17C291.357 274.404 291.308 274.656 291.311 274.909L294.061 276.274C294.264 276.349 294.439 276.485 294.561 276.664C294.635 276.848 294.652 277.05 294.611 277.244C294.395 278.353 294.283 279.479 294.276 280.609C294.351 281.734 294.866 282.918 295.886 283.408C296.821 283.858 297.931 283.618 298.951 283.408C301.333 282.926 303.755 282.671 306.186 282.648C307.396 282.648 308.646 282.678 309.761 282.209C310.508 281.879 311.145 281.341 311.594 280.659C312.044 279.978 312.287 279.181 312.296 278.364C312.246 277.497 312.059 276.643 311.741 275.834C310.196 271.185 308.646 266.525 306.576 262.081C305.227 259.123 303.584 256.309 301.671 253.681C301.171 253.017 300.671 252.362 300.116 251.727C299.726 251.272 298.851 250.632 298.691 250.052C298.531 249.472 298.871 248.912 298.691 248.322C298.466 247.61 298.019 246.988 297.416 246.547Z" fill="#39A0ED"/>
<path d="M313.526 288.098C310.646 286.768 307.766 285.438 304.771 284.403C302.566 283.643 300.106 283.048 297.941 283.903C297.291 284.163 296.701 284.538 296.076 284.843C293.981 285.843 291.576 286.013 289.261 286.268C284.109 286.848 279.047 288.052 274.186 289.853C273.021 290.283 271.766 290.853 271.186 291.942C270.857 292.732 270.747 293.595 270.866 294.442C270.951 295.717 271.146 297.057 271.941 298.052C273.261 299.702 275.656 299.827 277.706 300.347C279.283 300.803 280.812 301.413 282.271 302.166C287.061 304.451 291.856 306.736 296.556 309.211C297.106 309.506 297.776 309.211 298.246 308.796C299.661 307.481 300.683 305.799 301.196 303.936C301.705 302.083 301.958 300.169 301.946 298.247C303.786 298.247 305.281 298.167 307.121 298.167C307.797 298.209 308.476 298.123 309.121 297.912C310.356 297.412 311.026 296.097 311.581 294.887C312.571 292.752 313.686 290.438 313.526 288.098Z" fill="#3F3D56"/>
<path opacity="0.1" d="M280.086 294.932C281.381 294.302 282.881 294.287 284.326 294.297C285.207 294.281 286.087 294.348 286.956 294.497C288.282 294.851 289.57 295.335 290.801 295.942C293.868 297.229 297.165 297.875 300.491 297.842" fill="black"/>
<path d="M272.616 250.367C273.605 251.279 274.832 251.895 276.156 252.142C277.456 252.442 278.796 252.557 280.106 252.847C281.716 253.202 283.476 254.051 283.841 255.661C283.925 256.306 283.942 256.958 283.891 257.606C283.867 257.93 283.915 258.256 284.032 258.559C284.148 258.862 284.331 259.136 284.566 259.361C284.824 259.535 285.107 259.669 285.406 259.756C288.029 260.758 290.289 262.526 291.894 264.83C293.499 267.134 294.374 269.867 294.406 272.675C295.229 272.194 295.935 271.535 296.47 270.746C297.004 269.957 297.355 269.058 297.496 268.115C297.496 269.855 298.996 271.615 298.146 273.169C299.073 272.564 299.864 271.772 300.469 270.844C301.075 269.916 301.481 268.873 301.662 267.78C301.843 266.688 301.795 265.569 301.521 264.496C301.247 263.423 300.753 262.418 300.071 261.546C299.411 260.706 298.571 260.006 297.881 259.201C296.901 258.07 296.165 256.75 295.72 255.322C295.274 253.894 295.128 252.389 295.291 250.902C295.436 249.637 295.791 248.357 295.526 247.112C295.141 245.387 293.626 244.188 292.186 243.163C291.173 242.401 290.088 241.741 288.946 241.193C287.433 240.566 285.832 240.177 284.201 240.038C280.596 239.633 277.391 240.193 275.156 243.238C274.703 243.933 274.123 244.537 273.446 245.017C272.944 245.254 272.475 245.555 272.051 245.912C270.906 247.182 271.556 249.282 272.616 250.367Z" fill="#3F3D56"/>
<path d="M205.186 177.17C204.981 177.085 190.731 171.2 192.686 170.03C193.851 169.335 195.286 166.396 196.266 164.091C196.951 162.486 197.416 161.186 197.416 161.186C197.416 161.186 208.856 159.156 204.761 166.186C204.115 167.262 203.629 168.425 203.316 169.64C202.136 174.39 205.071 177.08 205.186 177.17Z" fill="#A1616A"/>
<path opacity="0.1" d="M204.746 166.166C204.1 167.242 203.614 168.405 203.301 169.62C201.85 169.517 200.455 169.02 199.266 168.183C198.077 167.346 197.138 166.201 196.551 164.871C196.435 164.617 196.335 164.357 196.251 164.091C196.936 162.486 197.401 161.186 197.401 161.186C197.401 161.186 208.841 159.156 204.746 166.166Z" fill="black"/>
<path d="M211.856 161.386C211.847 163.215 211.213 164.986 210.057 166.404C208.901 167.821 207.295 168.8 205.505 169.177C203.715 169.554 201.85 169.307 200.221 168.476C198.592 167.645 197.296 166.281 196.551 164.611C196.1 163.596 195.868 162.497 195.871 161.386C195.881 159.466 196.581 157.613 197.845 156.167C199.108 154.72 200.849 153.776 202.751 153.507C204.653 153.239 206.588 153.663 208.203 154.703C209.817 155.743 211.004 157.329 211.546 159.171C211.751 159.892 211.855 160.637 211.856 161.386Z" fill="#A1616A"/>
<path opacity="0.1" d="M219.566 223.305C218.993 223.928 218.594 224.69 218.406 225.514C218.406 225.514 214.476 228.199 214.736 226.514C214.996 224.83 212.686 217.915 212.686 217.915L212.946 227.284C212.946 227.284 200.371 226.694 199.446 225.784C198.521 224.874 193.186 223.09 193.186 223.09C193.186 223.09 191.541 224.41 190.026 225.409C189.826 224.28 189.681 223.285 189.681 223.285L195.086 218.93L208.586 215.391L213.656 213.761L218.601 221.555C218.601 221.555 219.111 222.365 219.566 223.305Z" fill="black"/>
<path d="M219.976 222.565C218.931 223.22 218.536 224.99 218.536 224.99C218.536 224.99 214.606 227.674 214.866 225.989C215.126 224.305 212.836 217.41 212.836 217.41L213.101 226.779C213.101 226.779 200.521 226.189 199.601 225.28C198.681 224.37 193.311 222.595 193.311 222.595C193.311 222.595 188.661 226.329 187.811 225.999C186.961 225.669 189.311 219.32 189.311 219.32L191.731 182.114C191.731 182.114 191.076 171.045 192.061 170.65C192.212 170.59 192.352 170.502 192.471 170.39C193.121 169.81 193.316 168.63 193.371 167.636C193.436 166.461 195.006 167.046 195.006 167.046L194.091 168.226L202.211 173.16L202.281 173.205C202.605 173.038 202.939 172.89 203.281 172.76C204.001 172.485 204.956 172.225 205.581 172.485C205.93 172.664 206.226 172.931 206.441 173.26C206.905 173.955 207.277 174.708 207.546 175.5L210.496 180.474C210.496 180.474 211.996 187.094 211.996 187.353C211.996 187.613 212.456 193.643 212.996 194.298C213.536 194.953 214.046 198.227 213.851 199.212C213.656 200.197 214.176 203.862 214.176 203.862C216.341 205.632 217.451 211.656 217.451 211.656C217.451 211.656 220.861 218.405 221.121 219.19C221.381 219.975 221.026 221.91 219.976 222.565Z" fill="#444053"/>
<path opacity="0.1" d="M202.221 173.395C201.421 174.575 199.121 176.23 199.121 176.23L192.481 170.625C193.131 170.045 193.326 168.86 193.381 167.87C193.446 166.691 195.016 167.281 195.016 167.281L194.826 167.526C194.735 167.643 194.67 167.779 194.635 167.923C194.6 168.068 194.596 168.218 194.623 168.364C194.65 168.51 194.707 168.649 194.791 168.771C194.875 168.894 194.984 168.998 195.111 169.075L202.221 173.395Z" fill="black"/>
<path d="M202.221 173.13C201.421 174.31 199.121 175.97 199.121 175.97L192.481 170.36C193.131 169.78 193.326 168.6 193.381 167.606C193.446 166.431 195.016 167.016 195.016 167.016L194.826 167.261C194.735 167.378 194.67 167.514 194.635 167.658C194.6 167.803 194.596 167.953 194.623 168.099C194.65 168.245 194.707 168.384 194.791 168.507C194.875 168.629 194.984 168.733 195.111 168.81L202.221 173.13Z" fill="#444053"/>
<path opacity="0.1" d="M205.291 174.015C204.431 175.04 203.216 176.205 203.291 175.62C203.366 175.035 202.566 173.75 202.071 173.175C202.849 172.93 203.687 172.953 204.451 173.24C204.793 173.422 205.082 173.689 205.291 174.015V174.015Z" fill="black"/>
<path d="M205.421 173.62C204.561 174.65 203.346 175.81 203.421 175.23C203.496 174.65 202.776 173.7 202.276 173.125C202.996 172.85 203.951 172.59 204.576 172.85C204.92 173.028 205.212 173.293 205.421 173.62V173.62Z" fill="#444053"/>
<path opacity="0.1" d="M192.486 170.685C192.486 170.685 192.571 169.9 191.436 171.255C190.483 172.249 189.388 173.095 188.186 173.765C188.186 173.765 183.341 177.175 183.076 178.764C182.811 180.354 181.241 187.148 182.076 189.418C182.911 191.688 189.241 202.567 189.241 202.567C189.241 202.567 187.581 204.532 187.971 206.846C188.361 209.161 188.846 212.346 188.626 213.046C188.406 213.746 188.891 215.491 188.126 216.1C187.361 216.71 186.601 217.76 188.916 219.16C188.916 219.16 189.351 220.34 188.956 220.6C188.561 220.86 194.766 223.57 197.211 222.13C199.656 220.69 204.071 209.161 204.156 206.581C204.241 204.002 202.801 195.493 202.016 193.483C201.231 191.473 198.871 183.654 197.866 181.909C196.861 180.164 192.486 170.685 192.486 170.685Z" fill="black"/>
<path d="M192.221 170.685C192.221 170.685 192.311 169.9 191.176 171.255C190.217 172.258 189.113 173.11 187.901 173.785C187.901 173.785 183.051 177.195 182.791 178.784C182.531 180.374 180.956 187.169 181.791 189.438C182.626 191.708 188.951 202.587 188.951 202.587C188.951 202.587 187.291 204.552 187.686 206.866C188.081 209.181 188.561 212.366 188.341 213.066C188.121 213.766 188.601 215.511 187.841 216.12C187.081 216.73 186.311 217.78 188.626 219.18C188.626 219.18 189.066 220.36 188.671 220.62C188.276 220.88 194.481 223.59 196.926 222.15C199.371 220.71 203.781 209.181 203.871 206.601C203.961 204.022 202.516 195.513 201.731 193.503C200.946 191.493 198.586 183.674 197.581 181.929C196.576 180.184 192.221 170.685 192.221 170.685Z" fill="#39A0ED"/>
<path opacity="0.1" d="M190.476 178.109C190.476 178.109 194.231 182.259 194.101 185.009C194.101 185.009 194.146 180.554 190.476 178.109Z" fill="black"/>
<path opacity="0.1" d="M203.151 172.17C203.151 172.17 205.586 170.67 208.651 174.485C208.651 174.485 210.876 175.75 211.531 176.06C212.186 176.37 212.931 184.484 212.931 184.484C212.931 184.484 214.371 187.983 213.976 189.983C213.581 191.983 215.116 198.892 215.116 198.892C215.116 198.892 217.646 211.296 217.561 211.641C217.476 211.986 214.981 207.756 215.026 205.642C215.071 203.527 212.931 196.992 212.626 196.603C212.321 196.213 210.221 184.984 210.221 184.984C210.221 184.984 208.521 180.224 207.426 178.654C206.331 177.085 204.981 174.11 204.426 173.585C204.018 173.234 203.564 172.941 203.076 172.715L203.151 172.17Z" fill="black"/>
<path d="M203.121 172.17C203.121 172.17 205.851 170.67 208.906 174.485C208.906 174.485 211.136 175.75 211.791 176.06C212.446 176.37 213.186 184.484 213.186 184.484C213.186 184.484 214.626 187.983 214.236 189.983C213.846 191.983 215.371 198.892 215.371 198.892C215.371 198.892 217.906 211.296 217.816 211.641C217.726 211.986 215.241 207.756 215.281 205.642C215.321 203.527 213.186 196.992 212.881 196.603C212.576 196.213 210.481 184.984 210.481 184.984C210.481 184.984 208.776 180.264 207.686 178.679C206.596 177.095 205.236 174.135 204.686 173.61C204.2 173.231 203.654 172.937 203.071 172.74L203.121 172.17Z" fill="#39A0ED"/>
<path d="M215.111 199.462C215.111 199.462 220.306 196.058 222.816 197.737C225.326 199.417 229.436 201.802 225.396 203.527C221.356 205.252 215.766 204.922 215.766 204.922L215.111 199.462Z" fill="#A1616A"/>
<path opacity="0.1" d="M211.496 232.324C210.721 233.989 210.081 242.323 209.646 244.982C209.026 243.918 208.276 242.648 208.021 242.248C207.435 240.983 206.926 239.684 206.496 238.358C206.996 237.158 208.351 233.719 208.351 232.459C208.351 230.919 210.851 228.984 210.851 228.984C211.297 229.401 211.601 229.949 211.717 230.549C211.832 231.149 211.755 231.77 211.496 232.324V232.324Z" fill="black"/>
<path opacity="0.1" d="M211.546 159.171C211.421 159.236 211.29 159.29 211.156 159.331C210.541 159.496 209.941 159.081 209.396 158.751C208.851 158.422 208.096 158.177 207.621 158.606C207.006 159.166 207.451 160.361 206.816 160.901C206.416 161.246 205.781 161.126 205.316 161.401C204.851 161.676 204.736 162.301 204.621 162.831C204.506 163.361 204.286 163.971 203.761 164.126C203.236 164.281 202.761 163.941 202.261 163.956C202.156 163.956 202.031 163.956 201.961 163.896C201.914 163.827 201.896 163.743 201.911 163.661C201.973 163.024 201.915 162.382 201.741 161.766C201.649 161.459 201.478 161.181 201.244 160.962C201.011 160.742 200.723 160.589 200.411 160.516C199.491 160.376 198.716 161.181 198.176 161.941C197.608 162.741 197.092 163.576 196.631 164.441C196.606 164.486 196.581 164.546 196.551 164.616C196.1 163.601 195.868 162.502 195.871 161.391C195.881 159.471 196.581 157.618 197.845 156.172C199.108 154.725 200.849 153.781 202.751 153.512C204.653 153.244 206.588 153.668 208.203 154.708C209.817 155.748 211.004 157.334 211.546 159.176V159.171Z" fill="black"/>
<path d="M198.186 161.816C198.726 161.056 199.501 160.251 200.421 160.391C200.732 160.464 201.019 160.617 201.253 160.835C201.486 161.054 201.658 161.33 201.751 161.636C201.926 162.252 201.982 162.895 201.916 163.531C201.904 163.615 201.924 163.7 201.971 163.771C202.041 163.851 202.166 163.836 202.271 163.831C202.771 163.831 203.296 164.146 203.771 164.001C204.246 163.856 204.521 163.236 204.631 162.706C204.741 162.176 204.866 161.566 205.326 161.276C205.786 160.986 206.411 161.111 206.826 160.776C207.461 160.236 207.016 159.036 207.631 158.481C208.106 158.052 208.861 158.297 209.406 158.626C209.951 158.956 210.551 159.371 211.166 159.206C211.369 159.134 211.568 159.049 211.761 158.951C212.736 158.581 213.996 159.211 214.791 158.546C215.08 158.255 215.289 157.893 215.396 157.497C215.616 156.964 215.764 156.404 215.836 155.832C215.907 155.252 215.749 154.667 215.396 154.202C214.896 153.592 213.996 153.437 213.331 152.987C212.792 152.563 212.344 152.034 212.016 151.432C211.687 150.83 211.254 150.292 210.736 149.842C210.473 149.621 210.154 149.477 209.815 149.424C209.476 149.371 209.128 149.412 208.811 149.542C208.619 149.677 208.406 149.777 208.181 149.837C207.935 149.843 207.694 149.777 207.486 149.647C205.216 148.578 202.571 148.768 200.081 149.087C199.076 149.167 198.091 149.405 197.161 149.792C196.696 149.989 196.28 150.283 195.94 150.655C195.6 151.026 195.345 151.467 195.191 151.947C194.991 152.717 195.146 153.552 194.901 154.312C194.736 154.812 194.401 155.267 194.201 155.772C193.671 157.152 194.306 158.671 194.576 160.126C194.871 161.716 194.721 163.436 195.396 164.941C195.531 165.236 195.676 165.751 196.011 165.556C196.256 165.411 196.511 164.556 196.636 164.311C197.101 163.449 197.619 162.615 198.186 161.816V161.816Z" fill="#3F3D56"/>
<path opacity="0.1" d="M183.796 187.413L182.616 190.763C182.616 190.763 185.411 201.157 186.721 203.342C188.031 205.527 189.951 208.341 189.951 208.341C192.144 209.326 194.583 209.629 196.951 209.211C200.706 208.471 211.666 206.506 211.666 206.506C211.925 206.553 212.192 206.529 212.438 206.437C212.684 206.344 212.901 206.187 213.066 205.981C213.566 205.282 216.036 204.932 216.036 204.932C216.036 204.932 218.916 200.742 215.381 198.992C215.381 198.992 214.946 199.957 213.066 199.297C211.186 198.637 210.621 199.822 210.621 199.822C210.621 199.822 207.561 200.437 205.861 200.217C204.161 199.997 199.921 199.912 199.481 199.562C199.426 199.513 199.363 199.476 199.294 199.452C199.225 199.428 199.152 199.418 199.079 199.422C199.006 199.426 198.935 199.444 198.869 199.476C198.803 199.508 198.744 199.553 198.696 199.607C198.189 199.425 197.718 199.157 197.301 198.817C196.951 198.427 196.471 199.257 196.471 199.257C196.471 199.257 195.856 198.907 196.031 198.472C196.206 198.037 195.466 196.372 195.466 196.372C195.268 195.737 195.224 195.064 195.336 194.408C195.551 193.533 194.241 190.408 194.241 190.408C194.225 189.878 194.284 189.347 194.416 188.833C194.636 188.048 192.756 186.474 192.756 186.474C192.756 186.474 190.921 177.569 187.036 180.474C183.151 183.379 183.796 187.413 183.796 187.413Z" fill="black"/>
<path d="M183.531 187.413L182.351 190.763C182.351 190.763 185.146 201.157 186.456 203.342C187.766 205.527 189.691 208.341 189.691 208.341C191.884 209.328 194.323 209.631 196.691 209.211C200.451 208.471 211.411 206.506 211.411 206.506C211.67 206.553 211.937 206.529 212.183 206.437C212.429 206.344 212.646 206.187 212.811 205.981C213.311 205.282 215.781 204.932 215.781 204.932C215.781 204.932 218.661 200.742 215.126 198.992C215.126 198.992 214.686 199.957 212.811 199.297C210.936 198.637 210.361 199.822 210.361 199.822C210.361 199.822 207.306 200.437 205.601 200.217C203.896 199.997 199.661 199.912 199.226 199.562C199.171 199.513 199.108 199.476 199.039 199.452C198.97 199.428 198.897 199.418 198.824 199.422C198.751 199.426 198.68 199.444 198.614 199.476C198.548 199.508 198.489 199.553 198.441 199.607C197.933 199.425 197.459 199.158 197.041 198.817C196.691 198.427 196.211 199.257 196.211 199.257C196.211 199.257 195.601 198.907 195.776 198.472C195.951 198.037 195.206 196.373 195.206 196.373C195.011 195.736 194.967 195.064 195.076 194.408C195.296 193.533 193.986 190.408 193.986 190.408C193.967 189.877 194.026 189.347 194.161 188.833C194.376 188.048 192.501 186.474 192.501 186.474C192.501 186.474 190.666 177.569 186.781 180.474C182.896 183.379 183.531 187.413 183.531 187.413Z" fill="#39A0ED"/>
<path opacity="0.1" d="M194.321 197.542C194.321 197.542 190.041 198.417 191.481 199.157C192.921 199.897 194.321 197.542 194.321 197.542Z" fill="black"/>
<g opacity="0.1">
<path opacity="0.1" d="M201.741 160.896C201.65 160.589 201.479 160.312 201.245 160.093C201.011 159.874 200.723 159.722 200.411 159.651C199.491 159.511 198.716 160.316 198.176 161.071C197.609 161.872 197.091 162.707 196.626 163.571C196.486 163.831 196.246 164.671 196.001 164.816C195.666 165.011 195.501 164.491 195.386 164.196C194.711 162.696 194.886 160.971 194.566 159.381C194.329 158.457 194.141 157.521 194.001 156.577C193.901 157.717 194.351 158.917 194.566 160.076C194.861 161.666 194.711 163.386 195.386 164.891C195.521 165.186 195.666 165.701 196.001 165.506C196.246 165.361 196.501 164.506 196.626 164.266C197.09 163.401 197.608 162.566 198.176 161.766C198.716 161.006 199.491 160.201 200.411 160.346C200.723 160.417 201.011 160.569 201.245 160.788C201.479 161.007 201.65 161.284 201.741 161.591C201.848 161.914 201.907 162.251 201.916 162.591C201.966 162.02 201.906 161.445 201.741 160.896V160.896Z" fill="black"/>
<path opacity="0.1" d="M215.386 156.767C215.28 157.163 215.071 157.523 214.781 157.812C213.986 158.477 212.726 157.852 211.751 158.222C211.551 158.297 211.366 158.417 211.156 158.477C210.541 158.637 209.941 158.227 209.396 157.897C208.851 157.567 208.096 157.317 207.621 157.747C207.006 158.307 207.451 159.501 206.816 160.041C206.416 160.386 205.781 160.266 205.316 160.541C204.851 160.816 204.736 161.436 204.621 161.966C204.506 162.496 204.286 163.106 203.761 163.261C203.236 163.416 202.761 163.076 202.261 163.096C202.156 163.096 202.031 163.096 201.961 163.036C201.943 163.018 201.931 162.995 201.926 162.971C201.926 163.146 201.926 163.321 201.926 163.496C201.915 163.578 201.935 163.662 201.981 163.731C202.051 163.811 202.176 163.796 202.281 163.796C202.781 163.796 203.306 164.106 203.781 163.961C204.256 163.816 204.531 163.201 204.641 162.666C204.751 162.131 204.876 161.531 205.336 161.241C205.796 160.951 206.421 161.076 206.836 160.741C207.471 160.201 207.026 159.006 207.641 158.447C208.116 158.017 208.871 158.262 209.416 158.592C209.961 158.922 210.561 159.336 211.176 159.171C211.378 159.098 211.577 159.015 211.771 158.922C212.746 158.552 214.006 159.176 214.801 158.512C215.09 158.222 215.299 157.862 215.406 157.467C215.625 156.932 215.773 156.37 215.846 155.797C215.868 155.603 215.868 155.406 215.846 155.212C215.75 155.745 215.595 156.267 215.386 156.767V156.767Z" fill="black"/>
</g>
<path d="M128.186 296.647C161.185 296.647 187.936 291.275 187.936 284.648C187.936 278.022 161.185 272.65 128.186 272.65C95.1867 272.65 68.4357 278.022 68.4357 284.648C68.4357 291.275 95.1867 296.647 128.186 296.647Z" stroke="#444053" stroke-miterlimit="10"/>
<path d="M470.686 332.143C503.685 332.143 530.436 326.771 530.436 320.144C530.436 313.518 503.685 308.146 470.686 308.146C437.687 308.146 410.936 313.518 410.936 320.144C410.936 326.771 437.687 332.143 470.686 332.143Z" stroke="#444053" stroke-miterlimit="10"/>
<path d="M470.292 328.032C499.011 328.032 522.292 324.5 522.292 320.144C522.292 315.788 499.011 312.257 470.292 312.257C441.573 312.257 418.292 315.788 418.292 320.144C418.292 324.5 441.573 328.032 470.292 328.032Z" fill="#444053"/>
<path d="M129.306 292.535C158.025 292.535 181.306 289.004 181.306 284.648C181.306 280.292 158.025 276.761 129.306 276.761C100.587 276.761 77.3058 280.292 77.3058 284.648C77.3058 289.004 100.587 292.535 129.306 292.535Z" fill="#444053"/>
<path d="M60.6857 332.143C93.6847 332.143 120.436 326.771 120.436 320.144C120.436 313.518 93.6847 308.146 60.6857 308.146C27.6867 308.146 0.935669 313.518 0.935669 320.144C0.935669 326.771 27.6867 332.143 60.6857 332.143Z" stroke="#444053" stroke-miterlimit="10"/>
<g clip-path="url(#clip1_58_5164)">
<path d="M440.672 315.31C442.661 315.31 444.273 312.079 444.273 308.093C444.273 304.108 442.661 300.876 440.672 300.876C438.684 300.876 437.072 304.108 437.072 308.093C437.072 312.079 438.684 315.31 440.672 315.31Z" fill="#E6E6E6"/>
<path d="M441.005 319.906C439.563 311.407 440.99 302.938 441.005 302.854L441.285 302.9C441.271 302.984 439.851 311.409 441.285 319.86L441.005 319.906Z" fill="#3F3D56"/>
<path d="M443.842 306.541L440.586 308.252L440.721 308.499L443.977 306.788L443.842 306.541Z" fill="#3F3D56"/>
<path d="M437.284 307.398L437.15 307.645L440.406 309.357L440.54 309.11L437.284 307.398Z" fill="#3F3D56"/>
<path d="M513.291 268.626H507.389V288.693H513.291V268.626Z" fill="#3F3D56"/>
<path d="M517.188 284.918L502.834 268.145L474.023 268.403L456.546 285.126L456.899 285.349H456.773V320.132H517.149V285.349L517.188 284.918Z" fill="#3F3D56"/>
<path d="M502.85 268.18L484.918 288.831V320.131H517.149V284.903L502.85 268.18Z" fill="#39A0ED"/>
<path d="M504.438 302.822H497.856V308.537H504.438V302.822Z" fill="#3F3D56"/>
<path d="M504.438 292.93H497.856V298.554H504.438V292.93Z" fill="#3F3D56"/>
<path d="M504.438 302.822H497.856V308.537H504.438V302.822Z" fill="white"/>
<path d="M504.438 292.93H497.856V298.554H504.438V292.93Z" fill="white"/>
<path d="M480.448 319.112C480.448 319.112 480.589 316.207 483.482 316.545Z" fill="#E6E6E6"/>
<path d="M479.631 316.348C480.43 316.348 481.079 315.711 481.079 314.925C481.079 314.14 480.43 313.503 479.631 313.503C478.831 313.503 478.183 314.14 478.183 314.925C478.183 315.711 478.831 316.348 479.631 316.348Z" fill="#39A0ED"/>
<path d="M479.804 317.32H479.395V320.131H479.804V317.32Z" fill="#E6E6E6"/>
<path d="M432.021 311.079C435.911 311.079 439.064 304.759 439.064 296.963C439.064 289.168 435.911 282.848 432.021 282.848C428.132 282.848 424.979 289.168 424.979 296.963C424.979 304.759 428.132 311.079 432.021 311.079Z" fill="#39A0ED"/>
<path d="M432.806 320.046C429.989 303.444 432.777 286.903 432.806 286.738L433.086 286.784C433.058 286.949 430.278 303.446 433.086 320L432.806 320.046Z" fill="#3F3D56"/>
<path d="M438.286 294.046L431.917 297.392L432.051 297.638L438.42 294.292L438.286 294.046Z" fill="#3F3D56"/>
<path d="M425.33 295.722L425.196 295.968L431.564 299.316L431.698 299.07L425.33 295.722Z" fill="#3F3D56"/>
<path d="M448.7 307.783C454.023 307.783 458.337 299.135 458.337 288.468C458.337 277.8 454.023 269.152 448.7 269.152C443.378 269.152 439.063 277.8 439.063 288.468C439.063 299.135 443.378 307.783 448.7 307.783Z" fill="#39A0ED"/>
<path d="M449.826 320.046C445.973 297.336 449.787 274.709 449.826 274.483L450.106 274.53C450.067 274.755 446.261 297.338 450.106 320L449.826 320.046Z" fill="#3F3D56"/>
<path d="M457.298 284.521L448.583 289.099L448.717 289.346L457.432 284.767L457.298 284.521Z" fill="#3F3D56"/>
<path d="M439.52 286.814L439.386 287.061L448.099 291.642L448.233 291.396L439.52 286.814Z" fill="#3F3D56"/>
<path d="M475.186 301.306H468.603V307.021H475.186V301.306Z" fill="#3F3D56"/>
<path d="M475.186 291.413H468.603V297.038H475.186V291.413Z" fill="#3F3D56"/>
<path d="M475.186 301.306H468.603V307.021H475.186V301.306Z" fill="white"/>
<path d="M475.186 291.413H468.603V297.038H475.186V291.413Z" fill="white"/>
</g>
<g clip-path="url(#clip2_58_5164)">
<path d="M96.8718 286.989L96.7242 286.955C98.3698 279.557 102.505 272.839 108.369 268.038C112.802 264.414 118.074 261.99 123.689 260.995C129.305 260 135.078 260.466 140.466 262.349C145.854 264.232 150.68 267.471 154.488 271.76C158.296 276.049 160.962 281.247 162.234 286.865L162.087 286.899C158.604 271.436 145.199 260.637 129.489 260.637C113.986 260.637 100.268 271.72 96.8718 286.989Z" fill="#3F3D56"/>
<path d="M100.331 286.045C100.459 286.524 100.898 286.821 100.898 286.821C100.898 286.821 101.129 286.341 101.001 285.862C100.873 285.383 100.434 285.087 100.434 285.087C100.434 285.087 100.203 285.566 100.331 286.045Z" fill="#3F3D56"/>
<path d="M100.519 285.942C100.871 286.288 100.914 286.82 100.914 286.82C100.914 286.82 100.387 286.791 100.035 286.445C99.6834 286.099 99.6405 285.567 99.6405 285.567C99.6405 285.567 100.168 285.596 100.519 285.942Z" fill="#39A0ED"/>
<path d="M110.088 286.045C110.216 286.524 110.655 286.821 110.655 286.821C110.655 286.821 110.886 286.341 110.758 285.862C110.63 285.383 110.191 285.087 110.191 285.087C110.191 285.087 109.96 285.566 110.088 286.045Z" fill="#3F3D56"/>
<path d="M112.023 247.905L110.478 246.655L119.129 238.847H141.065V245.718L126.853 255.401L112.023 247.905Z" fill="#3F3D56"/>
<path d="M145.065 243.227V239.003H142.152V240.037L141.066 238.847L133.959 246.655L131.179 248.529L126.867 280.375L133.369 286.948H148.481V246.968L145.065 243.227Z" fill="#CCCCCC"/>
<path d="M133.959 246.655H110.478V286.948H133.959V246.655Z" fill="#F2F2F2"/>
<path d="M123.918 277.109H119.593V286.948H123.918V277.109Z" fill="#CCCCCC"/>
<path d="M114.958 279.921V278.359H113.104V279.921H114.804H114.958Z" fill="#3F3D56"/>
<path d="M114.804 281.17H113.104V282.732H114.958V281.17H114.804Z" fill="#3F3D56"/>
<path d="M118.048 278.359H116.194V279.921H118.048V278.359Z" fill="#3F3D56"/>
<path d="M118.048 281.17H116.194V282.732H118.048V281.17Z" fill="#3F3D56"/>
<path d="M127.626 279.921V278.359H125.772V279.921H127.471H127.626Z" fill="#3F3D56"/>
<path d="M127.471 281.17H125.772V282.732H127.626V281.17H127.471Z" fill="#3F3D56"/>
<path d="M130.715 278.359H128.861V279.921H130.715V278.359Z" fill="#3F3D56"/>
<path d="M130.715 281.17H128.861V282.732H130.715V281.17Z" fill="#3F3D56"/>
<path d="M140.602 248.686V247.124H138.748V248.686H140.448H140.602Z" fill="#3F3D56"/>
<path d="M140.448 249.935H138.748V251.497H140.602V249.935H140.448Z" fill="#3F3D56"/>
<path d="M143.692 247.124H141.838V248.686H143.692V247.124Z" fill="#3F3D56"/>
<path d="M143.692 249.935H141.838V251.497H143.692V249.935Z" fill="#3F3D56"/>
<path d="M140.602 257.431V255.87H138.748V257.431H140.448H140.602Z" fill="#3F3D56"/>
<path d="M140.448 258.681H138.748V260.242H140.602V258.681H140.448Z" fill="#3F3D56"/>
<path d="M143.692 255.87H141.838V257.431H143.692V255.87Z" fill="#3F3D56"/>
<path d="M143.692 258.681H141.838V260.243H143.692V258.681Z" fill="#3F3D56"/>
<path d="M140.602 266.177V264.615H138.748V266.177H140.448H140.602Z" fill="#3F3D56"/>
<path d="M140.448 267.427H138.748V268.988H140.602V267.427H140.448Z" fill="#3F3D56"/>
<path d="M143.692 264.615H141.838V266.177H143.692V264.615Z" fill="#3F3D56"/>
<path d="M143.692 267.427H141.838V268.988H143.692V267.427Z" fill="#3F3D56"/>
<path d="M140.602 274.923V273.361H138.748V274.923H140.448H140.602Z" fill="#3F3D56"/>
<path d="M140.448 276.172H138.748V277.734H140.602V276.172H140.448Z" fill="#3F3D56"/>
<path d="M143.692 273.361H141.838V274.923H143.692V273.361Z" fill="#3F3D56"/>
<path d="M143.692 276.172H141.838V277.734H143.692V276.172Z" fill="#3F3D56"/>
<path d="M131.024 248.686H113.104V252.434H131.024V248.686Z" fill="#3F3D56"/>
<path d="M131.024 256.182H113.104V259.93H131.024V256.182Z" fill="#3F3D56"/>
<path d="M131.024 263.678H113.104V267.427H131.024V263.678Z" fill="#3F3D56"/>
<path d="M131.024 271.175H113.104V274.923H131.024V271.175Z" fill="#3F3D56"/>
<path d="M101.325 269.134H100.881V286.878H101.325V269.134Z" fill="#3F3D56"/>
<path d="M105.426 271.395C105.455 277.6 101.137 282.65 101.137 282.65C101.137 282.65 96.7727 277.64 96.7444 271.436C96.7161 265.231 101.034 260.181 101.034 260.181C101.034 260.181 105.398 265.191 105.426 271.395Z" fill="#39A0ED"/>
<path opacity="0.1" d="M105.426 271.395C105.455 277.6 101.137 282.65 101.137 282.65C101.137 282.65 96.7727 277.64 96.7444 271.436C96.7161 265.231 101.034 260.181 101.034 260.181C101.034 260.181 105.398 265.191 105.426 271.395Z" fill="black"/>
<path d="M95.5488 269.134H95.1045V286.878H95.5488V269.134Z" fill="#3F3D56"/>
<path d="M99.6497 271.395C99.678 277.6 95.36 282.65 95.36 282.65C95.36 282.65 90.9961 277.64 90.9678 271.436C90.9395 265.231 95.2576 260.181 95.2576 260.181C95.2576 260.181 99.6215 265.191 99.6497 271.395Z" fill="#39A0ED"/>
<path d="M165.211 269.134H164.767V286.878H165.211V269.134Z" fill="#3F3D56"/>
<path d="M169.312 271.395C169.34 277.6 165.022 282.65 165.022 282.65C165.022 282.65 160.658 277.64 160.63 271.436C160.602 265.231 164.92 260.181 164.92 260.181C164.92 260.181 169.284 265.191 169.312 271.395Z" fill="#39A0ED"/>
</g>
</g>
<defs>
<linearGradient id="paint0_linear_58_5164" x1="205.006" y1="298.197" x2="205.006" y2="148.008" gradientUnits="userSpaceOnUse">
<stop stop-color="#808080" stop-opacity="0.25"/>
<stop offset="0.54" stop-color="#808080" stop-opacity="0.12"/>
<stop offset="1" stop-color="#808080" stop-opacity="0.1"/>
</linearGradient>
<linearGradient id="paint1_linear_58_5164" x1="-22804.5" y1="59765.9" x2="-26631" y2="59765.9" gradientUnits="userSpaceOnUse">
<stop stop-color="#808080" stop-opacity="0.25"/>
<stop offset="0.54" stop-color="#808080" stop-opacity="0.12"/>
<stop offset="1" stop-color="#808080" stop-opacity="0.1"/>
</linearGradient>
<clipPath id="clip0_58_5164">
<rect width="530" height="332" fill="white" transform="translate(0.685669 0.393188)"/>
</clipPath>
<clipPath id="clip1_58_5164">
<rect width="104" height="52" fill="white" transform="translate(418.292 268.145)"/>
</clipPath>
<clipPath id="clip2_58_5164">
<rect width="86" height="53" fill="white" transform="translate(86.4794 233.989)"/>
</clipPath>
</defs>
</svg>
